<?xml version="1.0" encoding="UTF-8"?>
<svg id="Livello_1" xmlns="http://www.w3.org/2000/svg" version="1.1" viewBox="0 0 350 186">
  <!-- Generator: Adobe Illustrator 30.1.0, SVG Export Plug-In . SVG Version: 2.1.1 Build 136)  -->
  <defs>
    <style>
      .st0 {
        fill: #2e76d9;
      }

      .st1 {
        fill: #f8fdff;
      }

      .st2 {
        fill: #cde5e8;
      }

      .st3 {
        fill: #3585f6;
      }

      .st4 {
        fill: #e2e3ee;
      }

      .st5 {
        stroke: #20c6f0;
        stroke-linecap: round;
        stroke-width: 7.7px;
      }

      .st5, .st6, .st7 {
        fill: none;
        stroke-miterlimit: 10;
      }

      .st8 {
        fill: #e1f3f6;
      }

      .st6 {
        stroke-width: .8px;
      }

      .st6, .st7 {
        stroke: #f8ce6b;
      }

      .st7 {
        stroke-width: .9px;
      }

      .st9 {
        fill: #f8ce6b;
      }

      .st10 {
        fill: #dad0d2;
      }

      .st11 {
        fill: #d5d4d8;
      }

      .st12 {
        fill: #06178c;
      }

      .st13 {
        fill: #c7b8bb;
      }

      .st14 {
        fill: #ededed;
      }

      .st15 {
        fill: #0089e0;
      }

      .st16 {
        fill: #00396a;
      }

      .st17 {
        fill: #002e4f;
      }
    </style>
  </defs>
  <path class="st17" d="M269.3,177c-2.5,3.2-5.4,5.7-4.8,6.8,0,0,1.3,1,5,1,6.3,0,12.5-.5,11.5-1.1-1.4-.9-5.5-1.2-9.4-2.6-1-.3,2.1-2.2,1.3-2.5-1.7-.6-3.1-1.2-3.6-1.5Z"/>
  <path class="st17" d="M333.3,183s1,1.2,4.8,1.2c6.6,0,13.4-.7,12.3-1.3-1.5-.8-12.9-2.8-12.9-2.8l-2.6-2.7-4.4,2,2.7,3.5Z"/>
  <path class="st10" d="M317,103.2c-3.9,0-6.9-.8-7.1-.8-2-.6-3.2-2.7-2.7-4.7.6-2,2.7-3.2,4.7-2.7.1,0,8.7,2.2,13.8-2.1,3.4-2.9,4.6-8.3,3.8-16.2l-.3-2.5,7.7-4.4c1.8-1,4.2-.4,5.2,1.4,1,1.8.4,4.2-1.4,5.2l-3.4,1.9c.5,9.2-1.7,16-6.7,20.3-4.2,3.6-9.4,4.5-13.6,4.5Z"/>
  <path class="st9" d="M325.6,84c-.1,5.6-1.6,9.6-4.4,12-5.5,4.7-14.9,2.3-15.1,2.3-2.2-.6-4.5.7-5.1,3-.6,2.2.7,4.5,2.9,5.2.3,0,3.5,1.7,7.8,1.5,22.7,2.9,26.1-14.6,26.3-22.8l-12.4-1.1Z"/>
  <path class="st3" d="M307.8,62.5c-1.5-.7-2.9-1.4-4.3-2.1-13.5,7.7-30.7,17.5-31.1,17.9,0,0,8.6,13.6,9.1,14.2.4.4,21.6-14.9,36.9-25.9-3.5-1.4-7.2-2.5-10.6-4Z"/>
  <path class="st3" d="M308.1,62.1c3.5,1.6,7.2,2.7,10.8,4.1,8.4-6.1,14.9-10.8,14.9-10.8l-14.4-4s-6.9,3.9-15.4,8.8c1.3.7,2.7,1.4,4.1,2Z"/>
  <polygon class="st12" points="283.3 44.2 291.7 67.1 308.3 73.2 287.3 34.9 283.3 44.2"/>
  <polygon class="st12" points="309.2 79 296.9 79 307.8 98.1 324.5 105.1 309.2 79"/>
  <path class="st0" d="M324.5,104.9l-9.8-16.7-41.8,24.5-8.2-14,5.2-83.3,18.8-11,33.8,57.6,11.4-6.7,9.5,16.1-11.4,6.7,9.8,16.7-17.2,10.1ZM286.6,40.3l-1.1.6-2.9,44.5,22.6-13.3-18.7-31.9Z"/>
  <polygon class="st3" points="250.8 94.9 264.7 98.8 272.9 112.8 258.3 109 250.8 94.9"/>
  <polygon class="st3" points="250.8 94.9 264.7 98.8 269.9 15.4 257.1 12.4 250.8 94.9"/>
  <polygon class="st3" points="257.1 12.4 269.9 15.4 288.7 4.4 275.8 .7 257.1 12.4"/>
  <path class="st17" d="M286.6,128.4s2,22,2,29.7c0,0-16,12.5-20,19,1.7,1.3,2.4,1.5,4,2.1,10.7-10.2,25.7-16.6,25.7-16.6,0,0,5.1-14.7,6.6-27.1l-18.4-7Z"/>
  <path class="st9" d="M296.5,129.8c3.6,0,7.3-.6,10.4-2.3,2.7-8.6,1.2-17.4,4-24.3,0,0,2.2-4.8.7-6.3-5.7-5.5-10.6-5-12.1-5.1-5.2,4.4-15,17.5-14.6,34.7,2.7,2.8,8.2,3.3,11.6,3.3Z"/>
  <path class="st16" d="M331.9,180.6c2.1-.6,3.1-.6,4.4-2.3-2.5-4-8.8-17.4-10.8-21.3-6.4-13.2-17.6-27.6-18.4-29.4,0,0,0-.2,0-.2-3.3,1.8-7.3,2.4-11.2,2.3-3.4-.1-8.2-.6-11-3.1,0,.2,0,.4,0,.5.5,9.6,24.7,19.3,46.2,53.8.7-.1.1,0,.7-.2Z"/>
  <path class="st5" d="M255.8,109"/>
  <path class="st4" d="M260.5,116.1c-.2,0-.5,0-.7-.2-3-2.1-4.6-6.3-4.6-6.5-.2-.6,0-1.2.7-1.4.6-.2,1.2,0,1.4.7h0s1.4,3.7,3.8,5.4c.5.4.6,1.1.3,1.6-.2.3-.6.5-.9.5Z"/>
  <path class="st4" d="M260.5,113.4c-.4,0-.7-.2-.9-.5-1.4-2-2.6-6.9-2.7-7.4-.1-.6.2-1.2.8-1.4.6-.1,1.2.2,1.4.8.3,1.4,1.4,5.2,2.4,6.6.4.5.2,1.2-.3,1.6-.2.1-.4.2-.6.2Z"/>
  <path class="st4" d="M262.1,112.7c-.4,0-.9-.3-1-.7-1-2.5-1.4-7.8-1.5-8.1,0-.6.4-1.2,1-1.2.6,0,1.2.4,1.2,1,.1,1.4.5,5.5,1.3,7.4.2.6,0,1.2-.6,1.5-.1,0-.3,0-.4,0Z"/>
  <path class="st4" d="M263.8,112.2c-.5,0-1-.3-1.1-.8-.7-2.8,0-5.6,0-5.7.1-.6.8-1,1.4-.8.6.1,1,.7.8,1.4,0,0-.5,2.4,0,4.6.2.6-.2,1.2-.8,1.4,0,0-.2,0-.3,0Z"/>
  <path class="st11" d="M309,99.5c-.5,0-1-.1-1.5-.3-1.8-.9-2.6-3-1.7-4.8.9-1.9,2.5-3.8,2.7-4,1.3-1.5,3.6-1.7,5.1-.4,1.5,1.3,1.7,3.6.4,5.1h0c-.5.5-1.3,1.7-1.7,2.5-.6,1.3-1.9,2.1-3.3,2.1Z"/>
  <path class="st10" d="M309.6,97.7c.4.5.9.9,1.3,1.3.6-.4,1.1-.9,1.4-1.5.4-.8,1.2-1.9,1.7-2.5,1.3-1.5,1.1-3.8-.4-5.1-1.5-1.3-3.8-1.1-5.1.4,0,0-.4.4-.7.9,0,2.3.3,4.6,1.8,6.4Z"/>
  <path class="st4" d="M321.4,93.7c-1.4,3.5-5.4,5.1-8.9,3.7h0c-3.5-1.4-5.1-5.4-3.7-8.9l1.8-4.4c1.4-3.5,5.4-5.1,8.9-3.7h0c3.5,1.4,5.1,5.4,3.7,8.9l-1.8,4.4Z"/>
  <path d="M309.6,88c-.6,2.3-3.9,1.6-5.2.4-1.7-1.7-2.8-6.4,1.1-6.2-2.8-4.2,6.6-8.7,7.6-3.9.7-1.2,1.5-2.4,3.1-2.5,1.2,0,3.2.8,3.1,2.3,1.8-1.4,4.3-1.3,6,.1.6.4,1.6,1.4,1.1,2.2-.3.4-1.7.5-2.2.7.8-.4,4.2.4,3.5,1.8-.3.6-1.9,0-2.4,0,0,0,0,.2,0,.1,1.8,1,2.5,2,2.3,4.2,0,1-.6,3-1.8,3.1-.6,0-1.3-.3-1.3-1,1.5,1.5-.6,5.5-2.5,3.5-.7-.8-.4-2.1.3-2.7-1.1-.6-3.5-4-1.8-5-.8,0-4.5-1.2-3.4-2.3.3,1.2-1.2,2.9-2.5,2.2.8,1.7-1.5,2.9-2.9,3,.8,1.1-1.8,2.3-2.6.8l.3-.7Z"/>
  <path class="st15" d="M181.6,74.4s-2.2-8.4,8.7-10.4l-.8,10.1-7.8.3Z"/>
  <path class="st2" d="M138.2,95.5c-2.4,0-4.6-.5-6.6-1.4-9.9-4.7-10.9-18.6-11-19.2-.1-2.1,1.4-3.9,3.5-4.1,2.1-.1,3.9,1.4,4.1,3.5.2,2.8,1.8,10.6,6.6,12.9,4,1.9,10.1,0,17.8-5.5,1.7-1.2,4.1-.8,5.3.9,1.2,1.7.8,4.1-.9,5.3-7.1,5.1-13.5,7.6-18.9,7.6Z"/>
  <path class="st3" d="M158.5,102.7c1.1-2.8,2.1-5.6,3.2-8.4-.8,0-1.6-.2-2.3-.3-3.7-.7-6.9-2.2-9.4-4.5-2.6-2.3-4.6-5.2-6-8.8-1.4-3.5-2.2-7.6-2.4-12.1-.2-4.5.1-9.3,1.1-14.3,1-5.1,2.4-9.7,4.3-13.8,1.9-4.1,4.1-7.5,6.7-10.3,2.6-2.8,5.5-4.8,8.8-6,3.2-1.2,6.7-1.4,10.4-.7,2.9.6,5.5,1.7,7.8,3.3,1.1-2.2,2.3-4.3,3.4-6.4,1.3-2.5,2.5-5.1,3.7-7.6.5-1.1.9-2.2,1.4-3.4-3.8-2.1-8-3.7-12.7-4.6-6.6-1.3-12.9-1-18.7.7-5.8,1.7-11.1,4.7-15.8,8.8-4.7,4.1-8.7,9.2-11.9,15.4-3.3,6.2-5.6,13.1-7.1,20.7-1.5,7.6-1.8,14.9-1.1,21.9.8,7,2.5,13.2,5.4,18.7s6.7,10.2,11.4,14c4.5,3.5,9.7,5.9,15.8,7.3,1.4-3.2,2.8-6.4,4.1-9.7Z"/>
  <path class="st12" d="M210.4,45.2c-.8-7-2.5-13.2-5.4-18.7-2.8-5.5-6.7-10.2-11.4-14-1.3-1-2.6-1.9-4.1-2.8-.4,1.1-.9,2.3-1.4,3.4-1.2,2.6-2.4,5.1-3.7,7.6-1.1,2.1-2.3,4.3-3.4,6.5.4.3.8.6,1.1.9,2.6,2.3,4.6,5.2,6,8.8,1.5,3.6,2.3,7.6,2.5,12,.2,4.5-.1,9.3-1.1,14.4-1,5-2.4,9.6-4.3,13.7-1.9,4.1-4.1,7.6-6.8,10.3s-5.6,4.8-8.9,6c-2.4.9-4.9,1.3-7.5,1.1-1.3,3-2.3,6.1-3.5,9.2-1.1,3-2.4,6-3.8,8.9.3,0,.6.1.9.2,6.6,1.3,12.9,1,18.7-.7,5.8-1.7,11.1-4.7,15.8-8.8,4.7-4.1,8.7-9.2,11.9-15.4,3.3-6.2,5.6-13.1,7.1-20.7,1.5-7.6,1.8-14.9,1.1-21.9Z"/>
  <path class="st0" d="M167.5,116.7c-6.6-1.3-12.3-3.8-17.1-7.6-4.8-3.8-8.6-8.4-11.4-14-2.8-5.5-4.6-11.8-5.4-18.7-.8-7-.4-14.2,1.1-21.9,1.5-7.6,3.8-14.5,7.1-20.7,3.3-6.2,7.2-11.3,11.9-15.4,4.7-4.1,9.9-7,15.8-8.8,5.8-1.7,12.1-2,18.7-.7,6.6,1.3,12.3,3.8,17.1,7.6,4.8,3.8,8.6,8.4,11.5,14,2.8,5.5,4.6,11.8,5.4,18.7.8,7,.4,14.2-1.1,21.9-1.5,7.6-3.8,14.5-7.1,20.7-3.3,6.2-7.2,11.3-11.9,15.4-4.7,4.1-9.9,7-15.8,8.8-5.8,1.7-12.1,2-18.7.7ZM171.1,98c3.6.7,7,.4,10.3-.8,3.2-1.2,6.2-3.2,8.9-6,2.7-2.8,4.9-6.2,6.8-10.3,1.9-4.1,3.3-8.7,4.3-13.7,1-5.1,1.3-9.9,1.1-14.4-.2-4.5-1.1-8.5-2.5-12-1.5-3.6-3.5-6.5-6-8.8-2.6-2.3-5.7-3.8-9.3-4.5-3.7-.7-7.2-.5-10.4.7-3.2,1.2-6.2,3.2-8.8,6-2.6,2.8-4.9,6.2-6.7,10.3-1.9,4.1-3.3,8.7-4.3,13.8-1,5-1.3,9.8-1.1,14.3.2,4.5,1,8.5,2.4,12.1,1.4,3.5,3.4,6.5,6,8.8,2.6,2.3,5.7,3.8,9.4,4.5Z"/>
  <path class="st16" d="M235.3,61.9v33.8s-5.8,8.4-11,0l1.9-37.1,9.1,3.2Z"/>
  <path class="st17" d="M218.5,172.7c-.2-.2-1.8-.9-2-1.1-.8,1.3-1.4,2-2.4,3,2.5,2.2,1.8,4.8,1.8,4.8,0,0-1.8,1.5-2.4,1.9-2.2,1.1-6.2,2.6-6.2,2.6l10.2.8,7.5-7.7c-2.7-1.5-4.7-2.8-6.4-4.2Z"/>
  <path class="st17" d="M178.6,173.2c-1.6-.3-3.7,1-5,0-.3,2.8-.2,4.4-.2,4.4l-15,6.2h19.2c.2-2-.2-4,0-5.9.1-1,.8-3.7,1-4.7Z"/>
  <path class="st2" d="M196.1,105l-17,32.3s6.9,5.8,13.7,7.8l12.7-38.1-9.4-2Z"/>
  <path class="st17" d="M214.7,175.4c1-1,1.9-2.3,2.7-3.6-4.4-3.8-6.5-7.6-12.5-14.3-2.5-2.8,4.1-18.6,5.7-21.3,2.9-4.8,3.3-8.2,5.5-16.4l-16.6,6.2c-4,14.2-8.6,28.3-3.9,35.1,4.9,7.1,13.5,12.9,17.7,15.8.2.1,1.3-1.6,1.5-1.5Z"/>
  <path class="st4" d="M186.8,72.7c-.2,0-.5,0-.7-.2-.5-.4-.6-1.1-.3-1.6,1.3-1.9,1.6-3.4,1.6-3.4.1-.6.7-1,1.3-.9.6.1,1,.7.9,1.3,0,0-.4,2-2,4.3-.2.3-.6.5-.9.5Z"/>
  <path class="st9" d="M214.9,123.3c4.9-13.6,9.2-34.9,10.7-43.4-.9-.4-1.7-.6-2.4-.8-1.5-.4-3.2-.9-4.7-.4-.8.2-1.4.6-2.1,1-.6,1.8-.9,3.4-.9,3.4,0,0-10.6,20.3-17.5,34.1,5.9,1.3,11.6,3.2,16.9,6Z"/>
  <path class="st16" d="M197.8,117.7s0,0,0,0c-.6,1.2-1.2,2.4-1.7,3.5h0c-1.4,2.4-2.8,4.6-4.2,6.8-13.7,20.6-18.9,38.8-19.8,46.6,1.3,1,37.4-10,39.1-9.7-9.5-13.6-3.4-28.4-.8-31.8,1.5-2,3.1-5.3,4.5-9.3-5.3-2.8-11.1-4.7-17-6Z"/>
  <path class="st4" d="M184.6,123.3c-1.6,0-3.1-1-3.6-2.6-.7-2,.4-4.2,2.4-4.9,4.6-1.6,11.8-8,16.6-14.8,9.7-13.8,16.6-21.5,16.9-21.8,1.4-1.6,3.8-1.7,5.4-.3,1.6,1.4,1.7,3.8.3,5.4h0c0,0-6.9,7.7-16.3,21.1-4.7,6.7-13.1,15.1-20.3,17.6-.4.1-.8.2-1.3.2Z"/>
  <path class="st10" d="M223,81.2c0,0-.2,0-.3,0-2-.1-3.5-1.9-3.3-3.9.2-2.1,1-4.4,1-4.7.6-1.9,2.7-2.9,4.6-2.2,1.9.6,2.9,2.7,2.2,4.6-.2.7-.6,2-.7,2.9-.1,1.9-1.7,3.3-3.6,3.3Z"/>
  <path class="st13" d="M224,77.4c.6.7,1.3,1.4,2.1,2,.3-.5.4-1,.5-1.5,0-.9.4-2.2.7-2.9.6-1.9-.4-3.9-2.2-4.6-1.6-.5-3.2,0-4.1,1.4.3,2,2,4.3,3.2,5.7Z"/>
  <path class="st4" d="M233.3,69.6c0,3.8-3.2,6.7-7,6.7h0c-3.8,0-6.7-3.2-6.7-7v-4.7c.2-3.8,3.3-6.7,7.1-6.7h0c3.8,0,6.7,3.2,6.7,7v4.7Z"/>
  <path class="st4" d="M179.1,122.3c-1.6,0-3.4-.4-5.4-1.3-.6-.2-.8-.9-.6-1.5.2-.6.9-.8,1.5-.6,3,1.2,5.3,1.4,6.8.5.5-.3,1.2-.1,1.5.4.3.5.2,1.2-.4,1.5-1,.6-2.2.9-3.5.9Z"/>
  <path class="st4" d="M180.5,123.9c-1.8,0-3.2-.3-4.9-.7h-.5c-.6-.3-1-.9-.8-1.5.1-.6.8-1,1.4-.8h.5c2.7.8,4.5,1.2,8.5.2.6-.2,1.2.2,1.4.8.2.6-.2,1.2-.8,1.4-1.9.5-3.4.7-4.8.7Z"/>
  <path class="st4" d="M179.1,120.1c-3.5,0-6-2.2-6.1-2.3-.5-.4-.5-1.1,0-1.6.4-.5,1.1-.5,1.6,0,.1.1,2.7,2.4,6.2,1.5.6-.2,1.2.2,1.4.8s-.2,1.2-.8,1.4c-.8.2-1.5.3-2.2.3Z"/>
  <path class="st4" d="M181.4,118.9s0,0-.1,0c-3.8-.4-5.4-3.2-5.5-3.3-.3-.5-.1-1.2.4-1.5.5-.3,1.2-.1,1.5.4,0,0,1.1,1.9,3.7,2.2.6,0,1.1.6,1,1.2,0,.6-.6,1-1.1,1Z"/>
  <path class="st4" d="M194.9,74.4c0,0-.1,0-.2,0-1.9-.3-7-1.1-8.1-1.1s-1.1-.5-1.1-1.1.5-1.1,1.1-1.1c1.6,0,7.8,1,8.5,1.1.6.1,1,.7.9,1.3,0,.6-.6.9-1.1.9Z"/>
  <path class="st4" d="M194.2,76.7c0,0-.2,0-.3,0,0,0-5.4-1.5-7.9-1.6-.6,0-1.1-.6-1.1-1.2s.6-1.1,1.2-1.1c2.7.2,8.1,1.6,8.4,1.7.6.2,1,.8.8,1.4-.1.5-.6.8-1.1.8Z"/>
  <path class="st4" d="M193.6,79.2c-.1,0-.2,0-.3,0-5.1-1.6-6.3-1.7-7-1.8-.3,0-.6,0-.9-.1-.6-.2-1-.8-.8-1.4.2-.6.8-1,1.4-.8.2,0,.3,0,.5,0,.8,0,2.2.2,7.5,1.9.6.2.9.8.7,1.4-.2.5-.6.8-1.1.8Z"/>
  <path class="st4" d="M191.4,81s0,0,0,0c-5.1-.4-5.3-3.1-5.3-3.4h2.3c0,0,0,0,0-.1,0,0,.2,1.1,3.2,1.3.6,0,1.1.6,1,1.2,0,.6-.5,1-1.1,1Z"/>
  <path class="st4" d="M187.1,79.7s-1-.5-2.5-.5-3-2.2-3-4.4c0,0-.6-6.6,6.4-3.6l-.9,8.5Z"/>
  <path class="st2" d="M209.2,99.4l-9.8,48.4s15.2,3.7,24.6-1.7l2.4-67.3s-10.5-3.7-17.1,20.6Z"/>
  <path class="st9" d="M211.5,126.1l9.4-.5s.2,14.4-5.4,13.8c0,0-7.7,1.7-4-13.3Z"/>
  <path class="st16" d="M212.9,83.2l6.9-4.2s2-5.1,2.4-7.6c.9-5.5,2.1-14.5.2-16.4,0,0-7.1,0-6.7,11.2s-2.9,14.3-2.9,16.9Z"/>
  <path class="st16" d="M223,58.2c.3.5,7,4.9,12.3,3.7,0,0-.9-7.9-13.2-6.8l.9,3.1Z"/>
  <path class="st7" d="M228.2,66.7c0,2.1-1.7,3.8-3.8,3.8s-3.8-1.7-3.8-3.8,1.7-3.8,3.8-3.8c2.1,0,3.8,1.7,3.8,3.8Z"/>
  <path class="st6" d="M236.7,67.4c0,1.8-1.5,3.3-3.3,3.3s-3.3-1.5-3.3-3.3,1.5-3.3,3.3-3.3,3.3,1.5,3.3,3.3Z"/>
  <path class="st7" d="M228.2,66.7s1.2-.5,2,.3"/>
  <path class="st11" d="M118.7,73.3c0,0-.2,0-.3,0-2-.1-3.5-1.9-3.3-3.9.2-2.1,1-4.4,1-4.7.6-1.9,2.7-2.9,4.6-2.2,1.9.6,2.9,2.7,2.2,4.6-.2.7-.6,2-.7,2.9-.1,1.9-1.7,3.3-3.6,3.3Z"/>
  <path class="st17" d="M116.6,173.2c6,2.8,10.9,2.7,11.3,2.8,3.9-6.9,15.6-25.7,4.9-41l-15.1-8.1s15.1,15.7-1.1,46.4Z"/>
  <path class="st17" d="M124.4,179.3s1.4-2.8,2.5-4.7c-.8-.1-4.5-.2-6-.8-1.4,2.9-4.5,7.1-6.6,10h20.3l-10.1-4.4Z"/>
  <path class="st16" d="M149.4,135.8c-2.5-4.9-20.8-19.6-22.5-28.1-.1-.7-.3-1.5-.4-2.3-2.9,1.6-6.8,2-9.8,2.1-3.4.2-5.5.4-8.8-1.2.3,5.2-.6,10.3,2.5,15.6,6.1,10.6,26.3,19.6,28.5,23.1,4.4,6.9,6,21.8,7.5,30.9,2.4,0,8-.1,10.3-.9-.8-4.7.5-23.9-7.4-39.2Z"/>
  <path class="st17" d="M155.7,178.5s-.7-2.7-.9-3.9c-2.3.8-3.7,0-6.1,0,.4,2.3,0,6.5.3,9h19.2l-12.6-5.1Z"/>
  <path class="st2" d="M116.9,110.3c2.9-.1,9.1-.9,11.5-3.4-.5-4-2.3-10.5-1.7-15.7,2.1-17.6-6.5-22.9-6.5-22.9,0,0-4-2.8-7.2.5-4.8,5-9.6,19.1-9.1,39.9,3.3,1.7,9.4,1.7,12.9,1.5Z"/>
  <path class="st4" d="M161.1,115.9c-.3,0-.6,0-.9-.1-13.9-3.2-25.6-11.5-34-24-6.3-9.4-8.4-17.8-8.5-18.1-.5-2.1.7-4.1,2.8-4.6,2-.5,4.1.7,4.6,2.8,0,.2,2,7.7,7.6,16,7.3,10.9,17.2,17.8,29.2,20.6,2.1.5,3.3,2.5,2.9,4.6-.4,1.8-2,3-3.7,3Z"/>
  <path class="st8" d="M152.7,104.4c-7.6-3.6-14.1-9.4-19.3-17.1-5.5-8.2-7.5-15.7-7.5-15.8-.5-2-2.3-3.4-4.4-3.4s-.7,0-1.1.1c-1.2.3-2.1,1-2.8,2.1s-.8,2.2-.5,3.4h0c.6,2.7,3,11.7,8.6,20.1,6.7,10.1,15.9,17.6,26.4,21.8,0,0,.2,0,.2,0,.1,0,.3,0,.4-.1.2-.1.3-.3.3-.6v-10.1c0-.3-.2-.5-.4-.6Z"/>
  <path class="st4" d="M163.9,116.2c-1.2,0-2.5-.1-3.9-.4-.6-.1-1-.7-.9-1.3.1-.6.7-1,1.3-.9,3.4.7,6.1.4,8.3-.7.5-.3,1.2,0,1.5.5s0,1.2-.5,1.5c-1.7.9-3.7,1.4-5.9,1.4Z"/>
  <path class="st4" d="M164.1,113.7c-.5,0-1.1,0-1.6-.1-.6,0-1-.7-1-1.3,0-.6.7-1,1.3-1,3.6.5,6.9-1.3,7-1.4.5-.3,1.2-.1,1.5.4s.1,1.2-.4,1.5c-.1,0-3.1,1.8-6.8,1.8Z"/>
  <path class="st4" d="M163.1,111.4c-.2,0-.4,0-.5,0-.6,0-1.1-.6-1.1-1.2s.6-1.1,1.2-1.1c2.7.2,4.1-1.5,4.1-1.5.4-.5,1.1-.6,1.6-.2.5.4.6,1.1.2,1.6,0,.1-1.9,2.3-5.4,2.3Z"/>
  <path class="st4" d="M159.2,109.5c-.6,0-1.1-.5-1.1-1.1s.5-1.1,1.1-1.1c.1,0,2.3,0,3.6-1.9.4-.5,1.1-.6,1.6-.3.5.4.6,1.1.3,1.6-2,2.8-5.3,2.9-5.4,2.9Z"/>
  <path class="st4" d="M155.5,84.1c-.4,0-.7-.2-.9-.5-1.7-2.3-2-4.3-2-4.3-.1-.6.3-1.2.9-1.3.6-.1,1.2.3,1.3.9,0,0,.3,1.5,1.6,3.4.4.5.2,1.2-.3,1.6-.2.1-.4.2-.7.2Z"/>
  <path class="st4" d="M155.8,84.6c0,0-.1,0-.2,0-2.5-.5-7.3-.5-7.4-.5-.6,0-1.1-.5-1.1-1.1s.5-1.1,1.1-1.1,5.1,0,7.8.5c.6.1,1,.7.9,1.3-.1.5-.6.9-1.1.9Z"/>
  <path class="st4" d="M147.5,87c-.6,0-1-.4-1.1-1,0-.6.4-1.2,1-1.3.7,0,7-.9,9.1-.5.6.1,1,.7.9,1.3-.1.6-.7,1-1.3.9-1.3-.2-5.8.2-8.4.5,0,0,0,0-.1,0Z"/>
  <path class="st4" d="M149,89.5c-.5,0-1-.4-1.1-.9-.1-.6.3-1.2.9-1.3,2.7-.5,3.5-.8,4.8-1.2.6-.2,1.4-.4,2.5-.8.6-.2,1.2.2,1.4.8.2.6-.2,1.2-.8,1.4-1.1.3-1.8.6-2.5.8-1.4.4-2.2.7-5,1.3,0,0-.1,0-.2,0Z"/>
  <path class="st4" d="M151.4,91.3c-.5,0-1-.4-1.1-.9-.1-.6.3-1.2.9-1.3,3.6-.6,4.4-2,4.4-2,.2-.6.8-.9,1.4-.7.6.2.9.8.7,1.4-.1.4-1.1,2.7-6.1,3.5,0,0-.1,0-.2,0Z"/>
  <path class="st4" d="M155.1,89.7l.5-9.2s3.9.9,3.3,5.1c-.2,1.4-.8,2.9-3.8,4.1Z"/>
  <path class="st4" d="M130.4,60.1c1,3.8-1.3,7.8-5.1,8.8h0c-3.8,1-7.8-1.3-8.8-5.1l-1.3-4.8c-1-3.8,1.3-7.8,5.1-8.8h0c3.8-1,7.8,1.3,8.8,5.1l1.3,4.8Z"/>
  <path class="st16" d="M129.7,57.5c-.5,1.5-1.3,3-2.5,4.1-2.9,2.5-7.3,3.2-10.9,1.7v.5c1.1,3.8,5.1,6.1,8.9,5.1,3.8-1,6.1-5,5.1-8.8l-.7-2.6Z"/>
  <path class="st16" d="M116.5,63.5c-2.7-1.7-5.6-8.3-1.4-9.8,2.6-.9,1.6,7.2,1.6,9.5l-.2.2Z"/>
  <path class="st16" d="M114.3,54.3c-3.3-2.4.8-9.1,8.9-9.1s5,3.8,1.5,5.9c-2.9,1.7-7.3.7-9.5,3.6l-.9-.4Z"/>
  <path class="st16" d="M129.7,59c-1.1-1.7-3.4-5.2-4.3-7.2-.6-1.3-1.3-3.4,1.2-1.9,2.1,1.3,3.2,5.8,3.1,8v1.1Z"/>
  <path class="st12" d="M72.7,75c-1.2,1.1-2.6,2.2-3.7,3.5l-16.2,33.9,12.1-15.6,12.8-26.6c-1.6,1.6-3.3,3.2-5,4.7Z"/>
  <path class="st12" d="M63.1,69.4c1.2-1.6,2.3-3.5,3.7-5.2l-28.4-13.9-27,2.7,47.3,21.8c1.6-1.8,3.1-3.6,4.5-5.4Z"/>
  <path class="st3" d="M67.1,64.5c-1.5,1.9-2.7,4.1-4.2,5.9-1.3,1.6-2.6,3.2-3.9,4.7l21.5,9.9,7.8-10.2-21.2-10.3Z"/>
  <path class="st0" d="M34.8,103.8l8.3-17.4L-.6,65.5l7-14.6L78.4,8.5l19.6,9.4-28.8,60.3,11.9,5.7-8.1,16.9-11.9-5.7-8.3,17.4-18-8.6ZM67.1,36.3l-1.1-.5-38.5,22.5,23.6,11.3,15.9-33.3Z"/>
  <polygon class="st12" points="81 83.9 88.3 74.8 82.6 87.4 72.7 101.3 81 83.9"/>
  <path class="st12" d="M78.3,69.8L106.6,7.6l-8.6,10.3-28.8,60.3c.8-.8,8.6-7.9,9.1-8.4Z"/>
  <polygon class="st3" points="6.5 50.9 19.3 39.7 89.5 -.6 78.4 8.5 6.5 50.9"/>
  <polygon class="st3" points="78.4 8.5 98 17.9 106.6 7.6 89.5 -.6 78.4 8.5"/>
  <path class="st14" d="M54.3,53.9c-2.4-1.7-4.1-1-5.2-.8-1.3.2-2.2-.5-2.2-.5-.5-.3-1.2-.2-1.6.3-.3.5-.2,1.2.3,1.6,0,0,1,.7,2.8,1.1-1.9,1.7-3.8,3.8-3.9,3.9-.4.5-.4,1.2,0,1.6.2.2.5.3.8.3s.6-.1.8-.4c0,0,1.4-1.5,2.8-2.9-1.4,1.7-2.7,3.5-2.9,3.9-.4.5-.2,1.2.3,1.6.2.1.4.2.7.2.3,0,.7-.2.9-.5.7-1,1.8-2.4,2.8-3.7-.4.7-.8,1.6-1.8,3.1-.3.5-.2,1.2.4,1.6.2.1.4.2.6.2.4,0,.7-.2,1-.5.4-.6.7-1.1,1-1.6-.2.5,0,1.1.4,1.4.2.1.4.2.6.2.4,0,.7-.2.9-.5,1.1-1.6,1.6-2.9,1.8-4h0c.6-3.1-.1-4.6-1.3-5.4ZM52,61.8c.4-.7.6-1.1.9-1.6-.2.5-.5,1-.9,1.6Z"/>
  <path class="st9" d="M19.8,66.7c-3.6-.2-8.7,6.8-3.4,8.7-4.8-.1-6,6.7-1.6,8.5-7.7-1.5-6.8,8.5-3.2,12.1-2.5-.4-5,2-4.6,4.5.4,2.6,1.4,6.2,7.8,8.1,6.4,1.9,10.3-1.7,13.5-5.1,2,4.2,12.1-1.5,11-6.4,3.8,1.3,7.2-3,7.3-6.4,0-3.4-2.3-5.9-4.5-8.1,1.6-1.4,1.9-4.1,1.5-6.2-.7-3.4-4.9-3.7-4.9-6.4s.2-3.9-.6-5.2c-1.3-2.1-3.5-4.1-6.3-3.1-11.8-5.6-11.8,5-11.8,5Z"/>
  <path class="st17" d="M26.7,176c-3.2-.6-3.8-.4-7-1.2l-4.5,6.8,17.4,2.5,8.5-.2-16.7-4.5,2.3-3.4Z"/>
  <path class="st17" d="M80.4,178.6l-1.7-2.2c-1.5,1-3.1,1.8-4.9,2.4l4.6,5.1h16.9l-14.9-5.3Z"/>
  <path class="st17" d="M19.1,175.6c3.2.8,2.9,1.7,6.2,2.2l23.8-29.3-4.1-11.6-16.7-19.2,5.9,27.6-15.2,30.3Z"/>
  <path class="st13" d="M32,88.2c0,0-.2,0-.3,0-1.9.5-3.9-.6-4.4-2.5-.5-2-.6-4.5-.6-4.8,0-2,1.6-3.6,3.6-3.6,2,0,3.6,1.6,3.6,3.6,0,.7,0,2.1.3,3,.5,1.8-.5,3.7-2.3,4.3Z"/>
  <path class="st10" d="M34.4,84.6c0-.3,0-.5-.1-.8-.2-.8-.3-2.2-.3-3,0-2-1.6-3.6-3.6-3.6-2,0-3.6,1.6-3.6,3.6,0,0,0,.2,0,.3,1.8,2,4.7,2.9,7.6,3.4Z"/>
  <path class="st14" d="M38,73.8c1.2,3.6-.8,7.4-4.4,8.6h0c-3.6,1.2-7.4-.8-8.6-4.4l-1.5-4.5c-1.2-3.6.8-7.4,4.4-8.6h0c3.6-1.2,7.4.8,8.6,4.4l1.5,4.5Z"/>
  <path class="st4" d="M78.1,70.2c-.1-.1-.3-.2-.5-.2.2-.2.3-.4.5-.6.4-.5.4-1.2,0-1.6,0,0-.1,0-.2-.1.3-.5.3-1.1-.2-1.5-.3-.3-.8-.4-1.2-.2.5-.5.8-.9.9-.9.4-.5.4-1.2-.1-1.6-.5-.4-1.2-.4-1.6.1,0,0-2.5,2.8-5,4.2-1.1-1.7-2.6-2.2-2.6-2.3-.6-.2-1.2,0-1.4.6-.2.6,0,1.2.6,1.5,0,0,.9.4,1.6,1.4,0,.3-.2.6-.3,1-16.6,22.4-38.5,14.5-39.5,14.1-2-.8-4.2.2-4.9,2.2-.8,2,.2,4.2,2.2,5,.3.1,5.6,2.1,13.3,2.1s3.2,0,4.9-.3c8.3-1,20.5-5.7,30.3-18.3.2,0,.4-.2.7-.4.2-.1.4-.3.6-.4h0c.6-.5,1.3-1.2,2.1-2.2.4-.5.3-1.2-.1-1.6Z"/>
  <path class="st9" d="M23.4,77.2c2.4-1.5,3.2-4.3,2.9-7.1,2.1,1.4,3.7.5,5-1.9,3.9,5.5,9.9-2.7,1.8-5.6-6.5-2.4-12.9,4.1-11.3,10.6l1.6,4.1Z"/>
  <path class="st8" d="M223.3,77.7c-1-.9-2.4-1.4-3.8-1.4s-3.1.7-4.2,1.9c-.3.3-7.2,8-17,22-.6.9-1.4,1.8-2.1,2.8l-1,1.2,1.1,1.1c1.2,1.2,2.4,2.4,3.6,3.6.6.6,1.3,1.3,1.9,1.9l1.4,1.4,1.3-1.5c1.1-1.3,2.2-2.7,3.1-4,9.4-13.3,16.1-20.9,16.2-20.9,2.1-2.3,1.9-5.9-.4-7.9Z"/>
  <rect class="st1" x="197.7" y="99.6" width="5.7" height="13.3" transform="translate(-12.6 184.5) rotate(-48.1)"/>
  <path class="st17" d="M74.5,179.8c2-2.7,2.4-.7,4.2-3.5l-15.7-35.3-10,7.5,21.5,31.3Z"/>
  <path class="st16" d="M49,110c-6.5-1.7-15.4.5-21.7,2.9,0,0,4.4,27.8,7,32.4,0-1.4-2.4,4.8-2.4,4.8,1.8-.6,36.8,1.9,38.3.9l-21.1-41Z"/>
  <path class="st2" d="M26.4,118.9c6.3-2.4,18.9-6.4,25.4-4.7,0,0-8.6-20.2-12.5-24.6-2.6-3-17-11.5-17-.4s4.1,29.8,4.1,29.8Z"/>
  <path class="st8" d="M47.6,84.2l-.9.2c-2.3.5-4.6.7-7,.7-5.8,0-9.8-1.5-10.3-1.6-.5-.2-1.1-.3-1.6-.3-1.9,0-3.5,1.1-4.2,2.9-.4,1.1-.5,2.4,0,3.4,2.2,3.9,8.2,5.5,16.1,5.5s3.3,0,5-.3c1-.1,2-.3,3.1-.5l.7-.2s-.9-2.8-1.1-5.7c0-1.1.3-4.1.3-4.1Z"/>
  <path class="st10" d="M266,119.2c-.9,0-1.7-.1-2.6-.4-1.7-.6-3.9-2-5-5.5-.6-2,.6-4.2,2.6-4.8,2-.6,4.2.6,4.8,2.6,0,.2.1.4.2.5.4,0,1.9-.1,5.6-2.3,3.3-1.9,7.2-4.8,11-7.6,6.4-4.7,12.4-9.2,17.4-10.7,2-.6,4.2.5,4.8,2.5.6,2-.5,4.2-2.5,4.8-3.8,1.2-9.5,5.5-15.1,9.6-8.2,6-15.4,11.4-21.1,11.4Z"/>
  <path class="st4" d="M273.1,116.3c-.5-2.3-1-4.7-2.4-6.6-3.1,1.7-4.4,1.8-4.8,1.8,0,0-.1-.2-.2-.5-.6-2-2.7-3.2-4.8-2.6-2,.6-3.2,2.7-2.6,4.8,1.1,3.6,3.3,5,5,5.5.8.3,1.7.4,2.6.4,2.2,0,4.7-.8,7.3-2.1,0-.2-.1-.5-.1-.7Z"/>
  <path class="st9" d="M304.7,93.4c-.6-2-2.8-3.1-4.8-2.5-5,1.6-6.6.5-12.4,7-3.8,2.8-12.6,9.4-15.9,11.4-.1,0-.3.2-.4.2,1.4,1.9,3,6.8,3,7.1,4.1-2.1,18.6-7,28.7-17,1.5-1.5,2.5-4.1,1.9-6.1Z"/>
</svg>