<?xml version="1.0" encoding="UTF-8"?>
<svg id="Layer_1_copy" xmlns="http://www.w3.org/2000/svg" xmlns:xlink="http://www.w3.org/1999/xlink" version="1.1" viewBox="0 0 2781.5 2605.3">
  <!-- Generator: Adobe Illustrator 30.1.0, SVG Export Plug-In . SVG Version: 2.1.1 Build 136)  -->
  <defs>
    <style>
      .st0 {
        fill: #306fb6;
      }

      .st1 {
        fill: #6b778c;
      }

      .st2 {
        fill: #fbba00;
      }

      .st3 {
        fill: #7b8fc8;
      }

      .st4 {
        fill: #1c3d77;
      }

      .st5 {
        fill: #f2d0cf;
      }

      .st6 {
        fill: url(#Sfumatura_senza_nome_14);
      }

      .st7 {
        fill: url(#Sfumatura_senza_nome_31);
      }

      .st8 {
        fill: url(#Sfumatura_senza_nome_39);
      }

      .st9 {
        fill: url(#Sfumatura_senza_nome_36);
      }

      .st10 {
        fill: url(#Sfumatura_senza_nome_35);
      }

      .st11 {
        fill: url(#Sfumatura_senza_nome_38);
      }

      .st12 {
        fill: url(#Sfumatura_senza_nome_37);
      }

      .st13 {
        fill: url(#Sfumatura_senza_nome_33);
      }

      .st14 {
        fill: url(#Sfumatura_senza_nome_34);
      }

      .st15 {
        fill: url(#Sfumatura_senza_nome_32);
      }

      .st16 {
        fill: url(#Sfumatura_senza_nome_51);
      }

      .st17 {
        fill: url(#Sfumatura_senza_nome_65);
      }

      .st18 {
        fill: url(#Sfumatura_senza_nome_1371);
      }

      .st19 {
        fill: url(#Sfumatura_senza_nome_1372);
      }

      .st20 {
        fill: url(#Sfumatura_senza_nome_1373);
      }

      .st21, .st22 {
        fill: #fff;
      }

      .st23 {
        fill: #eeeded;
      }

      .st24 {
        fill: #dddc00;
      }

      .st25 {
        fill: #263689;
      }

      .st26 {
        fill: #8fafdc;
      }

      .st27 {
        fill: #f7a700;
      }

      .st28 {
        fill: #efd9e9;
      }

      .st29 {
        fill: #bbceec;
      }

      .st30 {
        fill: #c3810f;
      }

      .st31 {
        fill: url(#Sfumatura_senza_nome_3);
      }

      .st32 {
        display: none;
      }

      .st33 {
        fill: #4b7bbd;
      }

      .st34 {
        fill: #e5f2f9;
      }

      .st35 {
        fill: url(#Sfumatura_senza_nome_149);
      }

      .st36 {
        fill: url(#Sfumatura_senza_nome_146);
      }

      .st37 {
        fill: url(#Sfumatura_senza_nome_148);
      }

      .st38 {
        fill: url(#Sfumatura_senza_nome_147);
      }

      .st39 {
        fill: url(#Sfumatura_senza_nome_145);
      }

      .st40 {
        fill: url(#Sfumatura_senza_nome_142);
      }

      .st41 {
        fill: url(#Sfumatura_senza_nome_143);
      }

      .st42 {
        fill: url(#Sfumatura_senza_nome_141);
      }

      .st43 {
        fill: url(#Sfumatura_senza_nome_144);
      }

      .st44 {
        fill: url(#Sfumatura_senza_nome_137);
      }

      .st45 {
        fill: url(#Sfumatura_senza_nome_320);
      }

      .st46 {
        fill: url(#Sfumatura_senza_nome_310);
      }

      .st47 {
        fill: url(#Sfumatura_senza_nome_319);
      }

      .st48 {
        fill: url(#Sfumatura_senza_nome_316);
      }

      .st49 {
        fill: url(#Sfumatura_senza_nome_317);
      }

      .st50 {
        fill: url(#Sfumatura_senza_nome_311);
      }

      .st51 {
        fill: url(#Sfumatura_senza_nome_318);
      }

      .st52 {
        fill: url(#Sfumatura_senza_nome_314);
      }

      .st53 {
        fill: url(#Sfumatura_senza_nome_315);
      }

      .st54 {
        fill: url(#Sfumatura_senza_nome_312);
      }

      .st55 {
        fill: url(#Sfumatura_senza_nome_313);
      }

      .st56 {
        fill: url(#Sfumatura_senza_nome_511);
      }

      .st57 {
        fill: url(#Sfumatura_senza_nome_514);
      }

      .st58 {
        fill: url(#Sfumatura_senza_nome_512);
      }

      .st59 {
        fill: url(#Sfumatura_senza_nome_513);
      }

      .st60 {
        fill: url(#Sfumatura_senza_nome_652);
      }

      .st61 {
        fill: url(#Sfumatura_senza_nome_651);
      }

      .st22 {
        isolation: isolate;
        opacity: .7;
      }

      .st62 {
        fill: #f9d06d;
      }
    </style>
    <linearGradient id="Sfumatura_senza_nome_137" data-name="Sfumatura senza nome 137" x1="2176.4" y1="1760.1" x2="2458.7" y2="1760.1" gradientTransform="translate(0 3121.3) scale(1 -1)" gradientUnits="userSpaceOnUse">
      <stop offset="0" stop-color="#4856a2"/>
      <stop offset="1" stop-color="#404f9d"/>
    </linearGradient>
    <linearGradient id="Sfumatura_senza_nome_65" data-name="Sfumatura senza nome 65" x1="2050.8" y1="2394.2" x2="2192.1" y2="2394.2" gradientTransform="translate(0 3121.3) scale(1 -1)" gradientUnits="userSpaceOnUse">
      <stop offset="0" stop-color="#d8e0f3"/>
      <stop offset="1" stop-color="#e8effa"/>
    </linearGradient>
    <linearGradient id="Sfumatura_senza_nome_3" data-name="Sfumatura senza nome 3" x1="491.6" y1="2892.8" x2="1186.8" y2="2892.8" gradientTransform="translate(0 3121.3) scale(1 -1)" gradientUnits="userSpaceOnUse">
      <stop offset="0" stop-color="#f6b3b9"/>
      <stop offset="1" stop-color="#f1888c"/>
    </linearGradient>
    <linearGradient id="Sfumatura_senza_nome_31" data-name="Sfumatura senza nome 3" x1="485.2" y1="2642.7" x2="494.5" y2="2642.7" xlink:href="#Sfumatura_senza_nome_3"/>
    <linearGradient id="Sfumatura_senza_nome_32" data-name="Sfumatura senza nome 3" x1="1215" y1="2976.3" x2="1234.8" y2="2976.3" xlink:href="#Sfumatura_senza_nome_3"/>
    <linearGradient id="Sfumatura_senza_nome_33" data-name="Sfumatura senza nome 3" x1="1346.5" y1="2664.7" x2="1355" y2="2664.7" xlink:href="#Sfumatura_senza_nome_3"/>
    <linearGradient id="Sfumatura_senza_nome_34" data-name="Sfumatura senza nome 3" x1="642" y1="2421.9" x2="1349.4" y2="2421.9" xlink:href="#Sfumatura_senza_nome_3"/>
    <linearGradient id="Sfumatura_senza_nome_35" data-name="Sfumatura senza nome 3" x1="1339.2" y1="2560.9" x2="1357.7" y2="2560.9" xlink:href="#Sfumatura_senza_nome_3"/>
    <linearGradient id="Sfumatura_senza_nome_36" data-name="Sfumatura senza nome 3" x1="1570.2" y1="2269.5" x2="1583.1" y2="2269.5" xlink:href="#Sfumatura_senza_nome_3"/>
    <linearGradient id="Sfumatura_senza_nome_37" data-name="Sfumatura senza nome 3" x1="1437.5" y1="2176.4" x2="1456.4" y2="2176.4" xlink:href="#Sfumatura_senza_nome_3"/>
    <linearGradient id="Sfumatura_senza_nome_38" data-name="Sfumatura senza nome 3" x1="1204" y1="2304" x2="1401.4" y2="2304" xlink:href="#Sfumatura_senza_nome_3"/>
    <linearGradient id="Sfumatura_senza_nome_39" data-name="Sfumatura senza nome 3" x1="1389.2" y1="2441.7" x2="1602.3" y2="2441.7" xlink:href="#Sfumatura_senza_nome_3"/>
    <linearGradient id="Sfumatura_senza_nome_310" data-name="Sfumatura senza nome 3" x1="3478.2" y1="1494.8" x2="3601.2" y2="1168.9" gradientTransform="translate(-1327.1 3121.3) scale(1 -1)" xlink:href="#Sfumatura_senza_nome_3"/>
    <linearGradient id="Sfumatura_senza_nome_14" data-name="Sfumatura senza nome 14" x1="6000.8" y1="674.8" x2="6145.6" y2="674.8" gradientTransform="translate(8415.8 3121.3) rotate(-180)" gradientUnits="userSpaceOnUse">
      <stop offset="0" stop-color="#242454"/>
      <stop offset="1" stop-color="#2c2e7d"/>
    </linearGradient>
    <linearGradient id="Sfumatura_senza_nome_51" data-name="Sfumatura senza nome 51" x1="-3889.3" y1="968.3" x2="-3889.3" y2="668.6" gradientTransform="translate(-1546.8 3121.3) rotate(-180)" gradientUnits="userSpaceOnUse">
      <stop offset="0" stop-color="#4754a1"/>
      <stop offset="1" stop-color="#414d9c"/>
    </linearGradient>
    <linearGradient id="Sfumatura_senza_nome_141" data-name="Sfumatura senza nome 14" x1="5746.5" y1="674.4" x2="5814.3" y2="674.4" xlink:href="#Sfumatura_senza_nome_14"/>
    <linearGradient id="Sfumatura_senza_nome_511" data-name="Sfumatura senza nome 51" x1="-4207.1" y1="897.7" x2="-4176.6" y2="577.6" xlink:href="#Sfumatura_senza_nome_51"/>
    <linearGradient id="Sfumatura_senza_nome_311" data-name="Sfumatura senza nome 3" x1="5775.2" y1="721.2" x2="5819.1" y2="721.2" gradientTransform="translate(8415.8 3121.3) rotate(-180)" xlink:href="#Sfumatura_senza_nome_3"/>
    <linearGradient id="Sfumatura_senza_nome_312" data-name="Sfumatura senza nome 3" x1="6008.2" y1="724.1" x2="6044.9" y2="724.1" gradientTransform="translate(8415.8 3121.3) rotate(-180)" xlink:href="#Sfumatura_senza_nome_3"/>
    <linearGradient id="Sfumatura_senza_nome_512" data-name="Sfumatura senza nome 51" x1="2399.1" y1="1179.1" x2="2447.9" y2="1451.8" gradientTransform="translate(0 3121.3) scale(1 -1)" xlink:href="#Sfumatura_senza_nome_51"/>
    <linearGradient id="Sfumatura_senza_nome_313" data-name="Sfumatura senza nome 3" x1="6117.7" y1="1635.7" x2="6135.7" y2="1747.1" gradientTransform="translate(8415.8 3121.3) rotate(-180)" xlink:href="#Sfumatura_senza_nome_3"/>
    <linearGradient id="Sfumatura_senza_nome_142" data-name="Sfumatura senza nome 14" x1="1744.4" y1="1936.8" x2="1304.9" y2="1264.7" gradientTransform="translate(17.5 2267.1) rotate(15.6) scale(1 -1)" xlink:href="#Sfumatura_senza_nome_14"/>
    <linearGradient id="Sfumatura_senza_nome_1371" data-name="Sfumatura senza nome 137" x1="1602.8" y1="1008.9" x2="2032.1" y2="1008.9" gradientTransform="translate(730 -762.7) rotate(29.4)" xlink:href="#Sfumatura_senza_nome_137"/>
    <linearGradient id="Sfumatura_senza_nome_143" data-name="Sfumatura senza nome 14" x1="2176.9" y1="1634.1" x2="2597.5" y2="2214.5" gradientTransform="translate(0 3121.3) scale(1 -1)" xlink:href="#Sfumatura_senza_nome_14"/>
    <linearGradient id="Sfumatura_senza_nome_314" data-name="Sfumatura senza nome 3" x1="415.8" y1="2625.6" x2="548.3" y2="2274.4" gradientTransform="translate(113.8 3292.7) rotate(41.2) scale(1 -1)" xlink:href="#Sfumatura_senza_nome_3"/>
    <linearGradient id="Sfumatura_senza_nome_315" data-name="Sfumatura senza nome 3" x1="2471.6" y1="1575.2" x2="2205.2" y2="1278.6" xlink:href="#Sfumatura_senza_nome_3"/>
    <linearGradient id="Sfumatura_senza_nome_316" data-name="Sfumatura senza nome 3" x1="2490.8" y1="1558" x2="2224.4" y2="1261.3" xlink:href="#Sfumatura_senza_nome_3"/>
    <linearGradient id="Sfumatura_senza_nome_317" data-name="Sfumatura senza nome 3" x1="-5399.3" y1="5732.2" x2="-5434.3" y2="5847.9" gradientTransform="translate(-5623.1 2020.7) rotate(-138.2)" xlink:href="#Sfumatura_senza_nome_3"/>
    <linearGradient id="Sfumatura_senza_nome_144" data-name="Sfumatura senza nome 14" x1="-5430.9" y1="5933.7" x2="-5401.6" y2="5766.4" gradientTransform="translate(-5623.1 2020.7) rotate(-138.2)" xlink:href="#Sfumatura_senza_nome_14"/>
    <linearGradient id="Sfumatura_senza_nome_318" data-name="Sfumatura senza nome 3" x1="-5435.1" y1="5732.8" x2="-5466.6" y2="5836.8" gradientTransform="translate(-5623.1 2020.7) rotate(-138.2)" xlink:href="#Sfumatura_senza_nome_3"/>
    <linearGradient id="Sfumatura_senza_nome_1372" data-name="Sfumatura senza nome 137" x1="2014.7" y1="2037.4" x2="2263.5" y2="2037.4" gradientTransform="matrix(1,0,0,1,0,0)" xlink:href="#Sfumatura_senza_nome_137"/>
    <linearGradient id="Sfumatura_senza_nome_1373" data-name="Sfumatura senza nome 137" x1="2002.8" y1="1980.9" x2="2271.6" y2="1980.9" gradientTransform="matrix(1,0,0,1,0,0)" xlink:href="#Sfumatura_senza_nome_137"/>
    <linearGradient id="Sfumatura_senza_nome_145" data-name="Sfumatura senza nome 14" x1="2143.3" y1="1186" x2="2122.1" y2="1086.1" gradientTransform="translate(0 3121.3) scale(1 -1)" xlink:href="#Sfumatura_senza_nome_14"/>
    <linearGradient id="Sfumatura_senza_nome_319" data-name="Sfumatura senza nome 3" x1="581.3" y1="2383.3" x2="600.5" y2="2383.3" xlink:href="#Sfumatura_senza_nome_3"/>
    <linearGradient id="Sfumatura_senza_nome_320" data-name="Sfumatura senza nome 3" x1="1223" y1="2481.1" x2="1236.4" y2="2481.1" xlink:href="#Sfumatura_senza_nome_3"/>
    <linearGradient id="Sfumatura_senza_nome_146" data-name="Sfumatura senza nome 14" x1="10431" y1="1509.2" x2="10578.5" y2="1509.2" gradientTransform="translate(-9962.6 3121.3) scale(1 -1)" xlink:href="#Sfumatura_senza_nome_14"/>
    <linearGradient id="Sfumatura_senza_nome_513" data-name="Sfumatura senza nome 51" x1="542.2" y1="1808.2" x2="542.2" y2="1502.9" gradientTransform="translate(0 3121.3) scale(1 -1)" xlink:href="#Sfumatura_senza_nome_51"/>
    <linearGradient id="Sfumatura_senza_nome_147" data-name="Sfumatura senza nome 14" x1="10171.9" y1="1508.9" x2="10240.9" y2="1508.9" gradientTransform="translate(-9962.6 3121.3) scale(1 -1)" xlink:href="#Sfumatura_senza_nome_14"/>
    <linearGradient id="Sfumatura_senza_nome_514" data-name="Sfumatura senza nome 51" x1="218.5" y1="1736.3" x2="249.5" y2="1410.3" gradientTransform="translate(0 3121.3) scale(1 -1)" xlink:href="#Sfumatura_senza_nome_51"/>
    <linearGradient id="Sfumatura_senza_nome_148" data-name="Sfumatura senza nome 14" x1="10531.4" y1="2133.7" x2="10378.5" y2="1936" gradientTransform="translate(-9962.6 3121.3) scale(1 -1)" xlink:href="#Sfumatura_senza_nome_14"/>
    <linearGradient id="Sfumatura_senza_nome_149" data-name="Sfumatura senza nome 14" x1="10525.8" y1="2744.1" x2="10633.6" y2="2605.3" gradientTransform="translate(-9962.6 3121.3) scale(1 -1)" xlink:href="#Sfumatura_senza_nome_14"/>
    <linearGradient id="Sfumatura_senza_nome_651" data-name="Sfumatura senza nome 65" x1="40.2" y1="2149.8" x2="1011.8" y2="2149.8" xlink:href="#Sfumatura_senza_nome_65"/>
    <linearGradient id="Sfumatura_senza_nome_652" data-name="Sfumatura senza nome 65" x1="940.7" y1="2316.2" x2="1344.7" y2="2316.2" xlink:href="#Sfumatura_senza_nome_65"/>
  </defs>
  <g class="st32">
    <path class="st21" d="M2026.2,1869.3l18.8,16.6c5.2,4.3,12.2,9.7,17.7,14l-.2.5c-6.7-1.3-15.3-3.2-22.2-4.4l-24.9-3.9,10.8-22.7ZM1996.3,1887.3l-30.2-4.6-11.9,25,118,16.7,14.4-30.4-87.9-80.2-11.4,24.1,23,19.7-14,29.6ZM2115.8,1820.8l-107.1-38.5-8.7,24.2,107.1,38.5,8.7-24.2ZM2077,1727.5l-2.1,8.5c-3.1,12.4-10,21.3-21.2,18.5-11.6-2.9-13.5-14-10.7-25.3,1.1-4.3,1.8-7.2,2.9-9.5l31.1,7.8ZM2120.4,1738.3c0,2.1-.5,5.3-1.8,10.9-2.8,11.3-8.9,16.6-17.2,14.5-8.2-2.1-11.9-10.3-8.5-23.6l2.1-8.2,25.5,6.4ZM2034.9,1690.6c-2.2,5.4-5.3,14.3-8.4,26.6-5.5,21.9-5.3,36.3-.9,45.9,3.7,8.2,10.4,14.8,20.6,17.3,14.2,3.6,26.3-3.3,32.7-15.1h.3c1.7,13.6,9.2,21.5,18.9,24,10.2,2.5,19-1,25.1-7.6,6.8-6.8,10.6-15.8,14.4-31,3.2-12.6,5.3-26,5.6-32.9l-108.3-27.1ZM2041.4,1653l-2.4,24.9,113.9,4.7,3.2-33.6-36.5-15.5c-12.2-5.1-26.8-10.4-39.7-14.6v-.7c13.6-1.3,28-3.3,41.5-5.7l38.9-7.5,3.3-34.1-112.6-18-2.3,23.7,42.8,6.3c14.1,2,31.5,4.4,46.7,6.3v.3c-15.3,1.4-31.6,3.6-45.2,6l-45,7.9-1.9,20,42.9,18c12.9,5.6,28.6,11.9,42.7,16.9v.3c-16.7-1.6-33-2.6-46.7-3.4l-43.5-2.3ZM2065.6,1489.1c-1.2-17.2,14.8-28.6,36.2-30.1,21.2-1.5,39.1,7.3,40.3,24.9,1.2,17.7-15.6,28.5-36,29.9-22.2,1.5-39.3-7.2-40.5-24.6v-.2ZM2045.1,1489.6c2.3,33.2,26.3,54,63.7,51.4,31.3-2.2,56.1-23,53.7-57.9-2.3-33.4-29.3-53.5-63.3-51.1-32.3,2.3-56.4,23.9-54.1,57.4v.2ZM2029.4,1369.4l13.8,69.6,21.2-4.2-8.8-44.4,90.4-17.9-5-25.2-111.6,22.1ZM2028.9,1301.1c-5.4-16.3,7.2-31.4,27.6-38.1,20.2-6.7,39.7-2.7,45.3,14.2,5.6,16.8-8.1,31.5-27.5,37.9-21.2,7-39.8,2.7-45.3-13.8v-.2ZM2009.2,1306.6c10.5,31.6,38.9,45.8,74.4,34,29.8-9.9,48.7-36.2,37.7-69.4-10.5-31.7-41.6-44.5-74-33.8-30.8,10.2-48.7,37.1-38.1,69v.2ZM2013,1241.4c-4.3-3.7-9.3-10.7-12.8-17.8-10-20.5-3.1-38.9,17.3-48.9,22.7-11.1,40.8-2.3,49.7,15.9,4.1,8.3,5.5,15.8,5.7,21.3l20.7-4.1c0-5.1-2.1-15.3-7.9-27.3-15.1-30.9-46.6-46.4-81.3-29.4-29.1,14.3-42.4,43.3-25.1,78.6,6,12.3,13.2,20.8,17.2,23.9l16.6-12.2ZM1991.3,1103.4l-24.1-34.3,19.3-13.6,25.5,36.3,17.3-12.1-40.3-57.3-93.1,65.4,41.6,59.3,17.3-12.1-26.9-38.3,22.1-15.5,24.1,34.3,17.1-12ZM1909.1,959.9c1.9,1.3,4.9,3.8,8.6,7.9,15.1,16.4,15.3,35.1-2.1,51.1-20,18.4-39.9,15.8-55.6-1.6-2.1-2.2-4.6-5-5.7-6.9l54.8-50.4ZM1823,1004.2c3.6,5.2,9.5,12.8,18.5,22.6,15.1,16.4,31,26.7,46.5,28.8,14.2,1.7,30.6-2.7,46.6-17.4,14.9-13.7,20.1-28.6,18.5-43.2-1.3-13.4-8-26.6-22.7-42.7-8.7-9.4-17.7-17.9-25.3-23.8l-82.1,75.6ZM1773.7,901.4l20.1-15.1c5.3-4.2,12-10,17.3-14.4l.4.3c-2.6,6.3-6.2,14.4-8.8,20.9l-8.9,23.5-20.1-15.2ZM1785.2,934.3l-10.6,28.6,22.1,16.7,40.4-112.1-26.8-20.3-96.4,69.7,21.3,16.1,24-18.5,26.1,19.8ZM1694.5,798.3c2.2.6,5.8,2,10.7,4.7,19.5,10.8,25.6,28.4,14.2,49.1-13.1,23.8-32.8,27.6-53.2,16.2-2.7-1.5-5.9-3.3-7.6-4.8l35.9-65.2ZM1626.9,867.7c5.1,3.8,13.1,9.1,24.8,15.6,19.5,10.8,37.9,15.5,53.2,12.6,13.9-2.9,28.1-12.2,38.7-31.3,9.8-17.7,10-33.5,3.8-46.9-5.6-12.3-16-22.7-35.1-33.2-11.2-6.2-22.4-11.4-31.5-14.5l-53.9,97.8ZM1633.5,747.7l-45,104.5,23.6,10.1,45-104.5-23.6-10.1ZM1507.2,823.7l10.4-32.7c5.6-17.7,10.2-33.1,14-47.8l.6.2c1.1,14.4,3.9,30.5,6.7,44.3l9.9,49.2,25.7,8.2,34.5-108.5-22.5-7.2-10,31.5c-5.2,16.4-9.4,31.2-12.5,46h-.3c-1.1-13.9-3.1-29.4-5.9-42.9l-9.9-46.9-28.6-9.1-34.5,108.5,22.5,7.2ZM1395.5,685.9l-10,62.7c-5.7,35.7,8.3,54.2,36.6,58.7,29.3,4.7,49.5-9,55-43.7l10-63-25.4-4-10.3,64.5c-3.2,20-12,28.2-25.4,26.1-12.8-2-18.8-13.1-15.7-32.6l10.3-64.5-25.3-4ZM1270.9,796.3l70.9-.4v-21.6c-.1,0-45.4.3-45.4.3l-.6-92.2-25.7.2.7,113.8ZM1190.7,755.6l3.7-24.8c.8-6.8,1.5-15.5,2.1-22.4h.5c2.5,6.2,5.7,14.5,8.4,21l10.2,23-24.9,3.3ZM1222,770.9l12.6,27.8,27.4-3.7-50.2-108.1-33.3,4.4-19.4,117.4,26.4-3.5,4-30,32.5-4.3ZM1117.2,819.7l24.9-6.2-22.4-89.4,30.1-7.6-5.3-21-84.8,21.3,5.3,21,29.8-7.5,22.4,89.4ZM1010.1,849.6c7.3,1.1,20.5,0,32.7-4.6,29.3-10.9,37.2-31.2,30.5-49.1-5.6-15-18-21.6-39.4-21.5-15.9,0-22.8-.8-25.4-7.6-2-5.4,1.2-12.2,11.7-16.1,10.3-3.8,19.2-3.7,24-3.2l-1.8-21.3c-7.4-.6-17,.2-29.2,4.8-25,9.3-35.2,28.8-28.4,47,5.8,15.5,21.2,20.9,41.2,20.7,14.5-.4,20.9,1.6,23.4,8.2,2.6,7-1.5,13.7-12.6,17.9-10.3,3.8-21.6,4.3-29.2,3.3l2.5,21.6ZM948.9,865c-15.2,8.1-32.2-1.7-42.3-20.7-10-18.8-9.4-38.6,6.2-47,15.6-8.4,32.4,2.6,42,20.6,10.5,19.6,9.5,38.8-5.9,47h-.1ZM957.7,883.5c29.3-15.7,38.5-46.1,20.8-79.1-14.8-27.7-44-41.8-74.8-25.3-29.5,15.8-36.8,48.6-20.7,78.7,15.3,28.6,44.9,41.7,74.5,25.8h.1ZM892.6,890.4c-3,4.8-8.9,11-15.4,15.6-18.5,13.3-37.8,9.6-51.1-8.8-14.8-20.6-9.1-39.8,7.3-51.7,7.5-5.4,14.6-8,20-9.2l-7.6-19.7c-5,.9-14.8,4.6-25.6,12.4-28,20.1-37.9,53.7-15.3,85.1,18.9,26.3,49.8,34.5,81.7,11.5,11.1-8,18.3-16.5,20.7-20.9l-14.9-14.3ZM782.5,914.9l-30.8,28.3-16-17.4,32.7-30.1-14.3-15.5-51.6,47.4,77,83.8,53.3-49-14.3-15.5-34.4,31.7-18.3-19.9,30.8-28.4-14.2-15.4ZM736.4,1058.6l16.9-19.3-69.3-60.8,20.5-23.4-16.3-14.2-57.7,65.8,16.3,14.2,20.3-23.1,69.3,60.8ZM672.4,1145.7l-28.5-19c-15.5-10.3-29-18.9-42.1-26.7l.4-.6c14.1,2.9,30.4,4.6,44.4,5.9l50,4.1,15-22.5-94.7-63.1-13.1,19.7,27.5,18.4c14.3,9.6,27.4,17.7,40.7,24.7l-.2.3c-13.6-2.8-29-5.2-42.8-6.2l-47.8-3.5-16.7,25,94.7,63.1,13.1-19.7ZM589.7,1148.9l-18.4,37.6-21.2-10.4,19.5-39.9-19-9.3-30.8,62.9,102.2,50,31.8-65.1-19-9.3-20.6,42-24.3-11.9,18.4-37.6-18.8-9.2ZM509.8,1269.8c.2-1.9,1-5.4,2.7-10.1,4.4-12.2,12.7-17,22.6-13.4,10.8,3.9,14.5,14.2,9.8,27-1.3,3.7-2.3,6-3.5,7.9l-31.6-11.4ZM589.9,1325.7l8.6-24-38.5-13.8c1.3-2.1,2.5-4.9,3.6-8,5.1-14.3,5.9-27.8,1.2-38.9-3.5-8.6-11.2-15.2-21.9-19-10.5-3.8-21-2.5-28.7,2.6-8.4,5-15.1,14.7-20.5,29.6-5.3,14.8-8.1,25.6-9.5,33.5l105.7,38ZM520.6,1416.5l-22.6-10.9c-6.2-2.8-14.4-6.1-20.8-8.7v-.5c6.9-.5,15.7-1.1,22.7-1.8l25-2.9-4.3,24.8ZM544.5,1391.1l30.3-3.7,4.7-27.3-118.2,15.6-5.7,33.1,106.3,53.6,4.5-26.3-27.4-12.8,5.6-32.3ZM447.2,1487.6l113.5,7.9,1.8-25.6-113.5-7.9-1.8,25.6ZM554.3,1584.5c3.5-6.4,7-19.3,6.9-32.3-.2-31.2-16.5-45.7-35.6-45.5-16,.1-26.4,9.5-33.8,29.6-5.5,14.9-8.6,21.2-15.9,21.2-5.7,0-11-5.3-11.1-16.5,0-11,3.1-19.3,5.3-23.7l-20.6-5.6c-3.2,6.8-5.6,16.1-5.6,29.1.2,26.7,15,43,34.4,42.8,16.5-.1,26.9-12.7,33.6-31.6,4.6-13.7,8.7-19.1,15.8-19.2,7.4,0,12.4,6.2,12.4,18,0,11-3.4,21.8-6.9,28.6l21.1,5.1ZM492.1,1604.1l5,41.6-23.5,2.8-5.3-44.1-21,2.5,8.4,69.6,113-13.6-8.7-71.9-21,2.5,5.6,46.4-26.8,3.2-5-41.6-20.8,2.5ZM586,1740.5l-16.4-69-21,5,10.5,44-89.7,21.3,5.9,25,110.7-26.3ZM527.6,1776.7l14.8,39.7,18.8-7-6.1-16.5,22.5-8.4c1.5,1.6,3.8,5.8,5.8,11.2,7.4,19.8-.2,38.5-22.4,46.7-23.1,8.6-40.2-2.5-47.7-22.6-4.4-11.7-5.1-19.5-4.6-26.4l-21.3,2.2c-.4,6.1.8,17.7,6,31.5,13,35,42.9,53.2,78.4,40.1,15.7-5.8,27.6-16.4,33.3-29.5,5.7-13.3,5.3-29.2-1.9-48.7-5.3-14.1-14-26.9-19.3-33.4l-56.2,21ZM538.6,1929.8l102.2-50-11.3-23-102.2,50,11.3,23.1Z"/>
  </g>
  <path class="st34" d="M2664.6,2204.1c0,27.1-20.4,49.4-45.4,49.4H165.6c-25,0-45.4-22.2-45.4-49.4l-20.4-1535.5c0-27.2,29.4-80.2,83.2-76.2l2398-67.6c31.3-.9,61.6,12.2,83.8,36.3,22.2,24.1,34.3,57,33.6,91l-33.7,1551.9Z"/>
  <path class="st33" d="M2605.8,2160.2c0,25.7-19.3,46.7-42.9,46.7H210.7c-23.6,0-42.9-21-42.9-46.7l-19.3-1394c2.3-83.9,69.8-114,110.7-112.3,0,0,1874.3-54.8,2298.3-67.1,22-.6,43.3,8.6,58.8,25.5,15.6,16.9,24.1,40.1,23.6,64l-34.2,1483.8Z"/>
  <path class="st34" d="M2774,2252.9H7.5c-4.1,0-7.5-3.4-7.5-7.5v-119.9c0-4.1,3.4-7.5,7.5-7.5h2766.5c4.1,0,7.5,3.4,7.5,7.5v119.9c0,4.1-3.4,7.5-7.5,7.5Z"/>
  <path class="st44" d="M2194.3,2117l-17.9-1141.9c-.2-12.5,11.9-22.8,26.9-22.8h0c24.2,0,43.8-16.4,43.8-36.7v-278.9c0-17.8,17.6-32,38.8-31.4l96.6,2.7c23.8.7,42.8,16.8,43.2,36.7l33,1472.3h-264.4Z"/>
  <g>
    <polygon class="st2" points="1105.5 1550.6 1110.9 1537 1110.4 1529.9 1103.9 1530.4 1103.4 1524.2 1096.9 1518.6 1103 1518.1 1096.4 1511.5 1089.1 1506 1088.6 1499.4 1083 1506.5 1076.2 1507 1076.7 1513.1 1070.6 1513.6 1064.2 1514.1 1058.7 1521.7 1051.8 1522.2 1038.9 1523.2 1033 1529.9 1026.4 1524.2 1026.9 1530.4 1020.9 1537.1 1021.5 1544.1 1022 1550.2 1029.4 1562.9 1029.9 1569.5 1030.9 1582.3 1037 1581.8 1049.8 1580.7 1043.9 1587.8 1038 1594.9 1038.5 1601.5 1039 1608.1 1033.4 1614.7 1026.9 1615.2 1033.9 1621.3 1028.5 1635 1035.4 1641 1035.9 1647.6 1036.4 1653.8 1049.4 1659.4 1055.8 1658.9 1062.3 1658.4 1061.8 1651.8 1061.3 1645.6 1067.7 1638.4 1080.6 1644 1086.7 1643.5 1094 1649.2 1099.6 1642.5 1099 1635.9 1098 1622.8 1097 1609.6 1102.9 1596.4 1102.4 1589.8 1101.9 1583.2 1101.4 1576.6 1100.8 1570 1100.4 1563.8 1106.4 1563.3 1112.4 1556.2 1111.9 1550.1 1105.5 1550.6"/>
    <polygon class="st2" points="1432 1706.9 1420.1 1714.5 1407.2 1715.6 1401.3 1722.7 1393.9 1716.6 1387.9 1717.1 1381.5 1724.2 1375.9 1724.7 1369.5 1725.2 1363 1725.7 1350.7 1733.4 1337.8 1734.4 1324.4 1728.8 1311.4 1723.2 1304.4 1717.2 1291.6 1718.2 1279.2 1725.8 1278.7 1719.2 1272.2 1713.5 1265.8 1720.3 1259.8 1720.7 1260.8 1733.9 1254.4 1741.1 1254.9 1747.6 1262.3 1753.2 1275.7 1759.2 1281.7 1758.8 1289.1 1764.3 1308.4 1769.4 1315.4 1775.4 1322.9 1788.2 1335.8 1787.1 1342.3 1792.8 1355.1 1791.7 1368.5 1796.9 1369 1803.9 1376.5 1816.5 1389 1821.8 1395.4 1815 1408.8 1820.2 1407.8 1807 1420.2 1799.8 1419.2 1786.6 1412.7 1787.1 1418.7 1780.5 1412.2 1781 1411.7 1774 1411.2 1767.8 1417.2 1760.6 1416.7 1754.1 1416.2 1748 1415.6 1740.9 1421.6 1734.3 1427.6 1733.8 1433 1720.1 1432.5 1713.5 1432 1706.9"/>
    <polygon class="st2" points="1332.2 1181.6 1322.5 1175.3 1331.2 1168.9 1333.1 1167 1332.7 1161.2 1330.2 1155.7 1328 1150.5 1329.2 1142.9 1329.2 1142.9 1329.1 1142 1323.5 1142.5 1319.7 1138.9 1316.2 1136.1 1303.7 1137.1 1297.2 1137.6 1291.2 1138.1 1284.7 1138.6 1284.2 1138.1 1283.9 1138.2 1278.9 1134.2 1277.9 1133.4 1277.5 1133 1276.9 1132.6 1270 1126 1269.5 1119.9 1263.5 1114.7 1256.5 1108.6 1244 1109.6 1237.6 1110.1 1231.1 1110.6 1224.7 1111.1 1217.8 1105.1 1211.3 1105.6 1211.8 1112.2 1199.9 1119.8 1193.5 1120.3 1187 1120.8 1187 1119.9 1186.1 1120 1185.6 1113.4 1185.2 1107.7 1179.6 1108.2 1172.2 1108.7 1172.3 1109.6 1180 1109 1173.6 1109.5 1174.1 1115.6 1174.6 1122.7 1175.1 1128.8 1168.6 1129.3 1161.7 1123.7 1156.1 1130.3 1150.2 1137 1155.8 1142.3 1155.8 1142.3 1157.1 1143.5 1150.8 1150.2 1144.3 1144.5 1137.8 1145 1131.4 1145.5 1124.9 1146 1124.9 1144.8 1124 1144.9 1123.5 1138.6 1118 1133.4 1111.5 1133.9 1112 1140.4 1113 1153.2 1106.1 1153.8 1100.7 1161.2 1094.2 1168 1094.7 1174.6 1088.3 1168.5 1081.3 1162.8 1074.7 1156.3 1074.7 1156.2 1073.4 1155 1072.9 1148.9 1072.4 1142.3 1066.8 1137.5 1060.4 1138 1054.4 1145.1 1054.9 1151.6 1049 1165.4 1043.1 1165.9 1030.6 1166.9 1023.2 1160.4 998.4 1169.4 996.6 1167.8 992.7 1168.1 990.9 1168.3 991.5 1174.9 985 1175.4 985.5 1181.6 992.5 1188 992.9 1194.2 999.5 1200.3 993.9 1207.4 988 1214 982.1 1221.6 975.6 1222.1 969.2 1222.6 962.8 1223.1 963.2 1229.2 965.1 1230.9 966.4 1232.1 970.2 1235.3 970.4 1235.3 976.6 1234.8 978 1236 983.5 1240.9 984 1247.1 984.6 1254.1 978.6 1260.7 979.1 1267.3 980.1 1280.5 980.6 1286.7 988 1299.4 989.2 1299.3 994.5 1298.8 1007 1297.8 1008.3 1299 1013.9 1303.9 1008 1311 1008.5 1317.1 1002.9 1324.7 996.9 1330.9 1003.5 1327.2 1003.6 1327.2 1009 1324.2 1014.9 1316.6 1021.3 1316.1 1027.8 1315.6 1040.2 1308.4 1046.1 1301.3 1045.6 1294.7 1051.1 1287.7 1057 1280.6 1069.9 1279.5 1076.4 1279 1090.3 1291.2 1095.8 1284.1 1116.1 1295.7 1115.6 1289.1 1121.5 1282 1128 1281.5 1134.4 1281 1128.5 1288.1 1129 1294.7 1135.9 1300.8 1130 1307.4 1143.5 1319.1 1152.3 1345.3 1160.3 1370.3 1167.3 1376.5 1182.7 1407.9 1189.1 1407.4 1203 1419.5 1210.1 1432.2 1217.3 1437.3 1223.9 1443.9 1244.2 1461.7 1285.5 1497.7 1292.3 1497.2 1299.4 1509.9 1312.3 1508.8 1319.7 1521.1 1325.6 1514 1346.1 1532.2 1353.4 1538.3 1359.9 1543.9 1365.9 1543.4 1379.8 1555.5 1386.7 1555 1393.2 1561.1 1394.2 1573.9 1394.7 1580.8 1395.1 1586.6 1408.6 1592.6 1415 1592.1 1421.1 1591.6 1434.8 1597.1 1441.4 1602.7 1441.9 1609.8 1448.8 1615.4 1456.3 1634.3 1464.7 1653.5 1466.2 1672.8 1459.8 1680 1453.8 1680.5 1447.4 1681 1447.9 1687.6 1448.4 1694.1 1448.8 1700.2 1449.3 1706.4 1443.8 1713.9 1437.8 1720.6 1438.4 1727.6 1445.3 1733.3 1451.3 1732.8 1457.8 1732.3 1463.7 1731.8 1470.2 1725 1476.1 1724.6 1475.6 1717.6 1488.5 1710.3 1488 1703.3 1487 1691 1493 1683.9 1498.5 1676.9 1504.4 1669.8 1510.9 1669.3 1516.8 1668.8 1523.8 1668.2 1523.3 1661.6 1522.8 1655.4 1522.3 1648.9 1521.3 1635.7 1520.8 1629.1 1520.3 1622.5 1512.9 1617 1500.9 1624.1 1493.7 1613.6 1490.2 1596.7 1491.5 1586 1498 1585.4 1497.4 1578.4 1503.4 1572.1 1497 1572.6 1502.9 1565.2 1508.4 1558.5 1515.3 1557.9 1521.3 1557.5 1521.7 1563.7 1535.2 1569.6 1541.6 1569.1 1548 1568.6 1554.5 1568 1560.9 1567.5 1561.4 1573.2 1561.9 1580.3 1568.5 1586.4 1568.9 1592.5 1576.3 1599 1581.9 1598.6 1588.8 1598 1594.7 1590.4 1593.7 1577.8 1592.7 1565 1592.2 1558 1578.4 1552.9 1571.8 1540.2 1564.5 1534.1 1551.5 1528.5 1538.6 1529.6 1531.7 1524 1525.2 1517.9 1504.9 1512.9 1498.4 1506.8 1491.5 1500.7 1485 1501.2 1472.5 1502.2 1465.6 1496.5 1452.2 1491 1445.3 1491.6 1451.7 1484.4 1457.7 1483.9 1464.1 1476.8 1463.1 1463.6 1442.8 1459 1436.9 1459.5 1417.9 1461 1405 1462 1392.1 1456.5 1384.2 1444.3 1377.7 1437.7 1363.8 1425.6 1356 1413.9 1342.9 1401.7 1341.9 1388.5 1347.5 1381.4 1340.5 1369.2 1332.6 1356.5 1332.1 1349.9 1325.5 1343.8 1324.6 1331.5 1317.7 1332.1 1304.8 1326.1 1291.4 1320.5 1284.9 1321.1 1271.6 1315.9 1271 1308.9 1264.5 1303.7 1264 1296.6 1256.6 1284.5 1262.5 1277.3 1262 1270.8 1261.5 1264.2 1267.1 1257.5 1273.4 1250.4 1272.9 1243.8 1266.1 1244.3 1259.5 1238.2 1259 1232.1 1252.6 1232.6 1258.5 1225.1 1264.6 1224.6 1263.6 1211.8 1276.5 1210.8 1282.9 1210.2 1289.3 1209.7 1295.8 1209.2 1301.7 1202.1 1307.7 1201.6 1307.2 1195.5 1314.1 1195 1320.2 1194.5 1320.7 1200.6 1328 1206.6 1327 1193.9 1333.1 1193.5 1334.4 1191.7 1332.9 1191.2 1332.2 1181.6"/>
    <polygon class="st2" points="1394.1 1841.8 1393.9 1850.2 1401.9 1858.8 1418.4 1859.1 1418.6 1850.7 1402.3 1841.9 1394.1 1841.8"/>
    <polygon class="st2" points="1377.6 1841.4 1385.8 1841.6 1386 1833.2 1377.8 1833 1377.6 1841.4"/>
  </g>
  <path class="st1" d="M823.8,2440.9H97.1c-23.2,0-42-18.8-42-42v-701.7c0-23.1,18.7-41.9,41.8-42l732.5-2c23.3,0,42.2,18.9,42.1,42.2l-5.8,703.7c-.1,23.1-18.9,41.7-42,41.7Z"/>
  <path class="st0" d="M788,1704l-649.8,4c-23.5.1-42.4,19.3-42.3,42.8l4.5,590.2c.1,23.1,18.7,41.9,41.8,42.4l631.4,11.5c23.6.4,43-18.4,43.3-42l13.9-605.7c.3-23.8-19-43.3-42.8-43.2Z"/>
  <path class="st4" d="M756.3,1796.7v4.5c0,7-5.7,12.7-12.7,12.7H242.8c-7,0-12.7-5.7-12.7-12.7v-4.5c0-7,5.7-12.7,12.7-12.7h500.7c7,0,12.7,5.7,12.7,12.7Z"/>
  <path class="st4" d="M700.4,1853h0c-.4,6.7-5.8,11.9-12.5,12l-437.9,8c-7.1.1-13-5.6-13-12.7v-1c0-7,5.6-12.6,12.5-12.7l437.9-6.9c7.4-.1,13.3,6.1,12.9,13.4Z"/>
  <path class="st29" d="M554.9,711.3l1637-38.4c26.6-.6,48.7,15.2,48.7,35v18.2c0,19-20.4,34.5-46,35l-1636.3,30.7c-25.6.5-47-14.3-48.3-33.2l-.7-10.6c-1.3-19.5,19.3-36.1,45.6-36.7Z"/>
  <path class="st17" d="M2191.7,716.3c3.5-27.7-15.8-53-43-56.4s-52.1,16.3-55.6,44c-1.8,14.5,2.6,28.3,11.1,38.7l-50.7,39c-3.2,2.6-3.5,7.3-.7,10.3l.5.5c2.5,2.6,6.7,2.8,9.3.3l46-45.3c7.3,6.9,16.8,11.7,27.5,13,27.2,3.4,52.1-16.3,55.6-44ZM2137.7,746.9c-19.9-2.5-34-21-31.5-41.3,2.5-20.3,20.8-34.7,40.7-32.2,19.9,2.5,34,21,31.5,41.3-2.5,20.3-20.8,34.7-40.7,32.2Z"/>
  <path class="st24" d="M1598.5,2037.9"/>
  <path class="st31" d="M1185.5,118.1c-1.4,1.3-3.6,1.4-5.2.2-8.9-6.6-18.2-13-27.6-18.9-1.9-1.2-2.5-3.7-1.3-5.7,1.2-1.9,3.7-2.5,5.7-1.3,9.6,6,19,12.5,28.1,19.2,1.8,1.4,2.2,3.9.8,5.7-.2.2-.3.4-.5.6ZM1109.5,72.9c-1.2,1.1-2.9,1.4-4.5.7-10-4.6-20.4-9-30.8-12.8-2.1-.8-3.2-3.1-2.4-5.3.8-2.1,3.1-3.2,5.3-2.4,10.6,3.9,21.2,8.3,31.4,13.1,2.1,1,3,3.4,2,5.4-.2.5-.6,1-1,1.3ZM1026,44.2c-1,.9-2.3,1.3-3.7,1-10.8-2.5-21.9-4.7-32.8-6.3-2.2-.3-3.8-2.4-3.4-4.7.3-2.2,2.4-3.8,4.7-3.4,11.1,1.7,22.4,3.9,33.4,6.5,2.2.5,3.6,2.7,3.1,4.9-.2.8-.6,1.6-1.2,2.1ZM498.4,430.1c-.8.7-1.9,1.1-3.1,1-2.3-.2-3.9-2.2-3.8-4.4.9-11.2,2.3-22.6,4-33.8.4-2.2,2.5-3.8,4.7-3.4,2.2.4,3.8,2.5,3.4,4.7-1.7,11-3.1,22.1-4,33.2,0,1.1-.6,2-1.3,2.7ZM938.3,32.9c-.8.7-1.8,1.1-2.8,1.1-11.1-.3-22.3-.1-33.4.5-2.3.1-4.2-1.6-4.3-3.9-.1-2.3,1.6-4.2,3.9-4.3,11.3-.6,22.7-.8,34-.5,2.3,0,4.1,1.9,4,4.2,0,1.2-.5,2.2-1.4,2.9ZM514.5,343.2c-1,.9-2.5,1.3-3.9.9-2.2-.6-3.4-2.9-2.8-5.1,3.2-10.9,6.8-21.7,10.8-32.3.8-2.1,3.2-3.2,5.3-2.4,2.1.8,3.2,3.2,2.4,5.3-3.9,10.3-7.5,21-10.6,31.7-.2.8-.6,1.4-1.2,1.9ZM850.2,39.9c-.5.5-1.2.8-2,1-10.9,2-21.8,4.5-32.6,7.3-2.2.6-4.4-.7-5-2.9-.6-2.2.7-4.4,2.9-5,10.9-2.9,22.1-5.4,33.2-7.5,2.2-.4,4.4,1.1,4.8,3.3.3,1.5-.3,2.9-1.3,3.8ZM547.7,261.3c-1.2,1.1-3.1,1.4-4.7.6-2-1.1-2.8-3.5-1.7-5.5,5.3-10,11.1-19.9,17.1-29.4,1.2-1.9,3.8-2.5,5.7-1.3,1.9,1.2,2.5,3.8,1.3,5.7-6,9.3-11.6,19.1-16.8,28.9-.2.4-.5.8-.9,1.1ZM765.5,64.8c-.3.3-.7.6-1.2.8-10.3,4.2-20.5,8.8-30.4,13.8-2,1-4.5.2-5.5-1.8-1-2-.2-4.5,1.8-5.5,10.1-5.1,20.5-9.8,31-14.1,2.1-.9,4.5.1,5.3,2.2.7,1.6.2,3.5-1,4.6ZM687.5,106.4c-.1.1-.3.3-.5.4-9.2,6.2-18.3,12.8-27,19.7-1.8,1.4-4.4,1.1-5.8-.7-1.4-1.8-1-4.3.7-5.8,8.9-7,18.1-13.8,27.5-20.1,1.9-1.3,4.4-.8,5.7,1.1,1.2,1.7.8,4-.7,5.3ZM597,187.9c-1.5,1.3-3.8,1.4-5.4,0-1.7-1.4-2-4-.5-5.8,7.2-8.7,14.9-17.2,22.8-25.3,1.6-1.6,4.2-1.7,5.8,0,1.6,1.6,1.6,4.2,0,5.8-7.7,7.9-15.3,16.3-22.4,24.8-.1.2-.3.3-.4.4Z"/>
  <path class="st62" d="M650.8,645.7c1,2,3.2,3,5.4,2.7l62.2-9.6c19.3,22.2,42.3,41.4,68.4,56.7l2,62.9c0,2.2,1.5,4.1,3.6,4.8l72.1,22.3c2.1.7,4.4-.1,5.7-1.9l37.1-50.8c30.2,2.1,60-.9,88.5-8.3l45.9,43c1.6,1.5,4,1.8,6,.8l66.8-35.3c2-1,3-3.2,2.7-5.4l-9.6-62.2c22.2-19.3,41.4-42.3,56.7-68.4l62.9-2c2.2,0,4.1-1.5,4.8-3.6l22.3-72.1c.7-2.1-.1-4.4-1.9-5.7l-50.8-37.1c2.1-30.2-.9-60-8.3-88.5l43-45.9c1.5-1.6,1.8-4,.8-6l-35.3-66.8c-1-2-3.2-3-5.4-2.7l-62.2,9.6c-19.3-22.2-42.3-41.4-68.4-56.7l-2-62.9c0-2.2-1.5-4.1-3.6-4.8l-72.1-22.3c-2.1-.7-4.4.1-5.7,1.9l-37.1,50.8c-30.2-2.1-60,.9-88.5,8.3l-45.9-43c-1.6-1.5-4-1.8-6-.8l-66.8,35.3c-2,1-3,3.2-2.7,5.4l9.6,62.2c-22.2,19.3-41.4,42.3-56.7,68.4l-62.9,2c-2.2,0-4.1,1.5-4.8,3.6l-22.3,72.1c-.7,2.1.1,4.4,1.9,5.7l50.8,37.1c-2.1,30.2.9,60,8.3,88.5l-43,45.9c-1.5,1.6-1.8,4-.8,6l35.3,66.8Z"/>
  <path class="st26" d="M1266,252.3c-1.1-.6-1.7-1.9-1.4-3.2,1.5-8.2,3.3-16.5,5.4-24.7.4-1.7,2.1-2.7,3.8-2.2,1.7.4,2.7,2.1,2.2,3.8-2.1,8-3.9,16.1-5.3,24.2-.3,1.7-1.9,2.8-3.6,2.5-.4,0-.8-.2-1.1-.4ZM1284.3,189.3c-1.3-.8-1.8-2.4-1.2-3.8,3.2-7.8,6.8-15.5,10.7-22.9.8-1.5,2.7-2.1,4.2-1.3,1.5.8,2.1,2.7,1.3,4.2-3.8,7.3-7.3,14.8-10.4,22.4-.7,1.6-2.5,2.3-4.1,1.7-.2,0-.3-.1-.4-.2ZM1316,131.9c0,0-.1,0-.2-.1-1.4-1-1.7-2.9-.7-4.3,4.8-6.9,10-13.6,15.4-20,1.1-1.3,3.1-1.5,4.4-.4,1.3,1.1,1.5,3.1.4,4.4-5.3,6.3-10.4,12.9-15.1,19.6-1,1.3-2.8,1.7-4.2.9ZM1359.5,82.9c-.2-.2-.5-.3-.7-.6-1.2-1.3-1.1-3.2.2-4.4,6.2-5.6,12.8-11.1,19.4-16.1,1.4-1,3.3-.8,4.4.6,1,1.4.8,3.3-.6,4.4-6.5,5-13,10.3-19,15.8-1,.9-2.6,1-3.7.3ZM1412.6,44.5c-.4-.3-.8-.6-1.1-1.1-.8-1.5-.3-3.4,1.2-4.2,7.3-4.1,14.9-8,22.5-11.5,1.6-.7,3.4,0,4.1,1.5.7,1.6,0,3.4-1.5,4.1-7.5,3.4-14.9,7.2-22,11.3-1,.6-2.2.5-3.2,0ZM1472.8,18.7c-.6-.4-1.1-1-1.4-1.7-.5-1.6.4-3.4,2.1-3.9,8-2.5,16.3-4.6,24.5-6.3,1.7-.4,3.3.7,3.7,2.4.4,1.7-.7,3.3-2.4,3.7-8,1.7-16.1,3.8-24,6.2-.9.3-1.8.1-2.5-.3ZM1537.2,6.6c-.8-.5-1.4-1.4-1.5-2.4-.1-1.7,1.2-3.2,2.9-3.3,8.4-.6,16.9-.9,25.3-.8,1.7,0,3.1,1.4,3.1,3.1,0,1.7-1.4,3.1-3.1,3.1-8.2,0-16.5.2-24.7.8-.7,0-1.3-.1-1.9-.4ZM1602.7,9c-1-.6-1.6-1.8-1.5-3.1.3-1.7,1.8-2.9,3.5-2.6,8.3,1.2,16.6,2.8,24.8,4.7,1.7.4,2.7,2.1,2.3,3.7-.4,1.7-2.1,2.7-3.7,2.3-8-1.9-16.2-3.4-24.3-4.6-.4,0-.8-.2-1.2-.4ZM1666.1,25.6c-1.3-.8-1.8-2.3-1.3-3.8.6-1.6,2.4-2.4,4-1.8,7.9,3,15.7,6.4,23.2,10,1.5.8,2.2,2.6,1.5,4.2-.7,1.5-2.6,2.2-4.2,1.5-7.4-3.6-15-6.9-22.7-9.8-.2,0-.4-.2-.5-.3ZM1744.7,70.3c-.1,0-.2-.1-.3-.2-6.4-5.1-13.2-10-20-14.6-1.4-1-1.8-2.9-.9-4.3,1-1.4,2.9-1.9,4.3-.9,7,4.6,13.9,9.6,20.4,14.9,1.3,1.1,1.6,3,.5,4.4-1,1.2-2.7,1.5-4.1.7Z"/>
  <path class="st23" d="M1750.6,172.8c-.7-1.3-2.2-2.1-3.7-1.9l-43,6.8c-13.4-15.3-29.3-28.6-47.4-39.1l-1.5-43.5c0-1.5-1.1-2.8-2.5-3.3l-49.9-15.3c-1.5-.4-3,0-3.9,1.3l-25.6,35.2c-20.9-1.4-41.5.7-61.1,5.9l-31.8-29.7c-1.1-1-2.8-1.3-4.1-.5l-46.1,24.5c-1.3.7-2.1,2.2-1.9,3.7l6.8,43c-15.3,13.4-28.6,29.3-39.1,47.4l-43.5,1.5c-1.5,0-2.8,1.1-3.3,2.5l-15.3,49.9c-.4,1.5,0,3,1.3,3.9l35.2,25.6c-1.4,20.9.7,41.5,5.9,61.1l-29.7,31.8c-1,1.1-1.3,2.8-.5,4.1l24.5,46.1c.7,1.3,2.2,2.1,3.7,1.9l43-6.8c13.4,15.3,29.3,28.6,47.4,39.1l1.5,43.5c0,1.5,1.1,2.8,2.5,3.3l49.9,15.3c1.5.4,3,0,3.9-1.3l25.6-35.2c20.9,1.4,41.5-.7,61.1-5.9l31.8,29.7c1.1,1,2.8,1.3,4.1.5l46.1-24.5c1.3-.7,2.1-2.2,1.9-3.7l-6.8-43c15.3-13.4,28.6-29.3,39.1-47.4l43.5-1.5c1.5,0,2.8-1.1,3.3-2.5l15.3-49.9c.4-1.5,0-3-1.3-3.9l-35.2-25.6c1.4-20.9-.7-41.5-5.9-61.1l29.7-31.8c1-1.1,1.3-2.8.5-4.1l-24.5-46.1Z"/>
  <path class="st26" d="M1491.3,415.5c-49.6-30.4-74.6-91.6-56.8-149.7,3.3-10.7,7.8-20.7,13.4-29.9,30.4-49.6,91.6-74.6,149.7-56.8,1,.3,2.1.7,3.1,1,7,2.3,13.8,5.2,20.2,8.7.8.4,1.5.8,2.2,1.2l-4.6,8.2c-7.5-4.2-15.5-7.6-23.8-10.1,0,0-.2,0-.2,0-63.9-19.4-131.7,16.7-151.3,80.5-19.6,64,16.5,131.9,80.5,151.5,54,16.5,110.8-6.6,139-52.7,5.2-8.5,9.4-17.8,12.5-27.8,6.4-21,7.1-43.4,1.8-64.6l9.1-2.2c5.7,22.9,5,46.9-1.9,69.6-3.3,10.7-7.8,20.7-13.4,29.9-30.4,49.6-91.6,74.6-149.7,56.8-10.7-3.3-20.7-7.8-29.9-13.4Z"/>
  <path class="st7" d="M493.2,489.7c-.6.6-1.5,1-2.4,1-2.3.2-4.2-1.5-4.4-3.7-.5-5.5-.9-11-1.1-16.5-.1-2.3,1.6-4.2,3.9-4.3,2.3-.1,4.2,1.6,4.3,3.9.3,5.4.6,10.8,1.1,16.2.1,1.3-.4,2.6-1.3,3.4Z"/>
  <path class="st15" d="M1233.4,153.8c-1.6,1.5-4.2,1.4-5.7-.2-3.7-3.9-7.6-7.8-11.5-11.5-1.6-1.6-1.7-4.2,0-5.8,1.6-1.6,4.2-1.7,5.8,0,4,3.8,7.9,7.8,11.7,11.7,1.6,1.6,1.5,4.2-.1,5.8,0,0,0,0,0,0Z"/>
  <path class="st13" d="M1353.4,467.8c-.8.7-1.8,1.1-2.9,1.1-2.3,0-4-2-3.9-4.2.2-5.4.3-10.9.3-16.2,0-2.3,1.8-4.1,4.1-4.1,2.3,0,4.1,1.8,4.1,4.1,0,5.5,0,11-.3,16.6,0,1.2-.6,2.2-1.4,2.9Z"/>
  <path class="st14" d="M1211.6,772.1l-2.8,2.5c-1.7,1.5-4.3,1.3-5.8-.4-1.5-1.7-1.3-4.3.3-5.8,0,0,0,0,0,0l2.7-2.4c7.2-6.5,14.3-13.3,21-20.3,1.6-1.6,4.2-1.7,5.8,0,1.6,1.6,1.7,4.2,0,5.8-6.9,7.1-14.1,14.1-21.4,20.7ZM1166.4,807.7c-.1.1-.3.2-.4.3-9.2,6.3-18.7,12.3-28.3,17.9-2,1.1-4.5.5-5.6-1.5-1.1-2-.5-4.5,1.5-5.6,9.5-5.5,18.8-11.4,27.8-17.5,1.9-1.3,4.4-.8,5.7,1.1,1.2,1.7.9,4-.6,5.4ZM1267.8,710.6c-1.4,1.3-3.6,1.4-5.2.2-1.8-1.4-2.2-3.9-.8-5.7,6.5-8.7,12.8-17.8,18.7-27,1.2-1.9,3.7-2.5,5.7-1.3,1.9,1.2,2.5,3.7,1.3,5.7-5.9,9.4-12.3,18.7-19,27.6-.2.2-.3.4-.5.6ZM1090.1,849.4c-.3.3-.7.6-1.2.7-10.3,4.3-20.8,8.3-31.3,11.8-2.1.7-4.5-.4-5.2-2.6-.7-2.1.4-4.5,2.6-5.2,10.3-3.5,20.7-7.4,30.7-11.6,2.1-.9,4.5,0,5.4,2.2.7,1.7.2,3.5-1,4.6ZM1312.6,636c-1.2,1.1-3,1.4-4.5.7-2-1-2.9-3.4-2-5.5,4.6-9.8,8.9-20,12.8-30.3.8-2.1,3.2-3.2,5.3-2.4,2.1.8,3.2,3.2,2.4,5.3-4,10.4-8.3,20.8-13.1,30.8-.2.5-.6.9-1,1.3ZM1007.1,875.1c-.5.5-1.2.8-1.9,1-10.9,2.2-22,4-33.1,5.3-2.2.3-4.3-1.3-4.6-3.6-.3-2.3,1.3-4.3,3.6-4.6,10.8-1.3,21.7-3.1,32.4-5.2,2.2-.4,4.4,1,4.8,3.2.3,1.5-.2,2.9-1.3,3.9ZM1341.4,554c-1,.9-2.3,1.3-3.7.9-2.2-.5-3.6-2.8-3-5,2.6-10.6,4.8-21.4,6.5-32.2.4-2.2,2.5-3.7,4.7-3.4,2.2.4,3.8,2.5,3.4,4.7-1.8,11-4,22-6.7,32.8-.2.8-.6,1.5-1.2,2.1ZM920.5,883.4c-.7.7-1.7,1.1-2.8,1.1-11.1,0-22.3-.6-33.5-1.5-2.3-.2-3.9-2.2-3.7-4.4.2-2.3,2.2-3.9,4.4-3.8,10.9.9,21.9,1.4,32.8,1.5,2.3,0,4.1,1.9,4.1,4.1,0,1.2-.5,2.3-1.4,3ZM834.1,874.1c-.9.8-2.3,1.3-3.6,1-8.6-1.8-17.2-3.9-25.7-6.2-2.3-.6-4.6-1.3-6.8-1.9-2.2-.6-3.4-2.9-2.8-5.1.6-2.2,2.9-3.4,5.1-2.8,2.2.7,4.5,1.3,6.7,1.9,8.3,2.3,16.8,4.3,25.2,6.1,2.2.5,3.6,2.6,3.2,4.9-.2.9-.6,1.6-1.3,2.2ZM751.2,847.8c-1.2,1-2.9,1.4-4.4.7-10.2-4.4-20.4-9.3-30.2-14.5-2-1.1-2.8-3.5-1.7-5.5,1.1-2,3.5-2.8,5.5-1.7,9.7,5.1,19.6,9.9,29.6,14.2,2.1.9,3,3.3,2.1,5.4-.2.6-.6,1-1,1.4ZM675.3,805.4c-1.4,1.3-3.5,1.4-5.1.3-9.1-6.4-18.1-13.2-26.7-20.3-1.7-1.4-2-4-.6-5.8,1.4-1.7,4-2,5.8-.6,8.4,6.9,17.2,13.6,26.2,19.9,1.9,1.3,2.3,3.9,1,5.7-.2.3-.4.5-.6.7Z"/>
  <path class="st22" d="M1048.6,584.8c-47.7,43-116.2,60.7-182,40.4-12.8-4-25.2-9.3-36.9-15.8l6-10.7c10.9,6.1,22.4,11.1,34.5,14.8,72.9,22.5,149.5-4.8,192.8-62.6,0-.1.2-.2.2-.3,0-.1.2-.2.2-.3,11.6-15.6,20.8-33.4,26.8-53,13.9-44.9,9.4-92.6-12.5-134.2-7-13.2-15.4-25.2-25.1-36-21-23.2-47.9-40.5-78.6-50-92.8-28.6-191.5,23.5-220.2,116.3-9.4,30.5-10.4,62.9-2.8,93.7l-12,2.9c-8.1-33-7-67.7,3-100.3,30.7-99.2,136.3-155,235.6-124.4,32.8,10.1,61.6,28.6,84.1,53.5,10.4,11.5,19.5,24.4,26.9,38.5,23.5,44.5,28.3,95.5,13.4,143.5-10.3,33.5-29.3,62.1-53.6,84Z"/>
  <path class="st10" d="M1340.6,564.9c-.6-.4-1-.9-1.2-1.6-.6-1.7.3-3.5,2-4,4.1-1.4,8.2-2.6,12.4-3.7,1.7-.5,3.4.6,3.9,2.3.5,1.7-.6,3.4-2.3,3.9-4,1.1-8.1,2.3-12,3.6-1,.3-2,.2-2.8-.4Z"/>
  <path class="st9" d="M1571.6,859.9c-1.4-1-1.8-2.9-.9-4.3,2.2-3.5,4.4-7.1,6.4-10.8.8-1.5,2.8-2.1,4.3-1.3,1.6.8,2.1,2.8,1.3,4.3-2.1,3.8-4.3,7.5-6.6,11.1-.9,1.5-2.9,1.9-4.4,1,0,0,0,0,0,0Z"/>
  <path class="st12" d="M1438.9,948.8c-.7-.5-1.2-1.2-1.3-2.1-.3-1.7.8-3.4,2.6-3.7,4.1-.7,8.2-1.6,12.3-2.6,1.7-.4,3.4.6,3.9,2.3.4,1.7-.6,3.4-2.3,3.9-4.2,1-8.4,1.9-12.7,2.7-.9.1-1.7,0-2.3-.5Z"/>
  <path class="st11" d="M1305.8,925.9c-1.4-.9-1.8-2.8-1-4.2.9-1.5,2.8-2.1,4.3-1.2,7.5,4.3,15.3,8,23.2,11.3,1.6.7,2.4,2.5,1.8,4.2-.7,1.6-2.5,2.4-4.2,1.8-8.2-3.3-16.3-7.2-24-11.6,0,0-.1,0-.2-.1ZM1271.3,900.9c-.1,0-.2-.2-.3-.3-6.6-5.9-12.8-12.3-18.6-19.1-1.1-1.3-1-3.3.4-4.5,1.3-1.1,3.4-1,4.5.4,5.6,6.5,11.6,12.7,18,18.5,1.3,1.2,1.4,3.2.2,4.5-1.1,1.2-2.9,1.4-4.2.5ZM1370.3,949c-1-.7-1.6-1.9-1.3-3.2.3-1.7,1.9-2.9,3.7-2.6,8.4,1.4,17.1,2.3,25.7,2.7,1.8,0,3.1,1.5,3.1,3.3,0,1.8-1.5,3.1-3.3,3.1-8.9-.3-17.8-1.3-26.5-2.8-.5,0-.9-.3-1.3-.5ZM1228.9,847c-.4-.3-.8-.7-1-1.1-4.2-7.8-7.9-16-11-24.3-.6-1.6.2-3.5,1.9-4.1,1.6-.6,3.5.2,4.1,1.9,3,8,6.6,15.9,10.7,23.5.8,1.6.2,3.5-1.3,4.3-1.1.6-2.4.5-3.3-.2ZM1207.4,781.9c-.7-.5-1.2-1.3-1.4-2.2-1.3-8.7-2-17.7-2.1-26.6,0-1.8,1.4-3.2,3.1-3.2,1.8,0,3.2,1.4,3.2,3.1.1,8.6.8,17.3,2,25.7.3,1.7-1,3.4-2.7,3.6-.8.1-1.6,0-2.3-.5ZM1209.4,713.4c-1-.7-1.6-2-1.3-3.3,1.8-8.7,4.1-17.3,7-25.7.6-1.7,2.4-2.5,4.1-2,1.7.6,2.5,2.4,2,4.1-2.8,8.1-5.1,16.5-6.8,24.9-.4,1.7-2,2.8-3.8,2.5-.4,0-.8-.3-1.2-.5Z"/>
  <path class="st4" d="M1293.1,647.7c-.8.7-1,1.8-.6,2.7l11.1,26.8c-7.8,11.1-14,23.4-18,36.8l-27.9,7.8c-1,.3-1.7,1.1-1.7,2.2l-2.1,34.7c0,1,.5,2,1.5,2.3l26.8,11.1c2.3,13.7,6.9,26.8,13.3,38.7l-14.3,25.3c-.5.9-.4,2,.3,2.8l23.1,26.1c.7.8,1.8,1,2.7.6l26.8-11.1c11.1,7.8,23.4,14,36.8,18l7.8,27.9c.3,1,1.1,1.7,2.2,1.7l34.7,2.1c1,0,2-.5,2.3-1.5l11.1-26.8c13.7-2.3,26.8-6.9,38.7-13.3l25.3,14.3c.9.5,2,.4,2.8-.3l26.1-23.1c.8-.7,1-1.8.6-2.7l-11.1-26.8c7.8-11.1,14-23.4,18-36.8l27.9-7.8c1-.3,1.7-1.1,1.7-2.2l2.1-34.7c0-1-.5-2-1.5-2.3l-26.8-11.1c-2.3-13.7-6.9-26.8-13.3-38.7l14.3-25.3c.5-.9.4-2-.3-2.8l-23.1-26.1c-.7-.8-1.8-1-2.7-.6l-26.8,11.1c-11.1-7.8-23.4-14-36.8-18l-7.8-27.9c-.3-1-1.1-1.7-2.2-1.7l-34.7-2.1c-1,0-2,.5-2.3,1.5l-11.1,26.8c-13.7,2.3-26.8,6.9-38.7,13.3l-25.3-14.3c-.9-.5-2-.4-2.8.3l-26.1,23.1Z"/>
  <path class="st22" d="M1387.3,780.1s0,0,0,0c-7.9-5.4-13.2-13.5-14.9-22.9-1.8-9.4.2-18.9,5.6-26.7,5.4-7.9,13.5-13.2,22.9-14.9,19.3-3.6,38,9.1,41.7,28.5,1.8,9.4-.2,18.9-5.6,26.7-5.4,7.9-13.5,13.2-22.9,14.9-9.4,1.8-18.8-.2-26.7-5.6ZM1422.1,729c-5.5-3.8-12.5-5.4-19.5-4.1-6.9,1.3-12.8,5.2-16.7,10.9-3.9,5.8-5.4,12.7-4.1,19.6s5.2,12.8,10.9,16.7c0,0,0,0,0,0,5.8,3.9,12.7,5.4,19.6,4.1,6.9-1.3,12.8-5.2,16.7-10.9,3.9-5.8,5.4-12.7,4.1-19.6-1.3-7.1-5.4-13-11-16.7Z"/>
  <path class="st22" d="M1358.1,824.5c-25-17.1-40.7-46.5-38.7-78.8.3-5.6,1.2-11.2,2.6-16.6.2-.7.4-1.4.6-2.1l9.2,2.6c-1.5,5.4-2.5,11-2.8,16.6h0c-.4,6.3,0,12.4,1,18.3,0,0,0,0,0,0,0,0,0,0,0,0,4.6,26.4,22.4,48.6,46.6,59.1,6.3,2.7,13,4.7,20,5.7.2,0,.4,0,.7,0,.2,0,.4,0,.6,0,.5,0,.9.1,1.4.2,1.3.1,2.6.3,3.9.3,21.1,1.3,41.5-5.7,57.3-19.7,5-4.4,9.4-9.4,13.1-14.8,7.9-11.6,12.6-25.2,13.5-39.7,1.3-21.1-5.7-41.5-19.7-57.3-14-15.8-33.4-25.3-54.5-26.6-14.3-.9-28.6,2.1-41.3,8.7l-4.4-8.5c14.2-7.4,30.2-10.8,46.3-9.8,23.7,1.4,45.4,12,61.1,29.8,15.7,17.8,23.6,40.6,22.1,64.2-1,16.2-6.2,31.4-15.1,44.5-4.1,6-9,11.6-14.7,16.6-17.8,15.7-40.6,23.6-64.2,22.1-16.5-1-31.7-6.5-44.4-15.2Z"/>
  <path class="st26" d="M1348.4,508c-.2-.1-.4-.2-.5-.4-3.1-2.9-6.1-5.9-8.9-8.9-1.2-1.2-1.2-3.2,0-4.4,1.2-1.2,3.2-1.1,4.4,0,2.8,2.9,5.7,5.8,8.7,8.7,1.2,1.2,1.3,3.2,0,4.4-1,1.1-2.7,1.3-3.9.5Z"/>
  <path class="st26" d="M1255.9,293.7c-.9-.5-1.5-1.5-1.5-2.6,0-4.1,0-8.4.2-12.6,0-1.7,1.5-3.1,3.2-3,1.7,0,3.1,1.5,3,3.2-.2,4.1-.2,8.3-.2,12.3,0,1.7-1.4,3.1-3.1,3.1-.6,0-1.2-.2-1.6-.5Z"/>
  <path class="st8" d="M1589.8,809.4c-1.1-.8-1.7-2.2-1.3-3.5,2.4-8.4,4.3-17,5.6-25.6.3-1.7,1.9-2.9,3.6-2.7,1.7.3,2.9,1.9,2.7,3.6-1.3,8.9-3.3,17.8-5.8,26.5-.5,1.7-2.3,2.7-4,2.2-.3,0-.6-.2-.9-.4ZM1597.3,740.1c-.8-.5-1.3-1.4-1.4-2.4-.6-8.7-1.8-17.5-3.5-26-.4-1.7.8-3.4,2.5-3.8,1.7-.4,3.4.8,3.8,2.5,1.8,8.8,3,17.8,3.6,26.8.1,1.8-1.2,3.3-3,3.4-.7,0-1.4-.2-2-.5ZM1390.6,555.2c-.8-.5-1.3-1.5-1.4-2.5,0-1.8,1.3-3.2,3.1-3.3,4.8-.2,9.7-.2,14.5,0,4.2.1,8.4.4,12.6.8,1.8.2,3,1.7,2.9,3.5-.2,1.8-1.7,3-3.5,2.9-4-.4-8.1-.6-12.2-.7-4.7-.1-9.4-.1-14.1,0-.7,0-1.4-.2-1.9-.5ZM1580.4,672.5c-.5-.3-.9-.8-1.1-1.3-3.6-7.9-7.7-15.7-12.3-23.2-.9-1.5-.5-3.5,1-4.4,1.5-.9,3.5-.5,4.4,1,4.8,7.7,9,15.7,12.7,23.9.7,1.6,0,3.5-1.6,4.2-1.1.5-2.2.3-3.1-.3ZM1459.7,564.5c-1.1-.8-1.7-2.2-1.2-3.6.5-1.7,2.3-2.6,4-2.1,8.6,2.7,17.1,6.1,25.2,10,1.6.7,2.3,2.7,1.5,4.2-.8,1.6-2.7,2.3-4.2,1.5-7.9-3.8-16.1-7-24.4-9.7-.3,0-.6-.2-.8-.4ZM1541.2,614.9c-.2-.1-.3-.3-.5-.4-6.1-6.2-12.7-12.1-19.6-17.5-1.4-1.1-1.6-3.1-.5-4.5,1.1-1.4,3.1-1.6,4.5-.5,7.1,5.5,13.9,11.6,20.2,18.1,1.2,1.3,1.2,3.3,0,4.5-1.1,1.1-2.8,1.2-4,.4Z"/>
  <path class="st26" d="M1846.7,278.8c-.9-.5-1.4-1.4-1.5-2.5-.2-4.1-.5-8.3-.8-12.3-.2-1.7,1.1-3.2,2.8-3.4,1.7-.2,3.2,1.1,3.4,2.8.4,4.1.7,8.3.9,12.6,0,1.7-1.2,3.2-3,3.3-.6,0-1.3-.1-1.8-.5Z"/>
  <path class="st26" d="M1393.3,547c-6.2-3.8-12.3-7.9-18.2-12.1-1.4-1-1.7-2.9-.7-4.3,1-1.4,2.9-1.7,4.3-.7,6.8,4.9,13.9,9.5,21.1,13.8,0,0,0,0,0,0,1.5.9,1.9,2.8,1.1,4.2-.9,1.5-2.8,2-4.3,1.1-1.1-.7-2.2-1.3-3.3-2ZM1433.5,567.5c-1.3-.8-1.8-2.4-1.2-3.9.7-1.6,2.5-2.3,4.1-1.7,7.7,3.2,15.6,6.2,23.6,8.7,1.7.5,2.5,2.3,2,3.9-.5,1.6-2.3,2.5-3.9,2-8.1-2.6-16.2-5.6-24.1-8.9-.2,0-.3-.1-.4-.2ZM1497.4,586.3c-1.1-.6-1.7-1.9-1.4-3.2.3-1.7,1.9-2.8,3.6-2.5,8.2,1.5,16.6,2.6,24.9,3.3,1.7.1,3,1.7,2.8,3.4-.2,1.7-1.7,3-3.4,2.8-8.5-.8-17-1.9-25.5-3.4-.4,0-.8-.2-1.1-.4ZM1563.9,590.5c-.8-.5-1.4-1.4-1.5-2.5,0-1.7,1.2-3.2,3-3.3,8.3-.4,16.8-1.2,25-2.3,1.7-.2,3.3,1,3.5,2.7.2,1.7-1,3.3-2.7,3.5-8.5,1.2-17.1,2-25.6,2.4-.6,0-1.3-.1-1.8-.5ZM1629.6,579.7c-.6-.4-1.1-1-1.4-1.8-.5-1.7.5-3.4,2.2-3.8,8-2.3,16.1-4.9,23.9-7.9,1.6-.6,3.4.2,4,1.8.6,1.6-.2,3.4-1.8,4-8,3-16.2,5.7-24.4,8-.9.2-1.8,0-2.5-.3ZM1691.3,554.6c-.4-.3-.8-.7-1.1-1.2-.8-1.5-.3-3.4,1.2-4.2,7.4-4,14.6-8.4,21.6-12.9,1.4-.9,3.4-.6,4.3.9.9,1.4.6,3.4-.9,4.3-7.1,4.7-14.5,9.1-22,13.2-1,.5-2.2.5-3.1,0ZM1745.9,516.5c-.3-.2-.5-.4-.7-.6-1.1-1.3-1-3.3.3-4.4,6.3-5.5,12.4-11.4,18.2-17.4,1.2-1.2,3.2-1.3,4.4,0,1.2,1.2,1.3,3.2,0,4.4-5.9,6.2-12.1,12.1-18.6,17.8-1,.9-2.5,1-3.7.3ZM1790.7,467.2c0,0-.1,0-.2-.1-1.4-1-1.7-3-.7-4.3,4.3-6,8.5-12.2,12.3-18.5.5-.8,1-1.7,1.5-2.5.9-1.5,2.8-2,4.3-1.1,0,0,0,0,0,0,1.5.9,1.9,2.8,1,4.3-.5.9-1,1.7-1.6,2.6-3.9,6.4-8.2,12.8-12.6,18.9-1,1.3-2.8,1.7-4.1.8ZM1823.3,409.1c-1.3-.8-1.8-2.4-1.2-3.9,3.2-7.7,6.2-15.6,8.8-23.6.5-1.6,2.3-2.5,3.9-2,1.6.5,2.5,2.3,2,3.9-2.6,8.1-5.7,16.2-9,24.1-.7,1.6-2.5,2.3-4.1,1.7-.1,0-.3-.1-.4-.2ZM1842.3,345.2c-1.1-.7-1.7-1.9-1.4-3.2,1.5-8.2,2.6-16.6,3.4-24.9.2-1.7,1.7-3,3.4-2.8,1.7.2,3,1.7,2.8,3.4-.8,8.5-1.9,17-3.5,25.5-.3,1.7-1.9,2.8-3.6,2.5-.4,0-.8-.2-1.1-.4Z"/>
  <path class="st26" d="M1772.7,96.1c-.3-.2-.5-.4-.7-.6-2.7-3.1-5.5-6.2-8.3-9.1-1.2-1.2-1.1-3.2.1-4.4,1.2-1.2,3.2-1.2,4.4,0,2.9,3,5.7,6.1,8.5,9.3,1.1,1.3,1,3.3-.3,4.4-1.1.9-2.5,1-3.7.3Z"/>
  <path class="st26" d="M1523.4,336.1c-4.1-2.5-7.9-5.7-11.3-9.3-9.1-10.1-13.8-23.2-13.1-36.8.7-13.6,6.6-26.1,16.7-35.3,10.1-9.1,23.2-13.8,36.8-13.1,13.6.7,26.1,6.6,35.3,16.7,9.1,10.1,13.8,23.2,13.1,36.8-.7,13.6-6.6,26.1-16.7,35.3s-23.2,13.8-36.8,13.1c-8.6-.4-16.9-3-24-7.4ZM1571.7,256.9c-5.9-3.6-12.6-5.7-19.6-6h0c-11.1-.6-21.8,3.2-30,10.7-8.3,7.5-13.1,17.7-13.7,28.8-.6,11.1,3.3,21.8,10.7,30,7.5,8.3,17.7,13.1,28.8,13.7,11.1.6,21.8-3.2,30-10.7,8.3-7.5,13.1-17.7,13.7-28.8.6-11.1-3.3-21.8-10.7-30-2.7-3-5.8-5.6-9.2-7.6ZM1552.3,246.2h0s0,0,0,0Z"/>
  <path class="st46" d="M2119,1647l.4,12.5c38.4,53.5,73.4,39.9,97.5,23.8-14.5-36-17.1-40-28.6-52.5-43.5,31.6-69.2,16.2-69.2,16.2Z"/>
  <path class="st23" d="M2294.1,1588.3l-67.6-105.7c-4.4,59.6-15,115.5-38.3,148.2,11.6,12.5,14.1,16.5,28.6,52.5,60.1-40.1,77.3-95,77.3-95Z"/>
  <path class="st6" d="M2360.5,2475.7c-33.7,1.6-66.4.6-88.1-.5,19.8-14.1,65.5-44.8,103.8-57.1l26.3-1.6s8.9,13.5,12.1,44.5c-4.4,5.4-17.1,13-54,14.7Z"/>
  <path class="st16" d="M2272.1,2475.3c0,0,.2-.1.3-.2,21.8,1.1,54.4,2.1,88.1.5,36.9-1.7,49.6-9.3,54-14.7.1,1.4.3,2.8.4,4.3.5,6.8-4.5,12.8-11.3,13.3-27.6,2.1-96.1,6.8-129.1,5.1-4.4-.2-6-5.8-2.4-8.4Z"/>
  <path class="st42" d="M2601.6,2466.6c2.5-15.8,6.4-38.7,9.5-44.6,4.8-9.2,21.2,0,21.2,0,0,0,11.5,5.4,16.8,14.3,3.4,5.7,12.7,22,19.1,33,.7,1.3,1,2.6,1,3.9l-65.8,2.3c-1.6-2.6-2.4-5.7-1.9-9Z"/>
  <path class="st56" d="M2669.3,2473.4c-.1,3.8-3.1,7.2-7.3,7.3l-46.9,1.3c-5,.1-9.2-2.4-11.6-6.3l65.8-2.3Z"/>
  <path class="st50" d="M2596.6,2369.5c.6,1.9,9.1,43.1,12.8,61.2,1,5,5.5,8.5,10.6,8.3,2.8-.1,6-.4,9.4-.8,6-.8,10.6-5.8,10.8-11.9.6-15.8.9-46.3-4.9-58-8-16.3-38.8,1.3-38.8,1.3Z"/>
  <path class="st54" d="M2407.6,2381.3c-3.6-.1,1.5,18.8-4.1,37.4-1.2,4.2-4.4,7.5-8.8,7.6-2.8,0-6.2,0-9.6-.3-5.1-.4-9.3-4.4-9.7-9.5l-4.5-48.3,36.7,13.1Z"/>
  <path class="st1" d="M2305.6,1868c1.6,7.9,59.1,342.9,62.6,516.3,0,2.9,2.2,5.3,5.1,5.7,7.3,1,21.5,2.3,35.3-.2,1.9-.4,3.3-1.9,3.4-3.8,2-32.3,18.2-305.4-1.6-434,0,0,163.3,343.7,188.1,438.5.6,2.3,2.7,3.9,5.1,3.7,7-.4,21.5-1.6,33.1-5.9,4.1-1.5,6.5-5.9,5.5-10.2-13.8-56.7-110.8-447.5-176.6-533.6l-159.8,23.4Z"/>
  <path class="st58" d="M2410.3,1954.1c.5,0,1.1-.2,1.5-.6.8-.8.9-2.2,0-3l-21.9-22.4c-.8-.8-2.2-.9-3,0-.8.8-.9,2.2,0,3l21.9,22.4c.4.4,1,.6,1.5.6Z"/>
  <path class="st23" d="M2212.2,1448.5c41.9-11,119.3-28.4,180.9-24.5,20.1,1.3,23.9,20.2,24.7,34.4,9.3,164.1,23.6,301.5,47.5,386.2-53.8,21.3-107.2,31.2-159.8,23.4-39.4-84.5-73.9-182-103.4-292.7,0,0-17.3-88.3-.5-117.8,2.6-4.6,6.1-7.7,10.5-8.9Z"/>
  <path class="st55" d="M2313.1,1333.6s10.6,63.2,13.8,92.4c.5,4.7-2,9.2-6.2,11.4-11.6,6-36.3,15.6-63.2,6.8-4.4-1.5-7.3-5.7-7.2-10.4l1.8-84.4,61.1-15.8Z"/>
  <path class="st40" d="M2058.4,1000.4c1.5-.8,2-2.8,1.2-4.3l-4.3-7.6-.3.2-25.3-41.1c-.9-1.5-2.8-1.9-4.3-1l-4.8,3c-1.5.9-1.9,2.8-1,4.3l23.4,37.9c.9,1.5.4,3.5-1.1,4.4l-183.6,103.5c-1.5.8-2,2.8-1.2,4.3l4.3,7.6h0s59.7,105.8,59.7,105.8c.8,1.5,2.8,2,4.3,1.2l4.9-2.8c1.5-.8,2-2.8,1.2-4.3l-58.1-103.1c-.8-1.5-.3-3.4,1.2-4.3l184-103.8Z"/>
  <rect class="st18" x="1599" y="959.2" width="436.8" height="99.3" transform="translate(-261.2 1022.9) rotate(-29.4)"/>
  <path class="st41" d="M2315.4,1951.2l-28.1,14.2c-.7.4-1.6,0-2-.7l-381.9-754.3c-.4-.7,0-1.6.7-2l28.1-14.2c.7-.4,1.6,0,2,.7l381.9,754.3c.4.7,0,1.6-.7,2Z"/>
  <ellipse class="st3" cx="1627" cy="1115.9" rx="18.6" ry="50" transform="translate(-338.3 943.1) rotate(-29.4)"/>
  <ellipse class="st3" cx="2005" cy="903.1" rx="18.6" ry="50" transform="translate(-185 1101.4) rotate(-29.4)"/>
  <path class="st52" d="M2112.8,1649c-2.7-4-3.3-9-1.9-13.6,2.8-8.9,8.5-22.1,18.2-19.2,14.4,4.3,16.3,39.9,16.3,39.9l-3.8,22.8,4.8,11.4c-9.5-4.6-21.2-21-33.6-41.2Z"/>
  <path class="st53" d="M2445.7,1729.2c5.9-8.2,11.8-17.3,17.6-27.2,57.5-98.6-48-249.5-48-249.5l-32.2,95.7c47.6,53,27.6,104.2,11.4,146.6-21.2,55.6-112.8,102.7-112.8,102.7l17.4,21.5s94.2-16.6,146.5-89.9Z"/>
  <path class="st23" d="M2481.9,1603c-1.2-76.5-62-157.8-73.1-172.1-.8-1-2.4-.8-2.9.4l-22.8,117c9.7,22.6,7.7,36.8,17.4,57.2,26.1-3.7,50.4-3.8,76.2,1.7,2.7.6,5.2-1.5,5.2-4.2Z"/>
  <path class="st48" d="M2281.8,1797.6c-5.4-2.7-47.3,3.4-40.8,9.2,11.3,10.1,11.8,17.8,0,27.2-5.8,4.7-19.3,11.8-23,.9-1-3.1-1.2-7-4.1-8.4-2.2-1-8.3,6.4-8.6,8.7-2,13.3,8.6,24.3,20.2,28.7,5.7,2.1,11.7,3,17.7,3.9,3.3.5,11.6,1.7,12.4,1.4.9-.4,1.4-1.3,2-2,2.7-3,17.4-15.3,20.5-19.5,1.7-2.2,23.6-29.8,22.5-32.5,0,0-14.3-15.4-18.8-17.7Z"/>
  <path class="st49" d="M2239.8,1266.3s-33.9,63.8-29.5,89.5,46.3,23.9,83,3l25.6-68.8-79.1-23.7Z"/>
  <path class="st43" d="M2291.6,1325c-1.5-.7-2-2.5-1.1-3.8,2.7-4.1,7.8-12.6,9.4-20,0,0,6.1-3.9-15.5-9.1-21.6-5.2-53.8-13.2-60.5-31.6-6.6-17.9,10.7-63,38.4-27.1,1.1,1.4,3.1,1.4,4.2,0,4.5-5.9,16.5-18.1,33-10.7,15.5,6.9,17.2,18.3,17,24,0,1.7,1.4,3,3.1,2.7,7.8-1.5,26.6-2.8,35.4,16.5,7.2,15.9,2.5,24.9-1.7,29.3-1.4,1.4-.8,3.8,1.1,4.3,5.1,1.6,11.8,5.9,11.1,18-.9,16.7-19.6,15.2-24.9,14.4-.9-.1-1.7.2-2.3.8-4.5,5-25,26.4-47.2,29-1.9.2-3.4-1.7-2.8-3.5l9.6-27.9c.4-1.3-.2-2.7-1.4-3.3l-4.8-2.1Z"/>
  <path class="st51" d="M2287.8,1329s24.1-16.5,25.9-2.6c1.8,13.9-21.7,20.2-33.3,15l7.5-12.4Z"/>
  <path class="st62" d="M2246.1,2361.1c-74.1,24.7-146.1,24.8-215.5,2.2-17.5-5.7-29.4-22.1-29.4-40.5v-339.9c85.3,18.8,174.7,19.7,268.9,0v345.2c0,15.1-9.7,28.3-24,33.1Z"/>
  <ellipse class="st3" cx="2135.6" cy="1980.1" rx="134.4" ry="27"/>
  <path class="st21" d="M2270.1,2244.6c-89.6,31.2-179.2,31.2-268.9,0v-135.6c90.4,22.3,180.1,23.4,268.9,0v135.6Z"/>
  <path class="st19" d="M2015.6,2013.7c2.9,10.8,15.2,18,26,15.4,7.6-1.9,14.1-7.8,21.9-7.9,8.9-.2,16,7.2,21.1,14.4,9.4,13.1,16.5,27.8,21,43.3,1.5,5.2,2.8,10.6,6.4,14.6,7.7,8.5,22.4,5.8,31-1.8,8.6-7.6,13.3-18.6,19.7-28.1s16.2-18.4,27.7-17.7c3.8.2,7.6,1.5,11.4,1.7,8.5.4,16.9-5.7,19.2-13.9.7-2.5.9-5.2,2.2-7.5,3.9-6.8,14.2-7.5,19.5-13,3.4-3.5,4.5-8.6,8.4-12,1.5-1.3,11.7-5.5,11.9-6.2,1.8-5.5-3.9-10.4-9.2-12.8-30.9-13.8-66.2,0-99.8,4.6-32.9,4.6-64.4-2.9-97-2.6-18,.2-48.3,4.5-41.5,29.5Z"/>
  <ellipse class="st20" cx="2137.2" cy="1980.9" rx="134.4" ry="27"/>
  <ellipse class="st39" cx="2133.6" cy="1980.9" rx="110.7" ry="16.3"/>
  <path class="st27" d="M1957.2,2519.2v29.5c0,7.6-3.9,13.8-9,14.5l-460.6,41.7c-3.4.5-6.9.4-10.2-.2-.9-.2-1.8-.4-2.7-.6l-320.9-60.5c-3.4-.9-5.9-5.3-5.9-10.5v-31.2l340.5-42.2,43.8-20.7,43.6,6.3,25.7-4.9,58.8,17.1,296.9,61.7Z"/>
  <path class="st27" d="M1957.2,2519.2v29.5c0,7.6-3.9,13.8-9,14.5l-460.6,41.7c-3.4.5-7.7.4-10.2-.2v-159l54.8-6.7,43.6,6.3,25.7-4.9,58.8,17.1,296.9,61.7Z"/>
  <path class="st30" d="M1601.5,2440.4l-453.6,60.2,327.2,61.6c4,1,8.1,1.3,12.2.7l470-43.7-355.7-78.8Z"/>
  <path class="st27" d="M1767.8,2494.8c0,21.6-68,38.4-161.8,42.8-23.7,1.1-49,1.4-75.3.8-129.2-3-233-27-233-53.6s0-1.9.2-1.9h-.2s.5-1.3.5-1.3c.1-.4.3-.8.5-1.2l29.8-77.9,36-94,50.4-131.7,38.6-100.8,48-125.4c6-15.7,17.1-25.5,29.1-25.5s3.2.2,4.8.5c10.1,2.2,19.2,11.4,24.4,25l48.4,126.2,38.6,102.1,51,134.4h0s36.6,96.6,36.6,96.6h0s.6,0,.6,0l30.5,78.4c1.3,2.1,2.4,4.2,2.4,6.4Z"/>
  <path class="st21" d="M1734.9,2409.9c-29.4,9.8-76.4,16.9-132.7,19.5-22.7,1.1-46.7,1.4-71.7.9-86.8-1.6-162-12.8-202.1-28l36-94c42.1,9.5,100.9,15.9,166.1,16.9,21.1.3,41.7,0,61.3-.7,41.2-1.6,77.6-5.6,106.2-11.2l36.3,96.5h0s.6,0,.6,0Z"/>
  <path class="st21" d="M1647.2,2178.9c-22.4,2.4-47.1,4.1-73.3,4.8-14,.4-28.5.6-43.2.4-42.2-.4-81.8-3.1-115.8-7.5l38.6-100.8c24.1,1.9,50.1,3,77.2,3.2,9.6,0,19,0,28.3-.2,17-.3,33.5-1,49.2-2l39.1,102.2Z"/>
  <path class="st47" d="M599.1,747.1c-1.7,1.5-4.2,1.4-5.7-.2-3.8-4-7.5-8.1-11.1-12.3-1.5-1.7-1.1-4.3.4-5.8,1.7-1.5,4.3-1.3,5.8.4,3.6,4.1,7.2,8.1,10.9,12,1.6,1.6,1.5,4.2-.2,5.8,0,0,0,0,0,0Z"/>
  <path class="st22" d="M959.7,499.1s0,0,0,0c-14.5,13.1-33.3,19.7-52.8,18.7-19.5-1-37.5-9.6-50.6-24.1-13.1-14.5-19.7-33.3-18.7-52.8,2.1-40.3,36.6-71.4,76.9-69.3,19.5,1,37.5,9.6,50.6,24.1,13.1,14.5,19.7,33.3,18.7,52.8-1,19.5-9.6,37.4-24.1,50.5ZM869.8,399.5c-12.1,10.9-19.2,25.8-20,42-.9,16.2,4.7,31.8,15.6,43.9,10.9,12.1,25.8,19.2,42.1,20.1,16.2.8,31.8-4.7,43.9-15.6,0,0,0,0,0,0,12.1-10.9,19.2-25.8,20-42,.9-16.2-4.7-31.8-15.6-43.9-10.9-12.1-25.8-19.2-42.1-20.1-16.2-.8-31.8,4.7-43.9,15.6,0,0,0,0,0,0Z"/>
  <path class="st45" d="M1224.4,648.1c-1.4-1-1.8-2.8-.9-4.3,2.3-3.7,4.6-7.3,7.1-10.8,1-1.4,3-1.8,4.4-.8,0,0,0,0,0,0,1.4,1,1.8,3,.8,4.4-2.4,3.4-4.7,6.9-6.9,10.5-.9,1.5-2.9,2-4.4,1,0,0,0,0-.1,0Z"/>
  <path class="st5" d="M800.4,898.1l-29.2,28.8c-41.4-4-73.4-16.9-97.9-33.2,14.8-36.7,29.8-58.5,41.5-71.2,38.6,54.3,85.6,75.7,85.6,75.7Z"/>
  <path class="st25" d="M597.2,790.4l68.9-107.7c4.5,60.8,25,106.4,48.7,139.8-11.8,12.8-26.8,34.5-41.5,71.2-61.2-40.8-76.1-103.3-76.1-103.3Z"/>
  <path class="st36" d="M523.9,1641.8c34.3,1.6,67.6.6,89.8-.6-20.2-14.4-66.8-45.7-105.7-58.1l-26.7-1.6s-9.1,13.8-12.3,45.3c4.4,5.5,17.4,13.2,55,15Z"/>
  <path class="st59" d="M614,1641.4c0,0-.2-.1-.3-.2-22.2,1.1-55.4,2.1-89.8.6-37.6-1.7-50.6-9.4-55-15-.1,1.5-.3,2.9-.4,4.4-.6,6.9,4.6,13,11.5,13.5,28.1,2.1,97.9,6.9,131.5,5.2,4.4-.2,6.1-5.9,2.5-8.5Z"/>
  <path class="st38" d="M278.2,1632.6c-2.5-16.1-6.5-39.4-9.7-45.4-4.9-9.4-21.6,0-21.6,0,0,0-11.8,5.5-17.2,14.6-3.4,5.8-13,22.4-19.4,33.6-.7,1.3-1.1,2.7-1,4l67,2.3c1.6-2.6,2.4-5.8,1.9-9.2Z"/>
  <path class="st57" d="M209.3,1639.4c.1,3.8,3.1,7.3,7.4,7.4l47.7,1.3c5,.1,9.4-2.5,11.8-6.4l-67-2.3Z"/>
  <path class="st5" d="M283.3,1533.6c-.6,1.9-9.2,43.9-13,62.3-1,5.1-5.6,8.7-10.8,8.4-2.8-.1-6.1-.4-9.6-.8-6.1-.8-10.8-5.9-11-12.1-.6-16.1-.9-47.1,5-59.1,8.2-16.6,39.5,1.3,39.5,1.3Z"/>
  <path class="st5" d="M475.9,1545.6c3.7-.1-1.5,19.2,4.1,38.1,1.3,4.3,4.5,7.6,8.9,7.7,2.9,0,6.3,0,9.8-.3,5.2-.4,9.4-4.5,9.9-9.7l4.6-49.2-37.4,13.4Z"/>
  <path class="st25" d="M579.8,1022.7c-1.7,8.1-60.2,349.4-63.7,526,0,3-2.2,5.4-5.2,5.9-7.4,1-21.9,2.4-35.9-.2-1.9-.4-3.4-1.9-3.5-3.9-2-32.9-18.5-311.2,1.7-442.2,0,0-166.4,350.2-191.6,446.7-.6,2.4-2.8,3.9-5.2,3.8-7.1-.4-21.9-1.7-33.7-6-4.2-1.6-6.6-6-5.6-10.4,14.1-57.8,112.8-455.9,179.9-543.6l162.8,23.9Z"/>
  <path class="st37" d="M473.2,1110.4c-.6,0-1.1-.2-1.5-.6-.9-.8-.9-2.2,0-3.1l22.3-22.8c.8-.9,2.2-.9,3.1,0,.9.8.9,2.2,0,3.1l-22.3,22.8c-.4.4-1,.7-1.6.7Z"/>
  <path class="st25" d="M674.9,595.4c-42.7-11.2-121.6-28.7-184.3-25-14.4.9-26,12.3-26.8,26.7-9.5,167.1-22.4,315.5-46.8,401.8,54.8,21.7,109.2,31.8,162.8,23.9,40.2-86.1,75.3-185.4,105.3-298.2,0,0,17.6-90,.5-120-2.7-4.7-6.2-7.9-10.7-9.1Z"/>
  <path class="st5" d="M572.2,478.3s-10.8,64.4-14,94.2c-.5,4.8,2,9.4,6.3,11.6,11.8,6.1,37,15.9,64.4,6.9,4.5-1.5,7.5-5.8,7.4-10.6l-1.9-86-62.2-16.1Z"/>
  <path class="st28" d="M642.5,407s20.8,47.8,22.2,72.9c1.4,25.1,6.8,41.4-22.2,46.5-29,5.1-53.5-9.4-66.7-34.4,0,0-20.8-38.5-16.1-54.3,4.7-15.8,82.8-30.7,82.8-30.7Z"/>
  <path class="st35" d="M585.7,473.9h3.7s-15.1-31-1.8-36.5c13.3-5.4,65.9-16.2,77.3-34.9,10.9-18,1.2-41.3-13.4-47.8-.9-.4-2,0-2.5.9l-1.2,2.3c-.8,1.6-3.1,1.3-3.6-.4h0c-.5-1.6-2.6-2-3.5-.5-3.5,5.6-12.9,14.7-38.1,19.3-35.8,6.6-59.5,21.1-60.1,45.9,0,1.6-1.7,2.4-3.1,1.6-2.6-1.6-6.9-2.4-12.5,2.4-9.8,8.3-5.8,29.7,15.7,47.4,1,.8,1,2.4,0,3.2-3.9,2.5-9.7,8.6,5.4,16.7,15.4,8.3,24.6,7.4,28,6.5.9-.2,1.6-1.1,1.5-2l-1.4-21.9c0-1.1.8-2.1,2-2.1h7.8Z"/>
  <path class="st28" d="M586.6,478.5s-7.9-30.6-21.6-22c-13.7,8.6,7.1,34.2,18.1,35.4l3.5-13.4Z"/>
  <path class="st61" d="M142.1,975.7l-28.1,7.1c-48.3,12.2-80.7,48.5-72.5,81l9.8,38.7c8.2,32.5,54,49,102.3,36.8l28.1-7.1c1.9-.5,3.7-1,5.6-1.5l824.6-246.7-21.3-84.3-842.8,174.7c-1.9.4-3.8.8-5.6,1.3ZM154.2,1014.3c36.3-9.2,70.2.9,75.7,22.5,5.5,21.6-19.6,46.5-55.9,55.7-36.3,9.2-70.2-.9-75.7-22.5-5.5-21.6,19.6-46.5,55.9-55.7Z"/>
  <path class="st60" d="M1264.7,685.1l-163.2,41.2c-11.6,2.9-21.2,11.1-26,22.1l-24.4,56.4c-7,16.1-2.2,34.9,11.6,45.7l48.3,38c9.4,7.4,21.7,10,33.4,7.1l163.2-41.2c24.6-6.2,45.5,19.5,33.9,42-27.8,54-78.8,96.7-143.7,113.1-117.3,29.7-221.2-41.4-249.7-154.3s29.1-224.8,146.4-254.4c64.9-16.4,130.1-3.1,180.2,31.2,20.9,14.3,14.8,46.9-9.9,53.1Z"/>
  <path class="st1" d="M1268.6,700.5l-163.2,41.2c-11.6,2.9-21.2,11.1-26,22.1l-24.4,56.4c-7,16.1-2.2,34.9,11.6,45.7l48.3,38c9.4,7.4,21.7,10,33.4,7.1l163.2-41.2c24.6-6.2,45.5,19.5,33.9,42-27.8,54-78.8,96.7-143.7,113.1-117.3,29.7-221.2-41.4-249.7-154.3s29.1-224.8,146.4-254.4c64.9-16.4,130.1-3.1,180.2,31.2,20.9,14.3,14.8,46.9-9.9,53.1Z"/>
  <path class="st1" d="M145.2,987.9l-28.1,7.1c-48.3,12.2-80.7,48.5-72.5,81l9.8,38.7c8.2,32.5,54,49,102.3,36.8l28.1-7.1c1.9-.5,3.7-1,5.6-1.5l824.6-246.7-21.3-84.3-842.8,174.7c-1.9.4-3.8.8-5.6,1.3ZM157.3,1026.5c36.3-9.2,70.2.9,75.7,22.5,5.5,21.6-19.6,46.5-55.9,55.7-36.3,9.2-70.2-.9-75.7-22.5-5.5-21.6,19.6-46.5,55.9-55.7Z"/>
  <path class="st5" d="M353.2,818c-21.1,59.3-9.2,122.9-9.2,122.9l-27.9,7.4s-36-42.8-27.8-137.8c25.7-3.9,49.8,2.1,64.8,7.5Z"/>
  <path class="st25" d="M288.4,810.5c.9-10.7,2.4-22,4.5-34,18.8-104.8,153.1-185.3,184.7-203,2.9-1.6,6.5.6,6.4,3.9l-4.5,142.4c-74.8,10.1-110.2,52.9-126.3,98.1-15-5.4-39.1-11.4-64.8-7.5Z"/>
  <path class="st5" d="M859.1,950.4c5.2-1.4,9.5-5.2,11.7-10.1,4.3-9.6,9.1-24.9-1.2-29.6-15.3-7-43.2,21.6-43.2,21.6l-13.6,22.1-12.4,6.1c11.4,3.1,33.4-2.1,58.8-10Z"/>
  <path class="st5" d="M342.2,926.9h34.4s-27.9,16.8-28.9,34.4c-.9,17.6,11.1,54.1,16.7,64.1,6.1,10.9-78-16.2-48.3-98.4h26Z"/>
</svg>