<?xml version="1.0" encoding="UTF-8"?>
<svg id="Livello_1" xmlns="http://www.w3.org/2000/svg" version="1.1" viewBox="0 0 54 54">
  <!-- Generator: Adobe Illustrator 30.1.0, SVG Export Plug-In . SVG Version: 2.1.1 Build 136)  -->
  <defs>
    <style>
      .st0 {
        fill: #51aa4d;
      }
    </style>
  </defs>
  <path class="st0" d="M27,54c-7.2,0-14-2.8-19.1-7.9C2.8,41,0,34.2,0,27S2.8,13,7.9,7.9C13,2.8,19.8,0,27,0s6.2.5,9.1,1.6c1.5.5,2.2,2.1,1.7,3.6-.5,1.5-2.1,2.2-3.6,1.7-2.3-.8-4.7-1.2-7.2-1.2C15.2,5.6,5.6,15.2,5.6,27s9.6,21.4,21.4,21.4,21.4-9.6,21.4-21.4-.3-3.8-.7-5.6c-.4-1.5.5-3,2-3.4,1.5-.4,3,.5,3.4,2,.6,2.3.9,4.7.9,7.1,0,7.2-2.8,14-7.9,19.1s-11.9,7.9-19.1,7.9Z"/>
  <path class="st0" d="M53.2,6.7c-8,8.8-15.5,19.1-21.4,29.5-1.2,2.2-3.6,3.5-6,3.4,0,0,0,0,0,0-2.4,0-4.6-1.5-5.7-3.7-1.9-3.8-4.6-7.9-6.9-11.3-.9-1.3-.5-3,.9-3.7,0,0,0,0,0,0,3.3-1.8,7.4-.7,9.4,2.5.7,1.2,1.4,2.3,2.1,3.5,5.5-7.6,11.7-14.7,18.4-21.1,2.3-2.1,5.4-2.9,8.3-2.2,1.4.3,1.9,2.1.9,3.1Z"/>
</svg>