<?xml version="1.0" encoding="UTF-8"?>
<svg id="Livello_1" xmlns="http://www.w3.org/2000/svg" version="1.1" viewBox="0 0 54 54">
  <!-- Generator: Adobe Illustrator 30.1.0, SVG Export Plug-In . SVG Version: 2.1.1 Build 136)  -->
  <defs>
    <style>
      .st0 {
        fill: #96d9f7;
      }

      .st1 {
        fill: #1c2d95;
      }
    </style>
  </defs>
  <path class="st1" d="M24,7.4v5.6c12.5,1.2,21,11.6,21,24.4,0,3.1-.6,6-1.6,8.7-3.8-7.7-10.3-13.2-19.4-13.7v5.6c0,1.9-1,2.3-2.3.9l-13.2-13.7c-1.3-1.3-1.3-3.6,0-4.9l13.1-13.8c1.3-1.4,2.3-.9,2.3.9Z"/>
  <path class="st0" d="M22.6,7.1l-13.1,13.8c-1,1-1,2.7,0,3.7l13.2,13.7s0,0,.1.1c0,.2,0,.4-.1.4,0,0-.3-.1-.7-.5l-13.2-13.7c-1-1-1-2.7,0-3.7l13.1-13.8c.4-.4.6-.5.7-.5,0,0,0,.2.1.4,0,0,0,0,0,0Z"/>
</svg>