<?xml version="1.0" encoding="UTF-8"?>
<svg id="Livello_1" xmlns="http://www.w3.org/2000/svg" xmlns:xlink="http://www.w3.org/1999/xlink" version="1.1" viewBox="0 0 82.9 65">
  <!-- Generator: Adobe Illustrator 30.1.0, SVG Export Plug-In . SVG Version: 2.1.1 Build 136)  -->
  <defs>
    <style>
      .st0 {
        fill: none;
      }

      .st1 {
        clip-path: url(#clippath-1);
      }

      .st2 {
        fill: #e1e2ee;
      }

      .st3 {
        clip-path: url(#clippath);
      }
    </style>
    <clipPath id="clippath">
      <polygon class="st0" points="0 0 0 0 39.6 0 39.6 65 0 65 0 0"/>
    </clipPath>
    <clipPath id="clippath-1">
      <polygon class="st0" points="82.7 0 82.7 0 43.1 0 43.2 65 82.9 64.9 82.7 0"/>
    </clipPath>
  </defs>
  <g id="_x3C_Ripetizione_specchio_x3E_">
    <g class="st3">
      <path class="st2" d="M3.5,0C7.7.1,12.1,0,19.2,1.6c19.1,4.4,20.4,7.7,20.4,7.7v54c-.6,3-4.6,1-4.9.8-3.8-1.8-14.5-5-22.6-5.5-3-.2-7.4.2-9.9-1.2-1.6-.9-2.2-2.9-2.2-2.9C0,54.6,0,3.1,0,3.1.3,1.8,2.6,0,3.5,0Z"/>
    </g>
  </g>
  <g id="_x3C_Ripetizione_specchio_x3E_1" data-name="_x3C_Ripetizione_specchio_x3E_">
    <g class="st1">
      <path class="st2" d="M79.2,0c-4.2,0-8.6,0-15.7,1.6-19.1,4.4-20.4,7.7-20.4,7.7v54c.7,3,4.7,1,5.1.8,3.8-1.9,14.5-5,22.6-5.5,3-.2,7.4.2,9.9-1.2,1.6-.9,2.2-2.9,2.2-2.9,0,0,0-51.5,0-51.5-.3-1.3-2.6-3-3.5-3Z"/>
    </g>
  </g>
</svg>