<?xml version="1.0" encoding="UTF-8"?>
<svg id="Livello_1" xmlns="http://www.w3.org/2000/svg" version="1.1" viewBox="0 0 54 54">
  <!-- Generator: Adobe Illustrator 30.1.0, SVG Export Plug-In . SVG Version: 2.1.1 Build 136)  -->
  <defs>
    <style>
      .st0 {
        fill: #2e76d9;
      }

      .st1 {
        fill: #3685f6;
      }

      .st2 {
        fill: #1c2d95;
      }
    </style>
  </defs>
  <path class="st2" d="M27.6,6.2h5.3c0,0,.2,0,.3,0h.2c0,0,.2,0,.3,0h.2c0,0,.2,0,.4,0h0c0,0,.3,0,.4.2h0c0,0,.3,0,.4.2h0c1.3.6,2.5,1.3,3.7,2.1h0c0,.1.3.2.4.3h0c0,.1.3.2.4.3h0c0,.1.3.2.4.3h0c0,.1.2.2.4.3h0c0,.1.2.2.4.3h0c0,.1.2.2.4.3h0c0,.1.2.2.4.4h0c3.6,3.7,5.9,8.8,5.9,14.4h6.2C54,12.2,42,.1,27.2,0v6.2h.4Z"/>
  <path class="st2" d="M15.3,44.2h0c-.2,0-.3-.2-.5-.3h0c-.2,0-.3-.2-.5-.3h0c-.5-.4-.9-.8-1.4-1.2h0c-.1,0-.3-.3-.4-.4h0c-.4-.4-.8-.9-1.2-1.3h0c-.1,0-.2-.3-.3-.4h0c-.3-.3-.5-.6-.7-1h0c-.1-.2-.2-.3-.3-.5h0c0,0-.2-.3-.3-.4h0c0-.2-.2-.3-.3-.5h0c-.1-.2-.2-.4-.3-.5h0c0-.2-.2-.3-.3-.5h0c0-.2-.1-.4-.2-.5h0c0-.2-.1-.4-.2-.6h0c0-.2-.2-.4-.2-.6h0c0-.2-.1-.3-.2-.5v-.2c0,0,0-.3,0-.4v-.2c0,0,0-.3,0-.4h0c0-.3,0-.5-.2-.7h0c0-.2,0-.3,0-.5v-2h0v-2.6H0c0,14.8,12,26.9,26.8,27v-6.2c-4.3,0-8.2-1.4-11.5-3.6v-.7Z"/>
  <path class="st0" d="M6.2,27.1h0c0-10.6,7.9-19.4,18.2-20.7.9,0,1.8-.2,2.7-.2s.2,0,.2,0V0h-.2C12.1,0,0,12.1,0,27s0,0,0,0h6.2Z"/>
  <path class="st0" d="M47.8,26.9h0c0,11.5-9.3,20.8-20.8,20.8s-.2,0-.2,0v6.2h.2c14.9,0,27-12.1,27-27s0,0,0,0c0,0-6.2,0-6.2,0Z"/>
  <rect class="st1" x="25.2" y="20.8" width="8.6" height="1"/>
  <path class="st2" d="M21.4,36.3c2.2-.7,3.5-2.5,3.1-4-.1-.4-.3-.7-.6-.9v-8.8h9.9v5.5c-.7,0-1.4,0-2.1.3-2.2.7-3.5,2.5-3.1,4,.1.5.5.8.9,1.1.9.6,2.4.7,3.9.2,2.2-.7,3.5-2.5,3.1-4,0-.4-.4-.8-.8-1v-11.7c0-.3,0-.5-.3-.7s-.4-.3-.7-.3h-11.8c-.3,0-.5,0-.7.3s-.3.4-.3.7v13.7c-.7,0-1.5,0-2.3.3-2.2.7-3.5,2.5-3.1,4,.1.5.5.8.9,1.1.9.6,2.4.7,3.9.2h.1ZM33.7,20.6h-9.9v-2.8h9.9v2.8Z"/>
</svg>