<?xml version="1.0" encoding="UTF-8"?>
<svg id="Livello_1" xmlns="http://www.w3.org/2000/svg" version="1.1" viewBox="0 0 54 54">
  <!-- Generator: Adobe Illustrator 30.1.0, SVG Export Plug-In . SVG Version: 2.1.1 Build 136)  -->
  <defs>
    <style>
      .st0 {
        fill: #f8cf6b;
      }

      .st1 {
        fill: #3685f6;
      }

      .st2 {
        fill: #1c2d95;
      }
    </style>
  </defs>
  <path class="st2" d="M48.8,19.8c-.5.2-.9.8-.7,1.3.5,1.9.8,3.9.8,5.9,0,3-.6,5.8-1.7,8.5-1.1,2.6-2.7,5-4.7,7-2,2-4.4,3.6-7,4.7-2.7,1.1-5.6,1.7-8.5,1.7s-5.8-.6-8.5-1.7c-2.6-1.1-5-2.7-7-4.7-2-2-3.6-4.4-4.7-7-1.1-2.7-1.7-5.6-1.7-8.5s.6-5.8,1.7-8.5c1.1-2.6,2.7-5,4.7-7s4.4-3.6,7-4.7c2.7-1.1,5.6-1.7,8.5-1.7s6.3.7,9.2,2c1.9.9,3.6,2,5.2,3.4l-1.8,1.8c-.9.9-.3,2.5,1,2.6l7.7.5c.9,0,1.7-.7,1.6-1.7l-.6-7.7c-.1-1.3-1.7-1.9-2.6-1l-1.8,1.8c-.6-.5-1.2-1-1.8-1.5-1.5-1.1-3.1-2.1-4.9-2.9-3.6-1.7-7.4-2.5-11.3-2.5s-7.2.7-10.5,2.1c-3.2,1.4-6.1,3.3-8.6,5.8-2.5,2.5-4.4,5.4-5.8,8.6-1.4,3.3-2.1,6.9-2.1,10.5s.7,7.2,2.1,10.5c1.4,3.2,3.3,6.1,5.8,8.6,2.5,2.5,5.4,4.4,8.6,5.8,3.3,1.4,6.9,2.1,10.5,2.1s7.2-.7,10.5-2.1c3.2-1.4,6.1-3.3,8.6-5.8,2.5-2.5,4.4-5.4,5.8-8.6,1.4-3.3,2.1-6.9,2.1-10.5s-.3-5-1-7.4c-.2-.6-.8-.9-1.4-.7l-2.8.9Z"/>
  <path class="st0" d="M27.4,11.1h-.7c-.2,0-.4-.2-.4-.4v-3.2c0-.2.2-.4.4-.4h.7c.2,0,.4.2.4.4v3.2c0,.2-.2.4-.4.4Z"/>
  <path class="st0" d="M11.1,26.6v.7c0,.2-.2.4-.4.4h-3.2c-.2,0-.4-.2-.4-.4v-.7c0-.2.2-.4.4-.4h3.2c.2,0,.4.2.4.4Z"/>
  <path class="st0" d="M26.6,42.9h.7c.2,0,.4.2.4.4v3.2c0,.2-.2.4-.4.4h-.7c-.2,0-.4-.2-.4-.4v-3.2c0-.2.2-.4.4-.4Z"/>
  <path class="st0" d="M42.9,27.4v-.7c0-.2.2-.4.4-.4h3.2c.2,0,.4.2.4.4v.7c0,.2-.2.4-.4.4h-3.2c-.2,0-.4-.2-.4-.4Z"/>
  <path class="st1" d="M36.2,24.7c-.2.3-.4.5-.7.6l-7.9,3.2c-.8.3-1.6,0-2-.8l-6.6-13.6c-.4-.8,0-1.7.7-2.1.8-.4,1.7,0,2.1.7l5.9,12.3,6.5-2.6c.8-.3,1.7,0,2,.9.2.5.1,1-.1,1.4Z"/>
</svg>