<?xml version="1.0" encoding="UTF-8"?>
<svg id="Livello_1" xmlns="http://www.w3.org/2000/svg" version="1.1" viewBox="0 0 54 54">
  <!-- Generator: Adobe Illustrator 30.1.0, SVG Export Plug-In . SVG Version: 2.1.1 Build 136)  -->
  <defs>
    <style>
      .st0 {
        fill: #2e76d9;
      }

      .st1 {
        fill: #f18636;
      }

      .st2 {
        fill: #1c2d95;
      }

      .st3 {
        fill: #ededed;
      }
    </style>
  </defs>
  <rect class="st0" y="7.8" width="54" height="39.9"/>
  <path class="st3" d="M39.8,6.2c-5.2,0-9.8.6-12.8,1.6v37.8c3.1-1,7.7-1.6,12.8-1.6s9.8.6,12.8,1.6V7.8c-3.1-1-7.7-1.6-12.8-1.6Z"/>
  <path class="st3" d="M14.2,6.2c-5.2,0-9.8.6-12.8,1.6v37.8c3.1-1,7.7-1.6,12.8-1.6s9.8.6,12.8,1.6V7.8c-3.1-1-7.7-1.6-12.8-1.6Z"/>
  <path class="st1" d="M17.7,30.7h-7.5l-1.4,4.6h-2.9l6.5-19.9h3.3l6.4,19.9h-2.9l-1.4-4.6h-.1ZM10.9,28.2h6l-3-10.1-3,10.1Z"/>
  <path class="st2" d="M32.5,35l10-17.1h-8.8v-2.4h12.9l.2.2-10,17.1h9.3v2.4h-13.4s-.2-.2-.2-.2Z"/>
</svg>