<?xml version="1.0" encoding="UTF-8"?>
<svg id="Livello_1" xmlns="http://www.w3.org/2000/svg" version="1.1" viewBox="0 0 54 54">
  <!-- Generator: Adobe Illustrator 30.1.0, SVG Export Plug-In . SVG Version: 2.1.1 Build 136)  -->
  <defs>
    <style>
      .st0 {
        fill: #1c2d95;
      }

      .st0, .st1, .st2, .st3 {
        fill-rule: evenodd;
      }

      .st1 {
        fill: #1f293a;
      }

      .st2 {
        fill: #2e76d9;
      }

      .st3 {
        fill: #6a768c;
      }
    </style>
  </defs>
  <path class="st3" d="M7.3,36.3h-.5c-.5-.2-.8-.6-.8-1.2v-4.1h-1.3C2,31-.1,28.8-.1,26.2V8.8c.1-2.7,2.3-4.8,4.9-4.8h24.4c2.7,0,4.8,2.2,4.8,4.8v10c0,.4-.4.8-.8.8s-.8-.4-.8-.8v-10c0-1.8-1.4-3.2-3.2-3.2H4.8c-1.8,0-3.2,1.4-3.2,3.2v17.3c0,1.8,1.4,3.2,3.2,3.2h2.1c.4,0,.8.4.8.8v4l4.6-4.6c.2-.2.4-.2.6-.2h8c.4,0,.8.4.8.8s-.4.8-.8.8h-7.7l-5,5c-.2.2-.6.4-.9.4Z"/>
  <path class="st1" d="M10.6,25.7h-.3c-.4-.2-.6-.7-.4-1.1l6.4-13.9c.1-.3.4-.5.7-.5h0c.3,0,.6.2.7.5l4.5,9.3c.2.4,0,.9-.4,1.1s-.9,0-1.1-.4l-3.7-7.8-5.7,12.3c-.1.3-.4.5-.7.5Z"/>
  <path class="st1" d="M21.2,20.7h-8.3c-.4,0-.8-.4-.8-.8s.4-.8.8-.8h8.3c.4,0,.8.4.8.8s-.4.8-.8.8Z"/>
  <path class="st2" d="M43.1,29.4h-13c-.4,0-.8-.4-.8-.8s.4-.8.8-.8h13c.4,0,.8.4.8.8s-.4.8-.8.8Z"/>
  <path class="st2" d="M36.8,29.4c-.4,0-.8-.4-.8-.8v-3.8c0-.4.4-.8.8-.8s.8.4.8.8v3.8c0,.4-.4.8-.8.8Z"/>
  <path class="st2" d="M30.8,39.7c-.4,0-.8-.3-.8-.7s.3-.9.7-.9c3.5-.4,6.2-1.6,8.1-3.7,1.4-1.6,1.8-3.1,1.8-3.1,0-.4.5-.7,1-.6.4.1.7.5.6,1,0,0-.4,1.8-2.1,3.7-1.5,1.7-4.3,3.8-9.2,4.3h-.1Z"/>
  <path class="st2" d="M42.1,39.5c-5.7,0-9.5-6.2-9.6-6.5-.2-.4,0-.9.3-1.1.4-.2.9,0,1.1.3h0s3.4,5.7,8.2,5.7h0c.4,0,.8.4.8.8s-.4.8-.8.8h-.2.1Z"/>
  <path class="st0" d="M24.3,19.6c-1.5,0-2.7,1.2-2.7,2.7v18.3c0,1.5,1.2,2.7,2.7,2.7h16.8c.2,0,.4,0,.6.2l4.6,4.6v-4c0-.4.4-.8.8-.8h2.6c1.5,0,2.7-1.2,2.7-2.7v-18.3c0-1.5-1.2-2.7-2.7-2.7,0,0-25.4,0-25.4,0ZM46.5,50c-.4,0-.7,0-1-.4l-4.7-4.8h-16.5c-2.4,0-4.3-1.9-4.3-4.3v-18.3c0-2.4,1.9-4.3,4.3-4.3h25.4c2.4,0,4.3,1.9,4.3,4.3v18.3c0,2.4-1.9,4.3-4.3,4.3h-1.8v3.8c0,.6-.3,1.1-.9,1.3-.2,0-.4,0-.5.1Z"/>
</svg>