<?xml version="1.0" encoding="UTF-8"?>
<svg id="Livello_1" xmlns="http://www.w3.org/2000/svg" version="1.1" viewBox="0 0 54 54">
  <!-- Generator: Adobe Illustrator 30.1.0, SVG Export Plug-In . SVG Version: 2.1.1 Build 136)  -->
  <defs>
    <style>
      .st0 {
        fill: #6a768c;
      }

      .st1 {
        fill: #f18636;
      }

      .st2 {
        fill: #e4e7e9;
      }

      .st3 {
        fill: #1c2d95;
      }
    </style>
  </defs>
  <circle class="st2" cx="27.1" cy="27" r="22.1"/>
  <path class="st3" d="M41.9,44.7c-.4-.4-1.1-.5-1.5-.2-1.6,1.2-3.3,2.2-5.2,2.9-2.8,1.1-5.6,1.6-8.5,1.6s-5.6-.6-8.2-1.7-5-2.7-7-4.7c-2-2.1-3.7-4.6-4.8-7.2s-1.6-5.6-1.6-8.5.6-5.6,1.7-8.2,2.7-5,4.7-7c2.1-2,4.6-3.7,7.2-4.8s5.6-1.6,8.5-1.6,5.6.6,8.2,1.7,5,2.7,7,4.7c2,2.1,3.7,4.6,4.8,7.2,1.1,2.7,1.7,6.1,1.6,9.3,0,2.1-.5,4.1-1.2,6.1l4.7,1.9c.2-.7.5-1.5.7-2.2.5-1.8.8-3.7.9-5.6.2-4-.4-7.8-1.9-11.4s-3.3-6.4-5.9-9c-2.5-2.4-5.3-4.4-8.6-5.8S31,0,27.5,0s-7.2.6-10.5,2c-3.3,1.4-6.4,3.3-9,5.9-2.4,2.5-4.4,5.3-5.8,8.6S0,23.1,0,26.6s.6,7.2,2,10.5c1.4,3.3,3.3,6.4,5.9,9,2.5,2.4,5.3,4.4,8.6,5.8s6.7,2.1,10.1,2.2c3.6,0,7.2-.6,10.5-2s4.5-2.1,6.5-3.7c.5-.4.5-1.1,0-1.6l-1.9-2.3h0v.2h.2Z"/>
  <path class="st2" d="M13.5,3.5l-1.7,1.2-4.3,3.5L0,10.2v17.6s.2,4.7.2,4.7l6.4-.2,5.4-19,2.4.7,5.5-5.7-2.3-7.3-4.1,2.6Z"/>
  <polygon class="st2" points="33.6 44.8 34.5 45.6 29.6 54 54 54 54 24.1 53.9 22.9 33.3 22.8 33.6 44.8"/>
  <g id="Livello_11" data-name="Livello_1">
    <path class="st1" d="M17.9,23.1H6.6l-2.1,6.9H.1L9.9,0h5l9.6,30h-4.4l-2.1-6.9h-.2.1ZM7.6,19.3h9l-4.5-15.2s-4.5,15.2-4.5,15.2Z"/>
    <path class="st0" d="M32.2,53.7l15.2-26h-13.4v-3.7h19.6l.3.3-15.2,26h14.2v3.7h-20.4l-.3-.3Z"/>
    <rect class="st0" x="19.3" y="36.1" width="10.8" height="3.8"/>
  </g>
</svg>