<?xml version="1.0" encoding="UTF-8"?>
<svg xmlns="http://www.w3.org/2000/svg" version="1.1" viewBox="0 0 54 54">
  <!-- Generator: Adobe Illustrator 30.1.0, SVG Export Plug-In . SVG Version: 2.1.1 Build 136)  -->
  <defs>
    <style>
      .st0 {
        fill: #f8cf6b;
      }

      .st0, .st1, .st2 {
        fill-rule: evenodd;
      }

      .st1, .st3 {
        fill: #1c2d95;
      }

      .st4 {
        fill: #e4e7e9;
      }

      .st2 {
        fill: #6a768c;
      }
    </style>
  </defs>
  <g id="Livello_3">
    <circle class="st4" cx="27" cy="27" r="21.9"/>
    <path class="st3" d="M41.8,44.7c-.4-.4-1.1-.5-1.5-.2-1.6,1.2-3.3,2.2-5.2,2.9-2.8,1.1-5.6,1.6-8.5,1.6-2.8,0-5.6-.6-8.2-1.7s-5-2.7-7-4.7c-2-2.1-3.7-4.6-4.8-7.2s-1.6-5.6-1.6-8.5c0-2.8.6-5.6,1.7-8.2s2.7-5,4.7-7c2.1-2,4.6-3.7,7.2-4.8s5.6-1.6,8.5-1.6c2.8,0,5.6.6,8.2,1.7s5,2.7,7,4.7c2,2.1,3.7,4.6,4.8,7.2,1.1,2.7,1.7,6.1,1.6,9.3-.1,2.1-.5,4.1-1.2,6.1l4.7,1.9c.2-.7.5-1.5.7-2.2.5-1.8.8-3.7.9-5.6.2-4-.4-7.8-1.9-11.4s-3.3-6.4-5.9-9c-2.5-2.4-5.3-4.4-8.6-5.8S30.9,0,27.4,0c-3.6,0-7.2.6-10.5,2s-6.4,3.3-9,5.9c-2.4,2.5-4.4,5.3-5.8,8.6S0,23.1,0,26.6c0,3.6.6,7.2,2,10.5s3.3,6.4,5.9,9c2.5,2.4,5.3,4.4,8.6,5.8s6.7,2.1,10.1,2.2c3.6,0,7.2-.6,10.5-2s4.5-2.1,6.5-3.7c.5-.4.5-1.1.1-1.6l-1.9-2.3h0Z"/>
    <path class="st4" d="M33.2,7.4l-.4-4.2-3-2.6H11.7L3.6,1l-2.3,1.5-.5,2.7s-.6,5.1-.5,5.1.7,7.1.7,7.1l.2,6.7,2.3,1.8,3.3.4v2.6c.1,0,.2,2.6.2,2.6l6-5.2h7.6l12.6-11.2v-7.7Z"/>
  </g>
  <g id="Livello_1">
    <polygon class="st4" points="22 23.5 20.4 27.1 20.6 34.4 20.6 43.7 21.7 47.2 26.8 48.2 37 48.1 41 48.1 46.2 53 47.3 51.7 47.1 48.1 51.7 47.4 53.5 44.1 53.3 25.5 50.9 22.6 26.7 22.5 22 23.5"/>
    <path class="st2" d="M7.4,32.3h-.5c-.5-.2-.8-.6-.8-1.2v-4.1h-1.3c-2.7,0-4.8-2.2-4.8-4.8V4.8C0,2.1,2.3,0,4.9,0h24.4C32,0,34.1,2.2,34.1,4.8v10c0,.4-.4.8-.8.8s-.8-.4-.8-.8V4.8c0-1.8-1.4-3.2-3.2-3.2H4.9c-1.8,0-3.2,1.4-3.2,3.2v17.3c0,1.8,1.4,3.2,3.2,3.2h2.1c.4,0,.8.4.8.8v4l4.6-4.6c.2-.2.4-.2.6-.2h8c.4,0,.5.4.5.8s0,.8-.5.8h-7.7l-5,5c-.2.2-.6.4-.9.4Z"/>
    <path class="st2" d="M10.7,21.7h-.3c-.4-.2-.6-.7-.4-1.1l6.4-13.9c.1-.3.4-.5.7-.5h0c.3,0,.6.2.7.5l4.5,9.3c.2.4,0,.9-.4,1.1s-.9,0-1.1-.4l-3.7-7.8-5.7,12.3c-.1.3-.4.5-.7.5Z"/>
    <path class="st2" d="M21.3,16.7h-8.3c-.4,0-.8-.4-.8-.8s.4-.8.8-.8h8.3c.4,0,.8.4.8.8s-.4.8-.8.8Z"/>
    <path class="st1" d="M43.1,29.4h-13c-.4,0-.8-.4-.8-.8s.4-.8.8-.8h13c.4,0,.8.4.8.8s-.4.8-.8.8Z"/>
    <path class="st1" d="M36.8,33.4c-.4,0-.8-.4-.8-.8v-3.8c0-.4.4-.8.8-.8s.8.4.8.8v3.8c0,.4-.4.8-.8.8Z"/>
    <path class="st1" d="M30.8,43.7c-.4,0-.8-.3-.8-.7s.3-.9.7-.9c3.5-.4,6.2-1.6,8.1-3.7,1.4-1.6,1.8-3.1,1.8-3.1,0-.4.5-.7,1-.6.4.1.7.5.6,1,0,0-.4,1.8-2.1,3.7-1.5,1.7-4.3,3.8-9.2,4.3,0,0-.1,0-.1,0Z"/>
    <path class="st1" d="M42.1,43.5c-5.7,0-9.5-6.2-9.6-6.5-.2-.4,0-.9.3-1.1.4-.2.9,0,1.1.3h0s3.4,5.7,8.2,5.7h0c.4,0,.8.4.8.8s-.4.8-.8.8h-.2.2Z"/>
    <path class="st0" d="M24.3,23.6c-1.5,0-2.7,1.2-2.7,2.7v18.3c0,1.5,1.2,2.7,2.7,2.7h16.8c.2,0,.4,0,.6.2l4.6,4.6v-4c0-.4.4-.8.8-.8h2.6c1.5,0,2.7-1.2,2.7-2.7v-18.3c0-1.5-1.2-2.7-2.7-2.7,0,0-25.4,0-25.4,0ZM46.5,54c-.4,0-.7,0-1-.4l-4.7-4.8h-16.5c-2.4,0-4.3-1.9-4.3-4.3v-18.3c0-2.4,1.9-4.3,4.3-4.3h25.4c2.4,0,4.3,1.9,4.3,4.3v18.3c0,2.4-1.9,4.3-4.3,4.3h-1.8v3.8c0,.6-.3,1.1-.9,1.3-.2,0-.4,0-.5.1Z"/>
  </g>
</svg>