<?xml version="1.0" encoding="UTF-8"?>
<svg id="Livello_1" xmlns="http://www.w3.org/2000/svg" version="1.1" viewBox="0 0 54 54">
  <!-- Generator: Adobe Illustrator 30.1.0, SVG Export Plug-In . SVG Version: 2.1.1 Build 136)  -->
  <defs>
    <style>
      .st0 {
        fill: #ea3442;
      }
    </style>
  </defs>
  <path class="st0" d="M46.1,7.9c-1.2-1.2-2.5-2.3-3.9-3.2-1-.7-2.3-.4-3,.6-.7,1-.4,2.3.6,3,1.2.8,2.2,1.7,3.2,2.7,4.3,4.3,6.6,10,6.6,16,0,12.5-10.2,22.7-22.7,22.7S4.3,39.5,4.3,27,14.5,4.3,27,4.3s2.2-1,2.2-2.2-1-2.2-2.2-2.2C12.1,0,0,12.1,0,27s12.1,27,27,27,27-12.1,27-27c0-7.2-2.8-14-7.9-19.1Z"/>
  <path class="st0" d="M20.4,13.7c-1.9-1.9-4.9-1.9-6.7,0-1.9,1.9-1.9,4.9,0,6.7l6.6,6.6-6.6,6.6c-1.9,1.9-1.9,4.9,0,6.7.9.9,2.1,1.4,3.4,1.4s2.4-.5,3.4-1.4l6.6-6.6,6.6,6.6c.9.9,2.1,1.4,3.4,1.4s2.4-.5,3.4-1.4c1.9-1.9,1.9-4.9,0-6.7l-6.6-6.6,6.6-6.6c1.9-1.9,1.9-4.9,0-6.7-1.9-1.9-4.9-1.9-6.7,0l-6.6,6.6-6.6-6.6Z"/>
</svg>