<?xml version="1.0" encoding="UTF-8"?>
<svg id="Livello_1" xmlns="http://www.w3.org/2000/svg" version="1.1" viewBox="0 0 79.5 85.4">
  <!-- Generator: Adobe Illustrator 30.1.0, SVG Export Plug-In . SVG Version: 2.1.1 Build 136)  -->
  <defs>
    <style>
      .st0 {
        fill: #fff;
      }

      .st1 {
        fill: none;
        stroke: #0b0e91;
        stroke-miterlimit: 10;
      }

      .st2 {
        fill: #0b0e91;
      }
    </style>
  </defs>
  <g>
    <path class="st2" d="M69.3,60.7h6c2.4,0,4.3,1.9,4.3,4.3v16.2c0,2.4-1.9,4.3-4.3,4.3H4.3c-2.4,0-4.3-1.9-4.3-4.3v-16.2c0-2.4,1.9-4.3,4.3-4.3h65M21.6,70.2h-10.5c-.7,0-1.3.6-1.3,1.3v2.4c0,.7.6,1.3,1.3,1.3h57.3c.7,0,1.3-.6,1.3-1.3v-2.4c0-.7-.6-1.3-1.3-1.3h-10.5M57.9,70.2H21.6"/>
    <path class="st0" d="M77.4,37.4c0,14.1-7.8,26.4-19.4,32.8-5.4,3-11.6,4.6-18.2,4.6-20.8,0-37.6-16.8-37.6-37.4S19,0,39.8,0s37.6,16.8,37.6,37.4Z"/>
  </g>
  <path class="st2" d="M39.7,56.2c-1.9,0-3.7-.2-5.6-.6-1.9-.4-3.6-1-5.1-1.6-1.5-.7-2.6-1.4-3.2-2.1l3.5-5.5c1.4,1.1,3,2,4.8,2.6s3.7.9,5.6.9,3.7-.4,4.9-1.1c1.2-.7,1.7-1.8,1.7-3.1h0c0-1.1-.3-1.8-.9-2.4-.6-.5-1.3-1-2.3-1.2-.9-.3-2-.5-3.1-.7-1.4-.2-2.9-.5-4.3-.8-1.5-.3-2.8-.8-4-1.5-1.2-.7-2.2-1.7-3-3-.8-1.3-1.1-3-1.1-5.2h0c0-3.5,1.2-6.2,3.6-8.1,2.4-1.9,5.7-2.9,10.1-2.9s4,.3,6,1,4,1.6,5.7,2.8l-3.2,5.7c-1.4-1-2.8-1.7-4.3-2.2-1.5-.5-2.9-.8-4.3-.8s-3.5.3-4.5,1c-1.1.7-1.6,1.6-1.6,2.9h0c0,1.2.3,2,1,2.6.6.6,1.5,1,2.5,1.3,1.1.3,2.2.5,3.4.8,1.4.3,2.8.6,4.2,1,1.4.4,2.7.9,3.8,1.7,1.1.7,2.1,1.7,2.8,3,.7,1.3,1,2.9,1,4.9h0c0,3.5-1.2,6.1-3.7,8s-5.9,2.8-10.4,2.8ZM36.7,21.4v-5.6h7.5v5.6h-7.5ZM36.7,60.1v-5.9h7.5v5.9h-7.5Z"/>
  <circle class="st1" cx="39.8" cy="38" r="32.1"/>
</svg>