<?xml version="1.0" encoding="UTF-8"?>
<svg id="Livello_1" xmlns="http://www.w3.org/2000/svg" xmlns:xlink="http://www.w3.org/1999/xlink" version="1.1" viewBox="0 0 79.1 77.3">
  <!-- Generator: Adobe Illustrator 30.1.0, SVG Export Plug-In . SVG Version: 2.1.1 Build 136)  -->
  <defs>
    <style>
      .st0 {
        fill: none;
      }

      .st1 {
        clip-path: url(#clippath-1);
      }

      .st2 {
        fill: #0b0e91;
      }

      .st3 {
        fill: #06178c;
      }

      .st4 {
        clip-path: url(#clippath);
      }
    </style>
    <clipPath id="clippath">
      <polygon class="st0" points="43.4 22.8 43.4 22.8 61.3 22.8 61.3 35.3 43.4 35.3 43.4 22.8"/>
    </clipPath>
    <clipPath id="clippath-1">
      <polygon class="st0" points="35.7 22.9 35.7 22.9 17.8 23.3 18.1 35.8 35.9 35.4 35.7 22.9"/>
    </clipPath>
  </defs>
  <path class="st2" d="M79.1,38.6c0,21.3-17.7,38.6-39.5,38.6S0,60,0,38.6,17.7,0,39.5,0s39.5,17.3,39.5,38.6h0ZM39.9,6.5C22,6.5,7.5,21,7.5,38.9s14.5,32.4,32.4,32.4,32.4-14.5,32.4-32.4S57.8,6.5,39.9,6.5Z"/>
  <g>
    <g id="_x3C_Ripetizione_specchio_x3E_">
      <g class="st4">
        <path class="st3" d="M52.3,28.9s-3.1,0-4.6,2.6c-.5.6-1.8,3.7-3,3.8-.4,0-1.1-.6-1.2-1.2-.2-1.4.8-4.2,1.5-5.7,1-2,2.6-3.8,4.2-4.7,1.2-.9,3-.9,3-.9,3.4.2,8.7,5.2,9.1,10.1.3,3.1-2.5,1.9-2.8,1.3-2.6-6-6.2-5.3-6.2-5.3Z"/>
      </g>
    </g>
    <g id="_x3C_Ripetizione_specchio_x3E_1">
      <g class="st1">
        <path class="st3" d="M27,29.2s3.1,0,4.7,2.5c.5.6,1.9,3.7,3.1,3.7s1.1-.6,1.2-1.2c.2-1.4-.9-4.2-1.6-5.7-1-2-2.6-3.8-4.3-4.6-1.2-.9-3-.8-3-.8-3.4.3-8.6,5.4-8.9,10.3-.2,3.1,2.5,1.9,2.8,1.2,2.5-6,6.1-5.4,6.1-5.4,0,0-.1,0-.1,0Z"/>
      </g>
    </g>
  </g>
  <path class="st3" d="M39.5,60.6c-8.6,0-16.1-5-18.7-12.5-.2-.6,0-1.3.5-1.6.5-.3,1,0,1.2.6,2.2,6.5,9.2,11.1,17,11.1s14.8-4.5,17-11.1c.2-.6.8-.9,1.2-.6.5.3.7,1,.5,1.6-2.6,7.5-10.1,12.5-18.7,12.5Z"/>
</svg>