<?xml version="1.0" encoding="UTF-8"?>
<svg id="Livello_1" xmlns="http://www.w3.org/2000/svg" version="1.1" viewBox="0 0 54 54">
  <!-- Generator: Adobe Illustrator 30.1.0, SVG Export Plug-In . SVG Version: 2.1.1 Build 136)  -->
  <defs>
    <style>
      .st0 {
        fill: none;
      }

      .st1 {
        fill: #031091;
      }

      .st2 {
        fill: #2e76d9;
      }

      .st3 {
        fill: #fff;
      }

      .st4 {
        fill: #1c2d95;
      }
    </style>
  </defs>
  <path class="st0" d="M18,20.2h19.5c1.3,0,2.7-1.3,2.7-2.6V2.7s-24.9,0-24.9,0v15c0,1.3,1.3,2.5,2.6,2.5ZM30.9,5h5.1c.8,0,1.5.7,1.5,1.5v10c0,.8-.7,1.5-1.5,1.5h-5.1c-.8,0-1.5-.7-1.5-1.5V6.5c0-.8.7-1.5,1.5-1.5Z"/>
  <path class="st2" d="M46,1.3c-.8-.8-2.3-1.3-3.4-1.3C41.4,0,4.5,0,4.5,0,2,0,0,2,0,4.4v45.2c0,2.4,2,4.4,4.5,4.4h45c2.5,0,4.5-2,4.5-4.4,0,0,0-38.4,0-39,0-1-.2-1.7-.9-2.3-.4-.4-4.9-4.7-7.1-6.9ZM40.3,2.7v15c0,1.3-1.4,2.5-2.7,2.5h-19.5c-1.3,0-2.6-1.2-2.6-2.5V2.7s24.8,0,24.8,0ZM46.4,52.1H7.6v-5.1h0v-19.8c0-1.6,1.3-2.8,2.8-2.8h33.2c1.6,0,2.8,1.3,2.8,2.8v19.8h0v5.1h0Z"/>
  <path class="st4" d="M30.9,17.9h5.1c.8,0,1.5-.7,1.5-1.5V6.5c0-.8-.7-1.5-1.5-1.5h-5.1c-.8,0-1.5.7-1.5,1.5v10c0,.8.7,1.5,1.5,1.5Z"/>
  <path class="st3" d="M43.6,24.4H10.4c-1.6,0-2.8,1.3-2.8,2.8v19.8h38.9v-19.8c0-1.6-1.3-2.8-2.8-2.8ZM42.9,41.1H11.1v-1.4h31.8v1.4ZM42.9,36.9H11.1v-1.4h31.8v1.4ZM42.9,32.7H11.1v-1.4h31.8v1.4Z"/>
  <rect class="st1" x="11.1" y="31.3" width="31.8" height="1.4"/>
  <rect class="st1" x="11.1" y="39.7" width="31.8" height="1.4"/>
</svg>