<?xml version="1.0" encoding="UTF-8"?>
<svg id="Livello_1" xmlns="http://www.w3.org/2000/svg" version="1.1" viewBox="0 0 41 54">
  <!-- Generator: Adobe Illustrator 30.1.0, SVG Export Plug-In . SVG Version: 2.1.1 Build 136)  -->
  <defs>
    <style>
      .st0 {
        fill: #fff;
      }

      .st1 {
        fill: #1c2d95;
      }
    </style>
  </defs>
  <polygon class="st0" points="32.5 51.7 38.7 45.8 32.5 45.8 32.5 51.7"/>
  <path class="st1" d="M32.4,34.7c1.2,1.2,1.2,3,0,4.2-.6.6-1.3.9-2.1.9s-1.5-.3-2.1-.9l-7.7-7.7-7.7,7.7c-.6.6-1.3.9-2.1.9s-1.5-.3-2.1-.9c-1.2-1.2-1.2-3,0-4.2l7.7-7.7-7.7-7.7c-1.2-1.2-1.2-3,0-4.2s3-1.2,4.2,0l7.7,7.7,7.7-7.7c1.2-1.2,3-1.2,4.2,0s1.2,3,0,4.2l-7.7,7.7,7.7,7.7Z"/>
</svg>