<?xml version="1.0" encoding="UTF-8"?>
<svg id="Livello_1" xmlns="http://www.w3.org/2000/svg" version="1.1" viewBox="0 0 54 54">
  <!-- Generator: Adobe Illustrator 30.1.0, SVG Export Plug-In . SVG Version: 2.1.1 Build 136)  -->
  <defs>
    <style>
      .st0 {
        fill: #fff;
      }

      .st1 {
        fill: #991c00;
      }
    </style>
  </defs>
  <path class="st1" d="M11.1,42.4c6.4,6.2,13.4,11.9,15.7,11.6.7,0,1.7-.7,2.9-1.6,2.8-2,6.8-5.7,10.7-9.6s7.6-7.9,10.2-10.9c2-2.3,3.2-3.9,3.3-4.3.2-1-7-9-14.1-16.1C33.9,5.5,28,.2,26.5,0,23.2-.4-.4,24.2-1,27.5c-.3,1.5,4.6,7.4,10.4,13.2.6.6,1.2,1.1,1.7,1.7Z"/>
  <path class="st1" d="M50.7,31.9c-2.6,3-6.4,7.1-10.2,10.9s-7.9,7.6-10.7,9.6l-14.2-14.2,20.2-21.4,14.9,15Z"/>
  <path class="st0" d="M39,34.8c1.2,1.2,1.2,3.1,0,4.2-.6.6-1.4.9-2.1.9s-1.5-.3-2.1-.9l-7.8-7.8-7.8,7.8c-.6.6-1.4.9-2.1.9s-1.5-.3-2.1-.9c-1.2-1.2-1.2-3.1,0-4.2l7.8-7.8-7.8-7.8c-1.2-1.2-1.2-3.1,0-4.2,1.2-1.2,3.1-1.2,4.2,0l7.8,7.8,7.8-7.8c1.2-1.2,3.1-1.2,4.2,0,1.2,1.2,1.2,3.1,0,4.2l-7.8,7.8,7.8,7.8Z"/>
</svg>