<?xml version="1.0" encoding="UTF-8"?>
<svg id="Livello_1" xmlns="http://www.w3.org/2000/svg" version="1.1" viewBox="0 0 54 54">
  <!-- Generator: Adobe Illustrator 30.1.0, SVG Export Plug-In . SVG Version: 2.1.1 Build 136)  -->
  <defs>
    <style>
      .st0 {
        fill: #101b56;
      }

      .st1 {
        fill: #fff;
      }
    </style>
  </defs>
  <path class="st0" d="M14.8,39.4c5.1,5,10.6,9.6,12.4,9.3.6,0,1.4-.6,2.3-1.3,2.2-1.6,5.4-4.6,8.4-7.7s6-6.3,8-8.7c1.6-1.8,2.5-3.1,2.6-3.5.2-.8-5.5-7.2-11.2-12.9-4.6-4.8-9.2-9.1-10.4-9.2-2.6-.3-21.3,19.4-21.7,22.1-.2,1.2,3.6,5.9,8.2,10.6.5.5,1,.9,1.4,1.4h0Z"/>
  <path class="st0" d="M46,30.9c-2.1,2.4-5.1,5.7-8.2,8.7s-6.3,6.1-8.6,7.7l-11.4-11.4,16.2-17.2,12,12h0Z"/>
  <path class="st1" d="M36.6,33.3c1,1,1,2.5,0,3.4-.5.5-1.1.7-1.7.7s-1.2-.2-1.7-.7l-6.3-6.3-6.3,6.3c-.5.5-1.1.7-1.7.7s-1.2-.2-1.7-.7c-1-1-1-2.5,0-3.4l6.3-6.3-6.3-6.3c-1-1-1-2.5,0-3.4,1-1,2.5-1,3.4,0l6.3,6.3,6.3-6.3c1-1,2.5-1,3.4,0,1,1,1,2.5,0,3.4l-6.3,6.3s6.3,6.3,6.3,6.3Z"/>
</svg>