<?xml version="1.0" encoding="UTF-8"?>
<svg id="Livello_1" xmlns="http://www.w3.org/2000/svg" version="1.1" viewBox="0 0 54 54">
  <!-- Generator: Adobe Illustrator 30.1.0, SVG Export Plug-In . SVG Version: 2.1.1 Build 136)  -->
  <defs>
    <style>
      .st0 {
        fill: #3685f6;
      }

      .st1 {
        fill: #1c2d95;
      }
    </style>
  </defs>
  <path class="st0" d="M45.6,19.4c-.1-1.4,1,0,1.1,5.6v-4.2c.1-1.4.3,0,.6,0,0,1.4,0,2.8.1,2.8h.4v-2.8c0,0,.4,0,.6,0,.1,2.8.3,2.8.3,0,.1,1.4.2,1.4.4,1.4.1,4.2.1,12.7.1,11.3.3,1.4.3,3.9.3,6.5,0,1.3,0,2.7,0,4,0,.3,0,.6,0,1,0,.5,0,1,0,1.4,0,1,0,2,0,3,0,.2,0,.5,0,.7-2.4,0-4.9,0-7.4,0-1.8,0-3.7,0-5.5,0-3.7,0-7.6,0-11.4,0-3.8,0-7.7,0-11.4,0-1.9,0-3.7,0-5.6,0-2.6,0-5.1,0-7.6,0,0,0,0,0,0,0,0-1.4,0-2.8,0-4.3,0-.3,0-.7,0-1v-.6c0-.4,0-.8,0-1.2,0-1.6,0-3.2,0-4.7,0-3.2,0-6.4-.1-9.6,0-3.2,0-6.5,0-9.7,0-1.6,0-3.2,0-4.8,0-2.5,0-5.1,0-7.6,5.5,0,11,0,16.4,0,0,.2-1.4.6,0,.7,5.6.3,5.6.8,5.6,1.2s-4.2,0-2.8.2c-4.2,0-4.4.1-.2.3,1.4.2.2,0,1.6.3,1.4.3-1.4.7,0,1h1.7c1.4.2-.5,1.4-1.3,1.4,0,0-5.6,0-8.8,0-1.6,0-3.1,0-4.7,0h-1.2s-.6,0-.6,0h-.1s0,0,0,0h0s-.2,0-.2,0v.2s0,0,0,0h0s0,0,0,0h0c0,.1,0,.7,0,.7v1.2c0,1.6,0,3.2,0,4.8,0,3.2,0,6.4,0,9.6,0,3.2,0,6.4,0,9.6v4.8s0,2,0,2c0,0,0,0,0,0,0,0,0,0,0,0h2.8c1.9,0,3.7,0,5.6,0,3.7,0,7.5,0,11.2,0,3.7,0,7.4,0,11.2,0,1.9,0,3.7,0,5.6,0,.9,0,1.8,0,2.8,0h0s0,0,0,0h0s0-.8,0-.8c0-1.2,0-2.4,0-3.6,0-2.4,0-4.8,0-7.1,0-4.8,0-8.7,0-13.5l.9-.8Z"/>
  <path class="st1" d="M51.5,7.6l-.7.4-.3.2c-.1,0-.2.1-.3.2l-1.3.8c-3.4,2.2-6.6,4.7-9.6,7.5-1.5,1.4-3,2.8-4.4,4.3-1.4,1.5-2.8,3-4.1,4.6-1.3,1.6-2.6,3.2-3.8,4.8l-.5.6-.2.3-.4.5-.4.6-.2.3c0,0-.1.2-.2.3l-.9,1.3c0,.1-.1.2-.2.3l-.2.4-.4.7-.9,1.4c-.6.9-1.2,1.9-1.7,2.8-.6-1.6-1.2-3.2-1.8-4.8l-.2-.6c0-.1,0-.2-.1-.3v-.3c-.1,0-.4-.5-.4-.5v-.3c-.1,0-.2-.1-.2-.1h0c0,0,0-.1,0-.1l-.5-.9c0-.2-.2-.3-.3-.4l-.2-.3c-.7-1-1.5-2-2.4-2.9-1.7-1.9-3.7-3.7-5.7-5.4-.2-.2-.4-.4-.5-.5-.1-.1-.2-.2-.2-.3,0,0,0-.1,0-.1,0,0,0,0,0,0,0,0,0,0,0,0,0,0,0,0,0,0,.4,0,1.2.5,2,1-.5-.3-.3-.6-.9-.9.1-.1.5-.1,1.1.1.6.2,1.4.7,2.4,1.5-.5-.4-.9-.8-1.4-1.2-.4-.5.2-.3.4-.4.5.4.9.8,1,.7,0,0,.2-.3.3-.3-.5-.4-1.4-1.3-1.9-1.7.5.4,1,.8,1,.7,0,0,.2-.3.3-.3.5.4,1.1.9,1.7,1.5.6.6,1.1,1.1,1.6,1.6l.2-.2c-.4-.5-1-1.1-1.6-1.6-.6-.5-1.2-1-1.7-1.5.6.3.6.3.8,0,.8.6,1.5,1.3,2.1,2,.7.7,1.4,1.4,2.2,2-.4-.5-.9-1-1.4-1.4.7.3,1.5,1.1,2.3,2,.2.2.4.5.6.7,0,.1.2.3.3.4,0,.1.2.3.3.4.2.2.4.5.5.7,0,.1.2.2.3.3,0,0,0,.1.1.2,0,0,0,0,0,0h0s0,0,0,0h0c.2.2.4.4.5.6h0c0,0,0,0,0,0h0s0-.1,0-.1c0,0,0-.1.1-.2,0,0,0-.1.1-.2v-.2c.4-.4.7-.8,1-1.2.4-.6.9-1.1,1.3-1.7,1.8-2.2,3.6-4.3,5.2-6.3,1.2-1.5,2.5-3,4-4.4.2-.2.4-.4.5-.5l.5-.5c.4-.4.7-.7,1.1-1.1.4-.3.7-.7,1.1-1l.3-.3.3-.3.6-.5c.8-.7,1.6-1.3,2.4-1.9.4-.3.8-.6,1.2-.9.2-.2.4-.3.6-.5.2-.2.4-.3.6-.4.4-.3.8-.6,1.2-.9.4-.3.8-.6,1.3-.8.2-.1.4-.3.6-.4.2-.1.4-.3.6-.4.4-.3.8-.5,1.3-.8.1.2-.3.8.3.6,1.2-.5,1.9-.6,2.3-.6.4,0,.5.2.6.4,0,.2-1.7,1.4-1,1.3,0,0,.5-.2.9-.2.7,0-.2.9.5.9.1,0,.3-.2.5-.3.2,0,.4-.2.6-.3.4-.2.8-.4,1.1-.6.6,0,0,1.6.5,1.3l-2.5,1.4Z"/>
</svg>