<?xml version="1.0" encoding="UTF-8"?>
<svg id="Livello_1" xmlns="http://www.w3.org/2000/svg" version="1.1" viewBox="0 0 54 54">
  <!-- Generator: Adobe Illustrator 30.1.0, SVG Export Plug-In . SVG Version: 2.1.1 Build 136)  -->
  <defs>
    <style>
      .st0 {
        fill: #1c2d95;
      }
    </style>
  </defs>
  <path class="st0" d="M47.6,12.9l-.7.4-.3.2c0,0-.2.1-.3.2l-1.3.8c-3.4,2.2-6.6,4.7-9.6,7.5-1.5,1.4-3,2.8-4.4,4.3s-2.8,3-4.1,4.6c-1.3,1.6-2.6,3.2-3.8,4.8l-.5.6-.2.3-.4.5-.4.6-.2.3s-.1.2-.2.3l-.9,1.3c0,0-.1.2-.2.3l-.2.4-.4.7-.9,1.4c-.6.9-1.2,1.9-1.7,2.8-.6-1.6-1.2-3.2-1.8-4.8l-.2-.6c0,0,0-.2-.1-.3v-.3c-.1,0-.4-.5-.4-.5v-.3c-.1,0-.2,0-.2,0h0c0,0-.5-1-.5-1,0-.2-.2-.3-.3-.4l-.2-.3c-.7-1-1.5-2-2.4-2.9-1.7-1.9-3.7-3.7-5.7-5.4-.2-.2-.4-.4-.5-.5s-.2-.2-.2-.3h0c.4-.1,1.2.4,2,.9-.5-.3-.3-.6-.9-.9.1-.1.5-.1,1.1.1s1.4.7,2.4,1.5c-.5-.4-.9-.8-1.4-1.2-.4-.5.2-.3.4-.4.5.4.9.8,1,.7,0,0,.2-.3.3-.3-.5-.4-1.4-1.3-1.9-1.7.5.4,1,.8,1,.7,0,0,.2-.3.3-.3.5.4,1.1.9,1.7,1.5l1.6,1.6.2-.2c-.4-.5-1-1.1-1.6-1.6s-1.2-1-1.7-1.5q.6.3.8,0c.8.6,1.5,1.3,2.1,2,.7.7,1.4,1.4,2.2,2-.4-.5-.9-1-1.4-1.4.7.3,1.5,1.1,2.3,2,.2.2.4.5.6.7,0,.1.2.3.3.4,0,.1.2.3.3.4.2.2.4.5.5.7,0,.1.2.2.3.3,0,0,0,.1.1.2h0c.2.2.4.4.5.6h0c0-.1,0-.2.1-.3,0,0,0-.1.1-.2v-.2c.4-.4.7-.8,1-1.2.4-.6.9-1.1,1.3-1.7,1.8-2.2,3.6-4.3,5.2-6.3,1.2-1.5,2.5-3,4-4.4.2-.2.4-.4.5-.5l.5-.5c.4-.4.7-.7,1.1-1.1.4-.3.7-.7,1.1-1l.3-.3.3-.3.6-.5c.8-.7,1.6-1.3,2.4-1.9.4-.3.8-.6,1.2-.9.2-.2.4-.3.6-.5.2-.2.4-.3.6-.4.4-.3.8-.6,1.2-.9s.8-.6,1.3-.8c.2,0,.4-.3.6-.4.2,0,.4-.3.6-.4.4-.3.8-.5,1.3-.8,0,.2-.3.8.3.6,1.2-.5,1.9-.6,2.3-.6s.5.2.6.4c0,.2-1.7,1.4-1,1.3,0,0,.5-.2.9-.2.7,0-.2.9.5.9s.3-.2.5-.3c.2,0,.4-.2.6-.3.4-.2.8-.4,1.1-.6.6,0,0,1.6.5,1.3l-2.5,1.4.4.2Z"/>
</svg>