<?xml version="1.0" encoding="UTF-8"?>
<svg id="Livello_1" xmlns="http://www.w3.org/2000/svg" version="1.1" viewBox="0 0 41 54">
  <!-- Generator: Adobe Illustrator 30.1.0, SVG Export Plug-In . SVG Version: 2.1.1 Build 136)  -->
  <defs>
    <style>
      .st0 {
        fill: #3684f5;
      }

      .st1 {
        fill: #1c2d94;
      }

      .st2 {
        fill: #fff;
      }
    </style>
  </defs>
  <path class="st2" d="M2.4,2.3v49.4h27.9v-7c0-.3.1-.6.3-.8.2-.2.5-.3.8-.3h7.3V2.4H2.4Z"/>
  <path class="st0" d="M38.7,43.5h-7.3c-.3,0-.6,0-.8.3-.2.2-.3.5-.3.8v7H2.3V2.3h36.4v26.1s2.3-2.7,2.3-2.7V1.2c0-.3,0-.6-.3-.8-.2-.2-.5-.3-.8-.3H1.2c-.3,0-.6,0-.8.3-.2.2-.3.5-.3.8v51.7c0,.3,0,.6.3.8.2.2.5.3.8.3h31.6c.3,0,.6,0,.8-.3l3.6-3.5h0l3.5-3.5c.2-.2.3-.5.3-.8v-20.5l-2.3,2.6v15.6h0ZM32.5,51.7v-5.9h6.1l-6.1,5.9Z"/>
  <polygon class="st2" points="32.5 51.7 38.7 45.8 32.5 45.8 32.5 51.7"/>
  <g>
    <path class="st1" d="M30.5,12.9h0Z"/>
    <path class="st1" d="M30.5,12.9h0Z"/>
    <path class="st1" d="M30.5,12.9h0Z"/>
    <path class="st1" d="M8.7,34.5c.4-.4.8-.9,1.3-1.3l2-2,6.9-6.9,7.2-7.2,2.1-2c.2-.2.4-.4.6-.6s.3-.2.5-.2c.6,0,1.1.2,1.6.5-.1.1-.2.3-.4.4-.2.2-.4.4-.5.6-1,1.1-2.1,2.1-3.2,3.2l-10.6,10.6-4.4,4.4c-.3.3-.6.6-.9.9-.1,0-.3.3-.4.4-.3,0-.5-.2-.8-.3s-.6-.3-.9-.4h-.1Z"/>
    <path class="st1" d="M12.2,37c.3-.3.6-.5.8-.8.5-.5,1.1-1.1,1.6-1.6l3.9-3.9,14.2-14.1h0c.2.2.5,1,.5,1.3s0,.4-.2.6c-.2.3-.5.6-.8.8l-1.5,1.5-5.7,5.7-8.2,8.2-3,3c-.4.4-.8.8-1.2,1.2h0c-.1-.6-.4-1.3-.5-1.9h.1Z"/>
    <path class="st1" d="M6.6,39.5c.3-.6.5-1.3.8-1.9.3-.6.5-1.2.8-1.9.2-.4.3-.7.5-1.1.6.3,1.1.5,1.7.8.2.3.2.7.4,1.1.4.2.9.3,1.3.5l.3,1.2c0,.3.2.5.2.8-.4,0-.8.3-1.2.5-.5.2-1,.4-1.6.6-.6.2-1.2.5-1.8.7,0-.2-.4-.6-.5-.8-.2-.2-.6-.4-.8-.5h0Z"/>
    <path class="st1" d="M5.8,41.6h0c.2,0,.5-.3.7-.5.3-.3.6-.5.9-.8,0,.2.3.4.4.6-.2,0-1.9.8-2,.8h0c.3-.7.5-1.3.8-1.9.3,0,.5.3.8.5-.2,0-.3.3-.5.5-.3.3-.7.6-1,.9h-.1Z"/>
    <path class="st1" d="M29.9,13.2c0-.2.1-.4.3-.5.2-.3.5-.3.8-.4.5,0,1.2.2,1.6.5,1,.6,2.2,1.9,2.5,3,0,.4.2,1,0,1.3s-.5.3-.8.4c.2-.2.3-.3.3-.5v-.6c-.2-1.1-1.3-2.3-2.2-3-.5-.4-1.3-.8-2-.7-.2,0-.4.2-.5.3,0,0,0,.2,0,.2Z"/>
  </g>
</svg>