<?xml version="1.0" encoding="UTF-8"?>
<svg id="Livello_1" xmlns="http://www.w3.org/2000/svg" version="1.1" viewBox="0 0 41 54">
  <!-- Generator: Adobe Illustrator 30.1.0, SVG Export Plug-In . SVG Version: 2.1.1 Build 136)  -->
  <defs>
    <style>
      .st0 {
        fill: #cc3600;
      }

      .st1 {
        fill: #3684f5;
      }

      .st2 {
        fill: #fff;
      }
    </style>
  </defs>
  <path class="st1" d="M38.7,43.5h-7.3c-.3,0-.6,0-.8.3-.2.2-.3.5-.3.8v7H2.3V2.3h36.4v25.8s2.3-2.3,2.3-2.3V1.2c0-.3,0-.6-.3-.8-.2-.2-.5-.3-.8-.3H1.2c-.3,0-.6,0-.8.3-.2.2-.3.5-.3.8v51.7c0,.3,0,.6.3.8.2.2.5.3.8.3h31.6c.3,0,.6,0,.8-.3l3.6-3.5h0l3.5-3.5c.2-.2.3-.5.3-.8v-20.5l-2.3,2.6v15.6h0ZM32.5,51.7v-5.9h6.1l-6.1,5.9Z"/>
  <polygon class="st2" points="32.5 51.7 38.7 45.8 32.5 45.8 32.5 51.7"/>
  <path class="st0" d="M32.4,34.7c1.2,1.2,1.2,3,0,4.2-.6.6-1.3.9-2.1.9s-1.5-.3-2.1-.9l-7.7-7.7-7.7,7.7c-.6.6-1.3.9-2.1.9s-1.5-.3-2.1-.9c-1.2-1.2-1.2-3,0-4.2l7.7-7.7-7.7-7.7c-1.2-1.2-1.2-3,0-4.2s3-1.2,4.2,0l7.7,7.7,7.7-7.7c1.2-1.2,3-1.2,4.2,0s1.2,3,0,4.2l-7.7,7.7,7.7,7.7Z"/>
</svg>