<?xml version="1.0" encoding="UTF-8"?>
<svg id="Livello_1" xmlns="http://www.w3.org/2000/svg" version="1.1" viewBox="0 0 41 54">
  <!-- Generator: Adobe Illustrator 30.1.0, SVG Export Plug-In . SVG Version: 2.1.1 Build 136)  -->
  <defs>
    <style>
      .st0 {
        fill: #1d308f;
      }

      .st1 {
        fill: #fff;
      }

      .st2 {
        fill: #0f195a;
      }
    </style>
  </defs>
  <path class="st2" d="M2.3,2.2v49.5h28v-7c0-.3.1-.6.3-.8.2-.2.5-.3.8-.3h7.3V2.3H2.3Z"/>
  <path class="st0" d="M38.7,43.5h-7.3c-.3,0-.6,0-.8.3-.2.2-.3.5-.3.8v7H2.3V2.3h36.4v25.9l2.3-2.8V1.2c0-.3,0-.6-.3-.8-.2-.2-.5-.3-.8-.3H1.2c-.3,0-.6,0-.8.3-.2.2-.3.5-.3.8v51.7c0,.3,0,.6.3.8.2.2.5.3.8.3h31.6c.3,0,.6,0,.8-.3l3.6-3.5h0l3.5-3.5c.2-.2.3-.5.3-.8v-20.5l-2.3,2.6v15.6h0ZM32.5,51.7v-5.9h6.1l-6.1,5.9Z"/>
  <polygon class="st1" points="32.5 51.7 38.7 45.8 32.5 45.8 32.5 51.7"/>
  <path class="st1" d="M34.4,24c1.7,0,3,1.3,3,3s-.3,1.6-.8,2.1-1.3.8-2.1.8h-10.9v10.9c0,.8-.3,1.6-.8,2.1s-1.3.8-2.1.8c-1.7,0-3-1.3-3-3v-10.9H6.6c-1.7,0-3-1.3-3-3s1.3-3,3-3h10.9v-10.9c0-1.7,1.3-3,3-3s3,1.3,3,3v10.9h10.9v.2Z"/>
</svg>