<?xml version="1.0" encoding="UTF-8"?>
<svg id="Livello_1" xmlns="http://www.w3.org/2000/svg" version="1.1" viewBox="0 0 31 54">
  <!-- Generator: Adobe Illustrator 30.1.0, SVG Export Plug-In . SVG Version: 2.1.1 Build 136)  -->
  <defs>
    <style>
      .st0 {
        fill: #2a86ea;
      }

      .st1 {
        fill: #2164db;
      }
    </style>
  </defs>
  <path class="st0" d="M8.1,50.3v2.8c0,.5.4.9.9.9h12.9c.5,0,.9-.4.9-.9v-2.8c0-.5-.4-.9-.9-.9h-12.9c-.5,0-.9.4-.9.9Z"/>
  <path class="st1" d="M14.8.3L.3,14.8c-.6.6-.2,1.5.6,1.5h7.2v30.2c0,.5.4.9.9.9h12.9c.5,0,.9-.4.9-.9v-30.2h7.2c.8,0,1.2-1,.6-1.5L16.1.3c-.3-.3-.9-.3-1.3,0Z"/>
</svg>