<?xml version="1.0" encoding="UTF-8"?>
<svg id="Livello_1" xmlns="http://www.w3.org/2000/svg" version="1.1" viewBox="0 0 54 54">
  <!-- Generator: Adobe Illustrator 30.1.0, SVG Export Plug-In . SVG Version: 2.1.1 Build 136)  -->
  <defs>
    <style>
      .st0 {
        fill: #364cf6;
      }
    </style>
  </defs>
  <path class="st0" d="M10.2,27.1c0-1.7.3-3.1.8-4.2.4-.8.9-1.6,1.5-2.3.7-.7,1.4-1.2,2.1-1.5,1-.4,2.2-.7,3.6-.7,2.4,0,4.4.8,5.8,2.3,1.5,1.5,2.2,3.6,2.2,6.3s-.7,4.8-2.2,6.3c-1.5,1.5-3.4,2.3-5.8,2.3s-4.4-.8-5.9-2.3c-1.5-1.5-2.2-3.6-2.2-6.2ZM13.6,27c0,1.9.4,3.3,1.3,4.3.9,1,2,1.4,3.3,1.4s2.4-.5,3.3-1.4c.9-1,1.3-2.4,1.3-4.3s-.4-3.3-1.2-4.2c-.8-.9-1.9-1.4-3.3-1.4s-2.5.5-3.3,1.4c-.8.9-1.3,2.4-1.3,4.3Z"/>
  <path class="st0" d="M28.9,35.3v-16.5h3.3v7.3l6.7-7.3h4.5l-6.2,6.4,6.6,10.1h-4.3l-4.5-7.8-2.7,2.8v5h-3.3Z"/>
  <path class="st0" d="M27,54c-3.6,0-7.2-.7-10.5-2.1-3.2-1.4-6.1-3.3-8.6-5.8s-4.4-5.4-5.8-8.6c-1.4-3.3-2.1-6.9-2.1-10.5s.7-7.2,2.1-10.5c1.4-3.2,3.3-6.1,5.8-8.6,2.5-2.5,5.4-4.4,8.6-5.8,3.3-1.4,6.9-2.1,10.5-2.1s7.2.7,10.5,2.1c3.2,1.4,6.1,3.3,8.6,5.8s4.4,5.4,5.8,8.6c1.4,3.3,2.1,6.9,2.1,10.5s-.7,7.2-2.1,10.5c-1.4,3.2-3.3,6.1-5.8,8.6-2.5,2.5-5.4,4.4-8.6,5.8-3.3,1.4-6.9,2.1-10.5,2.1ZM27,3.7C14.1,3.7,3.7,14.1,3.7,27s10.5,23.3,23.3,23.3,23.3-10.5,23.3-23.3S39.9,3.7,27,3.7Z"/>
</svg>