<?xml version="1.0" encoding="UTF-8"?>
<svg id="Livello_1" xmlns="http://www.w3.org/2000/svg" version="1.1" viewBox="0 0 19.9 19.9">
  <!-- Generator: Adobe Illustrator 30.1.0, SVG Export Plug-In . SVG Version: 2.1.1 Build 136)  -->
  <defs>
    <style>
      .st0 {
        fill: #8f9bd7;
      }
    </style>
  </defs>
  <path class="st0" d="M0,1.2C2.2.6,3.7.1,4.2,0c0,0,.2,0,.4,0,0,0,.4,0,.7.2.8.4,1.4,2,1.4,2,.7,1.8,1.1,2.7.6,3.5-.1.2-.6,1.2-1.4,1.6-.1,0-.4.2-.6.5,0,.2,0,.4,0,.6.4,1.4,2,3,2,3,.7.7,1.5,1.3,3,2.5.5.4,1,.8,1.5.7.5,0,.6-.5,1.2-1.1,1.1-1.1,1.5-1.2,1.7-1.2.2,0,.5,0,1,.2.9.2,1.9.5,2.9,1.2.5.4.8.5,1,.9.3.5.3,1,.2,1.8,0,0,0,1.6-1,3,0,0,0,0-.1.2-.4.5-1.2.4-1.6.4-2.7-.2-3.9-.6-3.9-.6-2.6-1-4.2-1.5-6.1-2.9-.7-.5-2.5-1.9-4.2-4.4C1.3,9.3.6,6.8.5,6.2c-.3-1.1-.4-2.1-.5-2.8"/>
</svg>