<?xml version="1.0" encoding="UTF-8"?><svg id="Livello_1" xmlns="http://www.w3.org/2000/svg" viewBox="0 0 14.88 20.28"><defs><style>.cls-1{fill:#8f9bd7;}.cls-2{fill:#fff;}</style></defs><path class="cls-1" d="M7.57,20.28c-2.2-2.9-3.9-5.24-5.09-6.89-.5-.7-.76-1.07-1.06-1.64-.6-1.14-2.31-4.41-.85-7.58C1.62,1.87,3.73.9,4.29.66,5.94-.08,7.41-.02,7.89.02c3.5.26,5.46,2.95,5.62,3.18.49.7,1.6,2.54,1.33,4.77-.12,1-.48,1.72-1.11,2.97-.75,1.5-1.57,2.64-2.17,3.39"/><ellipse class="cls-2" cx="7.47" cy="7.42" rx="3.13" ry="3.26"/></svg>