<?xml version="1.0" encoding="UTF-8"?>
<svg id="Livello_1" xmlns="http://www.w3.org/2000/svg" xmlns:xlink="http://www.w3.org/1999/xlink" version="1.1" viewBox="0 0 100 80.2">
  <!-- Generator: Adobe Illustrator 30.1.0, SVG Export Plug-In . SVG Version: 2.1.1 Build 136)  -->
  <defs>
    <style>
      .st0 {
        fill: none;
      }

      .st1 {
        clip-path: url(#clippath-1);
      }

      .st2 {
        fill: #0b0e91;
      }

      .st3 {
        clip-path: url(#clippath);
      }
    </style>
    <clipPath id="clippath">
      <polygon class="st0" points="0 .1 0 .1 47.4 .1 47.4 80.2 0 80.2 0 .1"/>
    </clipPath>
    <clipPath id="clippath-1">
      <polygon class="st0" points="99.8 0 99.8 0 52.4 .1 52.6 80.2 100 80.1 99.8 0"/>
    </clipPath>
  </defs>
  <g id="_x3C_Ripetizione_specchio_x3E_">
    <g class="st3">
      <path class="st2" d="M0,76.3v-17.3s.3-2.2,2.1-3c3.7-1.5,15.3-5,15.3-5v-15.3s1-4.1,1.9-5.2c2.2-2.7,15.6-23.7,20.1-29.3,0,0,2.3-2.1,5.2-.6,2.7,1.5,2.6,2.8,2.7,3.6.2,2.6-1.4,4.8-1.4,4.8,0-.6-8.1,14-11.4,19.1-1.4,2.1-2.2,7.8-2.2,8.5v11.7c.3,2.4,5,2.4,5.1,0,0-4.1,0-13.9,0-13.9,0,0,1-4.2,5.1-4s4.9,4.2,4.9,4.2l-.2,23.8c.5,3.4-6.5,13.3-12.8,14.2-1.7.3-20.8,6-24.8,6.6-.6,0-6.1,2-8,0s-1.6-3-1.6-3Z"/>
    </g>
  </g>
  <g id="_x3C_Ripetizione_specchio_x3E_1" data-name="_x3C_Ripetizione_specchio_x3E_">
    <g class="st1">
      <path class="st2" d="M100,76.2v-17.3s-.4-2.2-2.2-3c-3.7-1.5-15.3-4.9-15.3-4.9v-15.3s-1.1-4.1-1.9-5.2c-2.2-2.7-15.6-23.6-20.2-29.2,0,0-2.3-2.1-5.2-.6-2.6,1.5-2.6,2.8-2.7,3.6-.2,2.6,1.4,4.8,1.4,4.8,0-.6,8.1,14,11.5,19.1,1.4,2.1,2.2,7.8,2.2,8.5v11.7c-.3,2.4-5,2.5-5.1,0-.1-4.1,0-13.9,0-13.9,0,0-1-4.2-5.1-4s-4.8,4.2-4.8,4.2l.3,23.8c-.5,3.4,6.6,13.3,12.8,14.2,1.7.2,20.8,6,24.8,6.6.6,0,6.1,2,8,0s1.6-3,1.6-3Z"/>
    </g>
  </g>
</svg>