<?xml version="1.0" encoding="UTF-8"?>
<svg id="Livello_1" xmlns="http://www.w3.org/2000/svg" version="1.1" viewBox="0 0 54 54">
  <!-- Generator: Adobe Illustrator 30.1.0, SVG Export Plug-In . SVG Version: 2.1.1 Build 136)  -->
  <defs>
    <style>
      .st0 {
        fill: #616e7d;
      }

      .st1 {
        fill: #3685f6;
      }

      .st2 {
        fill: #1c2d95;
      }
    </style>
  </defs>
  <polygon class="st0" points="10.6 28.3 9.8 28.3 9.8 28.3 10.6 28.3"/>
  <path class="st2" d="M14,41.3c-3.4-3.5-5.3-7.7-5.7-12.4l-4.7.5h0s0,0,0,0c-.4,0-.9,0-1.3,0-.1,0-.2,0-.3,0,.6,6.2,3.3,12,7.6,16.5,5,5.1,11.6,7.9,18.6,7.9s12.9-2.5,17.7-7.1l-4.6-4.8c-3.6,3.3-8.2,5.1-13.1,5.1s-10.3-2.1-14-6Z"/>
  <path class="st2" d="M27.8,0c-7,0-13.6,2.8-18.6,7.9-.6.6-1.1,1.2-1.7,1.9l4.7,4.8c.5-.7,1-1.3,1.6-1.9,3.7-3.8,8.7-6,14-6,5.3,0,10.3,2.1,14,6,3.6,3.7,5.6,8.6,5.8,13.9,2.2-.4,4.3-.7,6.5-1.1-.4-6.6-3.1-12.8-7.6-17.5C41.4,2.8,34.8,0,27.8,0h0Z"/>
  <polygon class="st1" points="2.7 4.9 0 23.8 18.3 21 12.2 14.6 7.5 9.8 2.7 4.9"/>
  <polygon class="st1" points="41.1 42.1 45.7 46.9 50.4 51.8 53.2 32.9 34.8 35.7 41.1 42.1"/>
</svg>