<?xml version="1.0" encoding="UTF-8"?>
<svg id="Livello_1" xmlns="http://www.w3.org/2000/svg" version="1.1" viewBox="0 0 54 54">
  <!-- Generator: Adobe Illustrator 30.1.0, SVG Export Plug-In . SVG Version: 2.1.1 Build 136)  -->
  <defs>
    <style>
      .st0 {
        fill: #17293a;
      }
    </style>
  </defs>
  <path class="st0" d="M49.3,25.7c-1.8-3.7-8.3-14.4-22.2-14.4S6.7,22,4.9,25.7s-.4,1.7,0,2.5c1.8,3.7,8.3,14.4,22.2,14.4s20.3-10.7,22.2-14.4c.4-.8.4-1.7,0-2.5ZM27.1,38c-6.1,0-11-4.9-11-11s4.9-11,11-11,3.8.5,5.4,1.5c.4-.3.9-.4,1.6-.4,2,0,3.4,1.6,3.4,3.4s0,1.3-.5,1.8c.7,1.5,1.1,2.9,1.1,4.6,0,6.1-4.9,11-11,11Z"/>
  <path class="st0" d="M35.7,27c0,4.8-3.8,8.6-8.6,8.6s-8.6-3.8-8.6-8.6,3.8-8.6,8.6-8.6,2.6.3,3.8.9c-.1.4-.3.9-.3,1.3,0,2,1.6,3.4,3.4,3.4s.8,0,1.1-.1c.4.9.5,2,.5,3Z"/>
</svg>