<?xml version="1.0" encoding="UTF-8"?>
<svg id="bfaa0605-9459-4e6b-b411-797f2c90e4c3" xmlns="http://www.w3.org/2000/svg" version="1.1" viewBox="0 0 92 70">
  <!-- Generator: Adobe Illustrator 30.1.0, SVG Export Plug-In . SVG Version: 2.1.1 Build 136)  -->
  <defs>
    <style>
      .st0 {
        fill: #e1e4e8;
      }
    </style>
  </defs>
  <path class="st0" d="M88.1,43.7c-2.5-2.7-6.1-4.2-9.8-4.1-1.8.1-3.6.5-5.3,1.1-1.7.6-3.4,1-5.2,1.1-3,0-4.5-2.6-4.5-7.7-.1-6.5,2.4-12.8,6.9-17.6,3.1-3.4,8.2-7.1,15.4-11.2V0c-10.2,3.2-18.4,8.4-24.6,15.6-6.6,7.6-10.2,17.3-10.1,27.4-.1,6.7,2.1,13.2,6.2,18.5,4.4,5.7,10.1,8.5,16.9,8.5,4.6,0,9-1.6,12.4-4.7,3.5-2.9,5.5-7.2,5.4-11.7,0-3.7-1.4-7.3-3.9-9.9Z"/>
  <path class="st0" d="M27,39.9c-1.7,0-3.4.4-5,1-1.6.5-3.2.9-4.9,1-2.8,0-4.2-2.8-4.2-8.4,0-10.8,7.3-20.1,22-27.9V0c-9.4,2.9-17.9,8.3-24.4,15.6C3.7,23,0,32.7,0,42.7c-.1,6.8,2.1,13.3,6.4,18.6,4.6,5.8,10.3,8.7,17.1,8.7,4.5,0,8.8-1.6,12.2-4.5,3.5-2.7,5.5-6.9,5.4-11.4,0-3.8-1.4-7.4-4.1-10.1-2.6-2.7-6.2-4.2-9.9-4.1Z"/>
</svg>