<?xml version="1.0" encoding="UTF-8"?>
<svg id="Livello_1" xmlns="http://www.w3.org/2000/svg" version="1.1" viewBox="0 0 74.9 56.8">
  <!-- Generator: Adobe Illustrator 30.1.0, SVG Export Plug-In . SVG Version: 2.1.1 Build 136)  -->
  <defs>
    <style>
      .st0 {
        fill: #e1e2ee;
      }
    </style>
  </defs>
  <path class="st0" d="M28.2.2S3,7.8.3,30.5c-2.7,22.7,5.1,20.4,9.6,24.2,3.2,2.6,12.9,2.8,16.5.7s6.9-5,7.1-10.4-1.3-6.9-3-8.5-4.5-3.4-6.9-3.6-7.8,2-10.8,1.1c-4.3-1.3-3.6-12.6,2.7-19.6s12.8-9.6,12.8-9.6V.2h0Z"/>
  <path class="st0" d="M69.7,0s-25.3,7.6-28,30.3c-1.6,13.7,5.1,20.4,9.6,24.2,3.2,2.6,12.9,2.8,16.5.7s6.9-5,7.1-10.4-1.3-6.9-3-8.5-4.5-3.4-6.9-3.6-7.8,2-10.8,1.1c-4.3-1.3-3.6-12.6,2.7-19.6s12.8-9.6,12.8-9.6V0Z"/>
</svg>