<?xml version="1.0" encoding="UTF-8"?>
<svg id="Livello_1" xmlns="http://www.w3.org/2000/svg" version="1.1" viewBox="0 0 338.1 16.5">
  <!-- Generator: Adobe Illustrator 30.1.0, SVG Export Plug-In . SVG Version: 2.1.1 Build 136)  -->
  <defs>
    <style>
      .st0 {
        fill: #ffd076;
      }
    </style>
  </defs>
  <path class="st0" d="M0,12.2l1.2,4.3c.5-.9,71.6-8.1,137.4-10.1,145.6-4.4,146.7-1.7,179.1,3.1,8.7,1.3,13.6,4.7,14.1,5.4,0,0,6.1.4,6.2.1.4-1.1-1.8-3.2-2.2-3.6-3.6-3.7-15.1-5.7-17.3-6.1-15.8-3.3-34.5-4.2-44.5-4.5s-18.5-.5-30.7-.6c-9.7,0-20.6-.2-35.1,0-8.2.1-17.2.4-35.2.9-6.5.2-15.1.4-26.6.8-6.8.2-17.5.6-31.4,1.2-14.4.6-43.8,2.4-59.6,3.7-26.1,2.2-21.8,1.9-25.2,2.2C12.7,10.2.3,12.3,0,12.2Z"/>
</svg>