<?xml version="1.0" encoding="UTF-8"?>
<svg id="Livello_1" xmlns="http://www.w3.org/2000/svg" version="1.1" viewBox="0 0 54 54">
  <!-- Generator: Adobe Illustrator 30.1.0, SVG Export Plug-In . SVG Version: 2.1.1 Build 136)  -->
  <defs>
    <style>
      .st0 {
        fill: #fff;
      }
    </style>
  </defs>
  <path d="M27,.2h0C12.3.2.2,12.3.2,27H.2c0,14.7,12.1,26.8,26.8,26.8h0c14.7,0,26.8-12.1,26.8-26.8h0C53.8,12.3,41.7.2,27,.2Z"/>
  <path class="st0" d="M32.4,28.3h-4.8v15.3h-7v-15.3h-3.4v-6h3.4v-3.9c0-2.8,1.3-7.1,7.1-7.1h5.2v5.8h-3.8c-.6,0-1.5.3-1.5,1.6v3.5h5.4l-.6,6h0Z"/>
</svg>