<?xml version="1.0" encoding="UTF-8"?>
<svg id="Livello_1" xmlns="http://www.w3.org/2000/svg" version="1.1" viewBox="0 0 54 54">
  <!-- Generator: Adobe Illustrator 30.1.0, SVG Export Plug-In . SVG Version: 2.1.1 Build 136)  -->
  <defs>
    <style>
      .st0 {
        fill: #06178c;
      }
    </style>
  </defs>
  <g id="c">
    <path class="st0" d="M27,4.9c7.2,0,8.1,0,10.9.2,2.6,0,4.1.6,5,.9,1.2.4,2.2,1.1,3.1,2,.9.9,1.6,1.9,2,3.1.4,1,.8,2.4.9,5,0,2.8.2,3.7.2,10.9s0,8.1-.2,10.9c0,2.6-.6,4.1-.9,5-.9,2.4-2.8,4.2-5.1,5.1-1,.4-2.4.8-5,.9-2.8,0-3.7.2-10.9.2s-8.1,0-10.9-.2c-2.6,0-4.1-.6-5-.9-1.2-.4-2.2-1.1-3.1-2-.9-.9-1.6-1.9-2-3.1-.4-1-.8-2.4-.9-5,0-2.8-.2-3.7-.2-10.9s0-8.1.2-10.9c0-2.6.6-4.1.9-5,.4-1.2,1.1-2.2,2-3.1s1.9-1.6,3.1-2c1-.4,2.4-.8,5-.9,2.8,0,3.7-.2,10.9-.2M27,0c-7.3,0-8.3,0-11.1.2-2.9.1-4.8.6-6.6,1.3-1.8.7-3.4,1.7-4.8,3.1-1.4,1.4-2.4,3-3.1,4.8-.7,1.7-1.1,3.7-1.3,6.6,0,2.7,0,3.7,0,11s0,8.3.2,11.1c.1,2.9.6,4.8,1.3,6.6.7,1.8,1.7,3.4,3.1,4.8,1.4,1.4,3,2.4,4.8,3.1,1.7.7,3.7,1.1,6.6,1.3,2.9,0,3.8.2,11.1.2s8.3,0,11.1-.2c2.9,0,4.8-.6,6.6-1.3,3.6-1.4,6.5-4.3,7.9-7.9.7-1.7,1.1-3.7,1.3-6.6,0-2.9.2-3.8.2-11.1s0-8.3-.2-11.1c0-2.9-.6-4.8-1.3-6.6s-1.7-3.4-3.1-4.8c-1.4-1.4-3-2.4-4.8-3.1-1.7-.7-3.7-1.1-6.6-1.3-2.9,0-3.9,0-11.2,0h0Z"/>
    <path class="st0" d="M27,13.1c-7.7,0-13.9,6.2-13.9,13.9s6.2,13.9,13.9,13.9,13.9-6.2,13.9-13.9h0c0-7.7-6.2-13.9-13.9-13.9ZM27,36c-5,0-9-4-9-9s4-9,9-9,9,4,9,9-4,9-9,9h0Z"/>
    <path class="st0" d="M41.4,9.3c1.8,0,3.2,1.4,3.2,3.2s-1.4,3.2-3.2,3.2-3.2-1.4-3.2-3.2,1.4-3.2,3.2-3.2Z"/>
  </g>
</svg>