<?xml version="1.0" encoding="UTF-8"?><svg id="Livello_1" xmlns="http://www.w3.org/2000/svg" viewBox="0 0 54 54"><defs><style>.cls-1{fill:#070096;}.cls-2{fill:#fff;}.cls-3{fill:#f8f5fd;}</style></defs><path class="cls-2" d="M32.4,28.3h-4.8v15.3h-7v-15.3h-3.4v-6h3.4v-3.9c0-2.8,1.3-7.1,7.1-7.1h5.2v5.8h-3.8c-.6,0-1.5.3-1.5,1.6v3.5h5.4l-.6,6h0v.1Z"/><circle class="cls-1" cx="27" cy="27" r="27"/><path class="cls-3" d="M27.15,30.85s7.88-7.19,6.45-12.16c-2.15-7.5-11.47-6.4-12.85-.14-1.12,5.07,6.4,12.3,6.4,12.3Z"/><circle class="cls-1" cx="27.12" cy="20.09" r="2.32"/><path class="cls-3" d="M33.72,25.22s5.21-2.49,7-3.19c1.4-.54,1.63.93,1.63.93,0,0,.03,9.63-.08,12.83-.04,1.21-1.01,1.56-1.01,1.56l-6.46,2.68-1.05.16-.04-14.97Z"/><path class="cls-3" d="M22.08,36.88v-9.17s2.49,3.04,3.38,4.01c1.56,1.69,3.41-.3,3.41-.3l3.21-3.71-.07,12.48-9.93-3.31Z"/><path class="cls-3" d="M11.99,25.48s.04,9.54.06,14.19c0,1.12,1.61.56,1.61.56l6.68-3.23v-12.24l-1.28-2.45-7.07,3.17Z"/></svg>