<?xml version="1.0" encoding="UTF-8"?>
<svg id="Livello_1" xmlns="http://www.w3.org/2000/svg" version="1.1" viewBox="0 0 54 54">
  <!-- Generator: Adobe Illustrator 30.1.0, SVG Export Plug-In . SVG Version: 2.1.1 Build 136)  -->
  <defs>
    <style>
      .st0 {
        fill: #fff;
      }

      .st1 {
        fill: #06178c;
      }
    </style>
  </defs>
  <path class="st1" d="M53.8,27c0,7.2-2.8,13.9-7.8,19-5.1,5.1-11.8,7.8-19,7.8s-13.9-2.8-19-7.8C3,40.9.2,34.2.2,27s2.8-13.9,7.8-19C13.1,3,19.8.2,27,.2s13.9,2.8,19,7.8c5.1,5.1,7.8,11.8,7.8,19Z"/>
  <path class="st0" d="M35.9,20v-1.9c0-.2-.1-.4-.3-.5v-3.1c0-1.5-1.2-2.6-2.6-2.6h-11.6c-1.5,0-2.6,1.2-2.6,2.6v4.2c-.3,0-.5.3-.5.6v2.9c0,.3.2.5.5.6v16.6c0,1.5,1.2,2.6,2.6,2.6h11.6c1.5,0,2.6-1.2,2.6-2.6v-14.5c.2,0,.3-.3.3-.5v-1.9c0-.2-.1-.4-.3-.5v-1.6c.2,0,.3-.3.3-.5ZM34,39.4c0,.6-.5,1.1-1.1,1.1h-11.6c-.6,0-1.1-.5-1.1-1.1V14.6c0-.6.5-1.1,1.1-1.1h11.6c.6,0,1.1.5,1.1,1.1v24.9h0Z"/>
  <path class="st0" d="M25.1,16.2h3.6c.4,0,.8-.4.8-.8s-.4-.8-.8-.8h-3.6c-.4,0-.8.4-.8.8s.4.8.8.8ZM25.2,15.1c.2,0,.3.1.3.3s-.1.3-.3.3-.3-.1-.3-.3c0-.2.1-.3.3-.3Z"/>
  <path class="st0" d="M29.7,38.5h-5.2c-.2,0-.3.1-.3.3s.1.3.3.3h5.2c.2,0,.3-.1.3-.3s-.1-.3-.3-.3Z"/>
</svg>