<?xml version="1.0" encoding="UTF-8"?>
<svg xmlns="http://www.w3.org/2000/svg" version="1.1" viewBox="0 0 54 54">
  <!-- Generator: Adobe Illustrator 30.1.0, SVG Export Plug-In . SVG Version: 2.1.1 Build 136)  -->
  <defs>
    <style>
      .st0, .st1 {
        isolation: isolate;
      }

      .st2 {
        fill: #fff;
      }

      .st1 {
        fill: #06178c;
        mix-blend-mode: color-dodge;
      }
    </style>
  </defs>
  <g class="st0">
    <g id="Livello_1">
      <g>
        <path class="st1" d="M54,27c0,7.2-2.8,14-7.9,19.1-5.1,5.1-11.9,7.9-19.1,7.9s-14-2.8-19.1-7.9C2.9,41,0,34.2,0,27S2.9,13,7.9,7.9C13,2.9,19.8,0,27,0s14,2.8,19.1,7.9c5.1,5.1,7.9,11.9,7.9,19.1Z"/>
        <path class="st2" d="M39.5,17.2v-2.7c0-.3-.2-.5-.4-.7v-4.3c0-2.1-1.7-3.7-3.7-3.7h-16.3c-2.1,0-3.7,1.7-3.7,3.7v5.9c-.4.1-.7.5-.7.9v4c0,.4.3.8.7.9v23.3c0,2.1,1.7,3.7,3.7,3.7h16.3c2.1,0,3.7-1.7,3.7-3.7v-20.4c.2-.1.4-.4.4-.7v-2.7c0-.3-.2-.5-.4-.7v-2.2c.2-.1.4-.4.4-.7ZM36.8,44.5c0,.8-.7,1.5-1.5,1.5h-16.3c-.8,0-1.5-.7-1.5-1.5V9.5c0-.8.7-1.5,1.5-1.5h16.3c.8,0,1.5.7,1.5,1.5v35h0Z"/>
        <path class="st2" d="M24.3,11.8h5c.6,0,1.1-.5,1.1-1.1s-.5-1.1-1.1-1.1h-5c-.6,0-1.1.5-1.1,1.1s.5,1.1,1.1,1.1ZM24.5,10.3c.2,0,.4.2.4.4s-.2.4-.4.4-.4-.2-.4-.4c0-.2.2-.4.4-.4Z"/>
        <path class="st2" d="M30.8,43.2h-7.4c-.2,0-.4.2-.4.4s.2.4.4.4h7.4c.2,0,.4-.2.4-.4s-.2-.4-.4-.4Z"/>
      </g>
    </g>
  </g>
</svg>