<?xml version="1.0" encoding="UTF-8"?>
<svg id="a" xmlns="http://www.w3.org/2000/svg" version="1.1" viewBox="0 0 49.9 49.9">
  <!-- Generator: Adobe Illustrator 30.1.0, SVG Export Plug-In . SVG Version: 2.1.1 Build 136)  -->
  <defs>
    <style>
      .st0, .st1 {
        fill-rule: evenodd;
      }

      .st1 {
        fill: none;
      }
    </style>
  </defs>
  <path class="st1" d="M24.9,3.5C13,3.5,3.3,13.1,3.3,24.9s1.5,9,4.1,12.6l-2.7,8,8.3-2.6c3.4,2.2,7.5,3.5,11.9,3.5,11.9,0,21.6-9.6,21.6-21.4S36.8,3.5,24.9,3.5h0Z"/>
  <path class="st0" d="M49.9,24.3c0,13.4-11,24.3-24.5,24.3s-8.3-1.1-11.8-3L0,49.9l4.4-13c-2.2-3.7-3.5-8-3.5-12.5C.9,10.9,11.9,0,25.4,0s24.5,10.9,24.5,24.3h0ZM25.4,3.9C14,3.9,4.8,13,4.8,24.3s1.5,8.6,3.9,12l-2.6,7.6,7.9-2.5c3.2,2.1,7.1,3.4,11.3,3.4,11.4,0,20.6-9.2,20.6-20.4S36.8,3.9,25.4,3.9h0ZM37.8,29.9c-.2-.2-.5-.4-1.2-.7s-3.5-1.7-4.1-1.9-1-.3-1.4.3c-.4.6-1.5,1.9-1.9,2.3s-.7.5-1.3.1c-.6-.3-2.5-.9-4.8-3-1.8-1.6-3-3.5-3.3-4.1-.4-.6,0-.9.3-1.2.3-.3.6-.7.9-1,.3-.4.4-.6.6-1s.1-.7,0-1c-.1-.3-1.4-3.2-1.9-4.4s-1-1.1-1.4-1.1-1,.1-1,.1c0,0-1.2.1-1.8.8-.6.6-2.1,2-2.1,5s2.1,5.8,2.4,6.2,4.2,6.6,10.2,9c6.1,2.4,6.1,1.6,7.2,1.5,1.1,0,3.5-1.4,4-2.8s.5-2.6.3-2.8h0Z"/>
</svg>