<?xml version="1.0" encoding="UTF-8"?>
<svg id="a" xmlns="http://www.w3.org/2000/svg" version="1.1" viewBox="0 0 49.9 49.9">
  <!-- Generator: Adobe Illustrator 30.1.0, SVG Export Plug-In . SVG Version: 2.1.1 Build 136)  -->
  <defs>
    <style>
      .st0 {
        fill: none;
      }

      .st1 {
        fill: #06178c;
        fill-rule: evenodd;
      }
    </style>
  </defs>
  <path class="st0" d="M24.9,3.5C13,3.5,3.3,13.1,3.3,24.9s1.5,9,4.1,12.6l-2.7,8,8.3-2.6c3.4,2.2,7.5,3.5,11.9,3.5,11.9,0,21.6-9.6,21.6-21.4S36.8,3.5,24.9,3.5h0Z"/>
  <g>
    <path class="st1" d="M36.3,30.7c-.6-.3-3.7-2-4.3-2.2-.6-.2-1-.4-1.5.3-.4.6-1.7,2-2.1,2.4-.7.8-2.2-.2-3-.7-.9-.5-2.1-1.3-3.4-2.6-1.8-1.8-3-3.9-3.4-4.6-.5-1,1.3-2.2,1.9-3.2,0,0,0-.1.1-.2.2-.4.1-.8,0-1.1-.1-.3-1.3-3.5-1.8-4.8-.6-1.6-3.3-1.5-4.4-.5-.6.6-2.3,2.1-2.4,5.2-.1,3.1,2.1,6.3,2.4,6.7.3.4,4.2,7.3,10.6,10.1,3.8,1.7,6.8,3.2,10.5.7.7-.5,1.3-1.1,1.6-1.7.6-1.5.6-2.8.5-3-.2-.3-.6-.4-1.2-.8Z"/>
    <path class="st1" d="M42.3,7.5C37.7,2.8,31.5.2,24.9.2,11.3.2.2,11.3.2,24.9c0,4.3,1.1,8.6,3.3,12.3L0,50l13.1-3.4c3.6,2,7.7,3,11.8,3h0s0,0,0,0c13.6,0,24.7-11.1,24.7-24.7,0-6.6-2.6-12.8-7.2-17.4h0ZM24.9,45.4h0c-3.7,0-7.3-1-10.4-2.9l-.7-.4-7.8,2,2.1-7.6-.5-.8c-2.1-3.3-3.1-7-3.1-10.9,0-11.3,9.2-20.5,20.5-20.5,5.5,0,10.6,2.1,14.5,6,3.9,3.9,6,9,6,14.5,0,11.3-9.2,20.5-20.5,20.5Z"/>
  </g>
</svg>