<?xml version="1.0" encoding="UTF-8"?>
<svg xmlns="http://www.w3.org/2000/svg" version="1.1" viewBox="0 0 54 54">
  <!-- Generator: Adobe Illustrator 30.1.0, SVG Export Plug-In . SVG Version: 2.1.1 Build 136)  -->
  <defs>
    <style>
      .st0 {
        fill: #ededed;
      }

      .st0, .st1 {
        fill-rule: evenodd;
      }

      .st2 {
        isolation: isolate;
      }

      .st1, .st3 {
        fill: #06178c;
      }

      .st3 {
        mix-blend-mode: color-dodge;
      }
    </style>
  </defs>
  <g class="st2">
    <g id="Livello_1">
      <g>
        <circle class="st3" cx="27" cy="27" r="26.9"/>
        <path class="st0" d="M17.8,16.4c3-.2,6.5-.4,9.2-.4h0c2.7,0,6.2.1,9.2.4,3.5.3,5.3.9,5.8,4.4.2,1.6.4,3.8.4,6.1h0c0,2.3,0,4.6-.4,6.1-.5,3.6-2.3,4.1-5.8,4.4-3.1.3-6.5.4-9.2.4h0c-2.7,0-6.2,0-9.2-.4-3.5-.3-5.4-.8-5.9-4.4-.2-1.6-.3-3.8-.3-6.1h0c0-2.3.1-4.5.3-6.1.5-3.5,2.3-4.1,5.9-4.4h0Z"/>
        <polygon class="st1" points="22.9 22.3 31.1 27 22.9 31.6 22.9 22.3"/>
      </g>
    </g>
  </g>
</svg>