<?xml version="1.0" encoding="UTF-8"?>
<svg id="Livello_1" xmlns="http://www.w3.org/2000/svg" version="1.1" viewBox="0 0 54 54">
  <!-- Generator: Adobe Illustrator 30.1.0, SVG Export Plug-In . SVG Version: 2.1.1 Build 136)  -->
  <defs>
    <style>
      .st0, .st1 {
        fill-rule: evenodd;
      }

      .st0, .st2 {
        fill: #fff;
      }
    </style>
  </defs>
  <path class="st2" d="M32.4,28.3h-4.8v15.3h-7v-15.3h-3.4v-6h3.4v-3.9c0-2.8,1.3-7.1,7.1-7.1h5.2v5.8h-3.8c-.6,0-1.5.3-1.5,1.6v3.5h5.4l-.6,6h0Z"/>
  <circle cx="27" cy="27" r="26.9"/>
  <path class="st0" d="M17.8,16.4c3-.2,6.5-.4,9.2-.4h0c2.7,0,6.2.1,9.2.4,3.5.3,5.3.9,5.8,4.4.2,1.6.4,3.8.4,6.1h0c0,2.3-.1,4.6-.4,6.1-.5,3.6-2.3,4.1-5.8,4.4-3.1.3-6.5.4-9.2.4h0c-2.7,0-6.2,0-9.2-.4-3.5-.3-5.4-.8-5.9-4.4-.2-1.6-.3-3.8-.3-6.1h0c0-2.3.1-4.5.3-6.1.5-3.5,2.3-4.1,5.9-4.4h0Z"/>
  <polygon class="st1" points="23.9 22.3 32 27 23.9 31.6 23.9 22.3"/>
</svg>